<?xml version="1.0" encoding="UTF-8"?>
<svg id="_レイヤー_1" data-name="レイヤー 1" xmlns="http://www.w3.org/2000/svg" viewBox="0 0 532.57 104.17">
  <defs>
    <style>
      .cls-1 {
        fill: #31b5a2;
      }

      .cls-2 {
        fill: #141423;
      }

      .cls-3 {
        fill: #1e8cd6;
      }
    </style>
  </defs>
  <g>
    <path class="cls-2" d="M139.73,93.25c-1.38,0-2.5-1.12-2.5-2.5v-53c0-1.38,1.12-2.5,2.5-2.5h6.25c1.16,0,2.15.78,2.43,1.9l1.08,4.41.63-.81c3.35-4.26,8.02-6.51,13.51-6.51,11.97,0,21,10.1,21,23.5s-9.03,23.5-21,23.5c-5.29,0-9.86-2.15-13.22-6.22l-.89-1.07v16.79c0,1.38-1.12,2.5-2.5,2.5h-7.3ZM160.73,45.14c-6.78,0-11.9,5.42-11.9,12.6s5.12,12.6,11.9,12.6,11.9-5.42,11.9-12.6-5.12-12.6-11.9-12.6Z"/>
    <path class="cls-2" d="M199.41,80.25c-1.38,0-2.5-1.12-2.5-2.5v-40c0-1.38,1.12-2.5,2.5-2.5h7.3c1.38,0,2.5,1.12,2.5,2.5v40c0,1.38-1.12,2.5-2.5,2.5h-7.3ZM203.01,27.74c-4.14,0-7.5-3.37-7.5-7.5s3.36-7.4,7.5-7.4,7.5,3.32,7.5,7.4-3.37,7.5-7.5,7.5Z"/>
    <path class="cls-2" d="M247.35,81.25c-10.87,0-17.1-6.78-17.1-18.6v-17h-6.7c-1.38,0-2.5-1.12-2.5-2.5v-5.06c0-1.33,1.04-2.42,2.36-2.5l6.36-.35h1.11s1.42-10.92,1.42-10.92c.16-1.24,1.23-2.18,2.48-2.18h5.36c1.38,0,2.5,1.12,2.5,2.5v10.6h12.3c1.38,0,2.5,1.12,2.5,2.5v5.4c0,1.38-1.12,2.5-2.5,2.5h-9.8c-1.38,0-2.5,1.12-2.5,2.5v14.2c0,4.81,2.45,7.8,6.4,7.8,1.38,0,2.81-.4,4.27-1.19.34-.19.72-.28,1.12-.28.83,0,1.6.41,2.07,1.11l3.08,4.53c.38.57.52,1.27.38,1.94-.14.66-.53,1.22-1.09,1.57-3.54,2.21-7.64,3.43-11.53,3.43Z"/>
    <path class="cls-2" d="M289.61,81.25c-11.97,0-21-10.1-21-23.5s9.03-23.5,21-23.5c5.41,0,10.04,2.42,13.4,7l.64.87,1.2-4.95c.27-1.12,1.27-1.91,2.43-1.91h6.24c1.38,0,2.5,1.12,2.5,2.5v40c0,1.38-1.12,2.5-2.5,2.5h-6.27c-1.15,0-2.14-.78-2.42-1.88l-1.29-5.1-.62.9c-3.23,4.63-7.82,7.08-13.29,7.08ZM292.51,45.14c-6.78,0-11.9,5.42-11.9,12.6s5.12,12.6,11.9,12.6,11.9-5.42,11.9-12.6-5.12-12.6-11.9-12.6Z"/>
    <path class="cls-2" d="M347.78,81.25c-6.11,0-11.73-1.61-17.16-4.92-.57-.35-.96-.9-1.1-1.56-.15-.67-.01-1.38.37-1.95l2.76-4.09c.46-.69,1.24-1.1,2.07-1.1.49,0,.97.15,1.39.42,3.8,2.52,7.95,3.9,11.68,3.9s6.3-1.77,6.3-4.5c0-3.21-3.37-4.15-8.47-5.58-7.51-2.07-14.84-4.87-14.84-14.12,0-7.95,7.16-13.5,17.4-13.5,4.82,0,9.8,1.28,14.02,3.6.61.34,1.04.9,1.21,1.58.17.68.04,1.41-.35,1.99l-2.63,3.95c-.46.69-1.24,1.11-2.07,1.11-.44,0-.87-.12-1.25-.34-2.99-1.73-6.49-2.8-9.12-2.8-4.79,0-5.5,2.57-5.5,4.1,0,3.19,3.85,4.46,8.87,5.78,9.98,2.61,14.43,6.88,14.43,13.82,0,8.76-6.9,14.2-18,14.2Z"/>
    <path class="cls-2" d="M393.38,81.25c-10.46,0-16.7-7.14-16.7-19.1v-24.4c0-1.38,1.12-2.5,2.5-2.5h7.3c1.38,0,2.5,1.12,2.5,2.5v22.5c0,6.23,3.13,9.8,8.6,9.8,4.01,0,7.48-2.16,10.02-6.24l.08-.12v-25.95c0-1.38,1.12-2.5,2.5-2.5h7.4c1.38,0,2.5,1.12,2.5,2.5v40c0,1.38-1.12,2.5-2.5,2.5h-6.38c-1.14,0-2.14-.77-2.42-1.88l-1.28-4.95-.62.83c-3.36,4.45-8.28,7-13.5,7Z"/>
    <path class="cls-2" d="M469.6,80.25c-.88,0-1.7-.47-2.15-1.22l-10.1-16.93-.33.05c-2.14.34-4.08.49-6.12.49h-2.5v15.1c0,1.38-1.12,2.5-2.5,2.5h-7.3c-1.38,0-2.5-1.12-2.5-2.5V13.24c0-1.38,1.12-2.5,2.5-2.5h7.3c1.38,0,2.5,1.12,2.5,2.5v38.3h2.5c6.33,0,9.21-1.79,11.85-7.39l3.49-7.47c.41-.88,1.3-1.44,2.26-1.44h7.26c.86,0,1.65.43,2.11,1.16s.52,1.63.15,2.41l-2.28,4.82c-2.96,6.14-5.44,10.11-8.01,12.87l-.26.28,12.4,19.62c.49.78.52,1.73.08,2.54-.45.81-1.26,1.29-2.19,1.29h-8.15Z"/>
    <path class="cls-2" d="M511.47,81.25c-14.37,0-24.8-9.88-24.8-23.5s10.06-23.5,23.4-23.5,22.5,10.02,22.5,23.3c0,.82-.03,1.57-.09,2.23-.07.78-.71,1.37-1.5,1.37h-33.35l.14.61c1.46,6.25,6.43,9.99,13.29,9.99.84,0,1.71-.06,2.58-.17,3.12-.4,5.85-2.04,7.87-3.42.27-.18.58-.28.9-.28.41,0,.78.16,1.06.45l3.95,4.1c.5.52.75,1.22.69,1.94-.05.71-.41,1.35-.96,1.78-4.37,3.34-9.8,5.1-15.69,5.1ZM509.66,43.54c-5.8,0-10.32,3.71-11.79,9.68l-.15.62h23.96l-.13-.6c-1.32-6.16-5.65-9.7-11.89-9.7Z"/>
  </g>
  <g>
    <path class="cls-1" d="M86.48,0c-9.99,0-18.08,8.1-18.08,18.08v49.91h-5.34c-9.99,0-18.08,8.1-18.08,18.08h0c0,9.99,8.1,18.08,18.08,18.08h23.42c9.99,0,18.08-8.1,18.08-18.08V18.08c0-9.99-8.1-18.08-18.08-18.08ZM86.48,26.58c-4.69,0-8.5-3.81-8.5-8.5s3.81-8.5,8.5-8.5,8.5,3.81,8.5,8.5-3.81,8.5-8.5,8.5Z"/>
    <path class="cls-3" d="M41.51,0h-23.42C8.1,0,0,8.1,0,18.08v68c0,9.99,8.1,18.08,18.08,18.08s18.08-8.1,18.08-18.08v-49.91h5.34c9.99,0,18.08-8.1,18.08-18.08h0C59.59,8.1,51.5,0,41.51,0ZM18.08,94.58c-4.69,0-8.5-3.81-8.5-8.5s3.81-8.5,8.5-8.5,8.5,3.81,8.5,8.5-3.81,8.5-8.5,8.5Z"/>
  </g>
</svg>