<?xml version="1.0" encoding="UTF-8"?>
<svg id="_レイヤー_1" data-name="レイヤー 1" xmlns="http://www.w3.org/2000/svg" viewBox="0 0 512 512">
  <defs>
    <style>
      .cls-1 {
        fill: #31b5a2;
      }

      .cls-2 {
        fill: #1e8cd6;
      }
    </style>
  </defs>
  <path class="cls-1" d="M394.84,50.96c-37,0-66.99,29.99-66.99,66.99v209.12h-33.64c-37,0-66.99,29.99-66.99,66.99h0c0,37,29.99,66.99,66.99,66.99h100.63c37,0,66.99-29.99,66.99-66.99V117.95c0-37-29.99-66.99-66.99-66.99ZM394.84,155.62c-18.48,0-33.46-14.98-33.46-33.46s14.98-33.46,33.46-33.46,33.46,14.98,33.46,33.46-14.98,33.46-33.46,33.46Z"/>
  <path class="cls-2" d="M217.79,50.96h-100.63c-36.99,0-66.99,29.99-66.99,66.99v276.11c0,37,29.99,66.99,66.99,66.99s66.99-29.99,66.99-66.99v-209.12h33.64c36.99,0,66.99-29.99,66.99-66.99s-29.99-66.99-66.99-66.99ZM117.16,423.31c-18.48,0-33.46-14.98-33.46-33.46s14.98-33.46,33.46-33.46,33.46,14.98,33.46,33.46-14.98,33.46-33.46,33.46Z"/>
</svg>