<?xml version="1.0" encoding="UTF-8"?>
<svg id="_レイヤー_1" data-name="レイヤー 1" xmlns="http://www.w3.org/2000/svg" viewBox="0 0 512 512">
  <defs>
    <style>
      .cls-1 {
        fill: #31b5a2;
      }

      .cls-2 {
        fill: #1e8cd6;
      }
    </style>
  </defs>
  <path class="cls-1" d="M422.19,2.89c-48.54,0-87.89,39.35-87.89,87.89v242.56h-25.94c-48.54,0-87.89,39.35-87.89,87.89h0c0,48.54,39.35,87.89,87.89,87.89h113.83c48.54,0,87.89-39.35,87.89-87.89V90.78c0-48.54-39.35-87.89-87.89-87.89ZM422.19,132.09c-22.81,0-41.31-18.49-41.31-41.31s18.49-41.31,41.31-41.31,41.31,18.49,41.31,41.31-18.49,41.31-41.31,41.31Z"/>
  <path class="cls-2" d="M203.63,2.89h-113.83C41.27,2.89,1.92,42.24,1.92,90.78v330.44c0,48.54,39.35,87.89,87.89,87.89s87.89-39.35,87.89-87.89v-242.56h25.94c48.54,0,87.89-39.35,87.89-87.89h0c0-48.54-39.35-87.89-87.89-87.89ZM89.81,462.53c-22.81,0-41.31-18.49-41.31-41.31s18.49-41.31,41.31-41.31,41.31,18.49,41.31,41.31-18.49,41.31-41.31,41.31Z"/>
</svg>