<svg width="366" height="226" viewBox="0 0 366 226" fill="none" xmlns="http://www.w3.org/2000/svg">
<rect width="366" height="226" fill="#EEF6FC"/>
<rect x="63.75" y="97.75" width="259.5" height="96.5" rx="4.25" stroke="#31B5A2" stroke-width="0.5"/>
<path d="M68 98.25H100.75V121.75H64.25V102C64.25 99.9289 65.9289 98.25 68 98.25Z" fill="white" stroke="#31B5A2" stroke-width="0.5"/>
<rect x="101.25" y="98.25" width="36.5" height="23.5" fill="white" stroke="#31B5A2" stroke-width="0.5"/>
<rect x="138.25" y="98.25" width="36.5" height="23.5" fill="white" stroke="#31B5A2" stroke-width="0.5"/>
<rect x="175.25" y="98.25" width="36.5" height="23.5" fill="white" stroke="#31B5A2" stroke-width="0.5"/>
<rect x="212.25" y="98.25" width="36.5" height="23.5" fill="white" stroke="#31B5A2" stroke-width="0.5"/>
<rect x="249.25" y="98.25" width="36.5" height="23.5" fill="white" stroke="#31B5A2" stroke-width="0.5"/>
<path d="M319 98.25C321.071 98.25 322.75 99.9289 322.75 102V121.75H286.25V98.25H319Z" fill="white" stroke="#31B5A2" stroke-width="0.5"/>
<rect x="101.25" y="122.25" width="36.5" height="23.5" fill="#31B5A2" stroke="#31B5A2" stroke-width="0.5"/>
<rect x="138.25" y="122.25" width="36.5" height="23.5" fill="white" stroke="#31B5A2" stroke-width="0.5"/>
<rect x="175.25" y="122.25" width="36.5" height="23.5" fill="white" stroke="#31B5A2" stroke-width="0.5"/>
<rect x="212.25" y="122.25" width="36.5" height="23.5" fill="white" stroke="#31B5A2" stroke-width="0.5"/>
<rect x="249.25" y="122.25" width="36.5" height="23.5" fill="white" stroke="#31B5A2" stroke-width="0.5"/>
<rect x="286.25" y="122.25" width="36.5" height="23.5" fill="white" stroke="#31B5A2" stroke-width="0.5"/>
<rect x="64.25" y="146.25" width="36.5" height="23.5" fill="white" stroke="#31B5A2" stroke-width="0.5"/>
<rect x="101.25" y="146.25" width="36.5" height="23.5" fill="white" stroke="#31B5A2" stroke-width="0.5"/>
<rect x="138.25" y="146.25" width="36.5" height="23.5" fill="white" stroke="#31B5A2" stroke-width="0.5"/>
<rect x="175.25" y="146.25" width="36.5" height="23.5" fill="#31B5A2" stroke="#31B5A2" stroke-width="0.5"/>
<rect x="212.25" y="146.25" width="36.5" height="23.5" fill="white" stroke="#31B5A2" stroke-width="0.5"/>
<rect x="249.25" y="146.25" width="36.5" height="23.5" fill="white" stroke="#31B5A2" stroke-width="0.5"/>
<rect x="286.25" y="146.25" width="36.5" height="23.5" fill="white" stroke="#31B5A2" stroke-width="0.5"/>
<path d="M100.75 170.25V193.75H68C65.9289 193.75 64.25 192.071 64.25 190V170.25H100.75Z" fill="white" stroke="#31B5A2" stroke-width="0.5"/>
<rect x="101.25" y="170.25" width="36.5" height="23.5" fill="white" stroke="#31B5A2" stroke-width="0.5"/>
<rect x="138.25" y="170.25" width="36.5" height="23.5" fill="white" stroke="#31B5A2" stroke-width="0.5"/>
<rect x="175.25" y="170.25" width="36.5" height="23.5" fill="white" stroke="#31B5A2" stroke-width="0.5"/>
<rect x="212.25" y="170.25" width="36.5" height="23.5" fill="#31B5A2" stroke="#31B5A2" stroke-width="0.5"/>
<rect x="249.25" y="170.25" width="36.5" height="23.5" fill="white" stroke="#31B5A2" stroke-width="0.5"/>
<path d="M322.75 170.25V190C322.75 192.071 321.071 193.75 319 193.75H286.25V170.25H322.75Z" fill="white" stroke="#31B5A2" stroke-width="0.5"/>
<rect x="64" y="122" width="37" height="24" fill="white"/>
<rect x="64.25" y="122.25" width="36.5" height="23.5" stroke="#1E8CD6" stroke-opacity="0.5" stroke-width="0.5"/>
<circle cx="119.5" cy="134" r="6.5" stroke="white" stroke-width="3"/>
<circle cx="193.5" cy="158" r="6.5" stroke="white" stroke-width="3"/>
<circle cx="230.5" cy="182" r="6.5" stroke="white" stroke-width="3"/>
<path d="M79.871 81.266H85.503V82.278H79.871V81.266ZM79.871 83.906H85.547V84.896H79.871V83.906ZM79.794 86.546H85.481V87.547H79.794V86.546ZM79.178 81.266H80.245V84.775C80.245 85.2517 80.2193 85.765 80.168 86.315C80.1167 86.8577 80.0177 87.4077 79.871 87.965C79.7243 88.5223 79.508 89.0577 79.222 89.571C78.936 90.077 78.5547 90.5317 78.078 90.935C78.0267 90.8617 77.9533 90.7737 77.858 90.671C77.7627 90.5757 77.6637 90.4803 77.561 90.385C77.4583 90.297 77.3667 90.2273 77.286 90.176C77.7187 89.802 78.0597 89.3913 78.309 88.944C78.5657 88.4967 78.7563 88.0347 78.881 87.558C79.0057 87.0813 79.0863 86.6047 79.123 86.128C79.1597 85.6513 79.178 85.1967 79.178 84.764V81.266ZM85.03 81.266H86.13V89.505C86.13 89.8423 86.0787 90.099 85.976 90.275C85.8807 90.4583 85.7193 90.594 85.492 90.682C85.2573 90.7773 84.9457 90.836 84.557 90.858C84.1757 90.88 83.6917 90.891 83.105 90.891C83.0903 90.781 83.0573 90.66 83.006 90.528C82.9547 90.396 82.8997 90.264 82.841 90.132C82.7897 90 82.7347 89.8863 82.676 89.791C82.962 89.8057 83.2407 89.8167 83.512 89.824C83.7907 89.824 84.0327 89.824 84.238 89.824C84.4507 89.8167 84.601 89.813 84.689 89.813C84.8137 89.813 84.9017 89.791 84.953 89.747C85.0043 89.6957 85.03 89.6113 85.03 89.494V81.266Z" fill="#A5AFB6"/>
<path d="M37.2396 108H36.1596V103.26C36.1596 103.093 36.1596 102.94 36.1596 102.8C36.1663 102.653 36.1696 102.513 36.1696 102.38C36.1763 102.24 36.1829 102.107 36.1896 101.98C36.1096 102.067 36.0263 102.153 35.9396 102.24C35.8529 102.32 35.7563 102.41 35.6496 102.51L34.9296 103.14L34.3596 102.46L36.3096 100.86H37.2396V108ZM43.8102 104.42C43.8102 105 43.7702 105.517 43.6902 105.97C43.6102 106.423 43.4769 106.81 43.2902 107.13C43.1102 107.443 42.8736 107.683 42.5802 107.85C42.2936 108.017 41.9402 108.1 41.5202 108.1C41.0069 108.1 40.5802 107.953 40.2402 107.66C39.9069 107.367 39.6569 106.947 39.4902 106.4C39.3302 105.847 39.2502 105.187 39.2502 104.42C39.2502 103.647 39.3236 102.987 39.4702 102.44C39.6236 101.893 39.8669 101.477 40.2002 101.19C40.5336 100.897 40.9769 100.75 41.5302 100.75C42.0502 100.75 42.4769 100.897 42.8102 101.19C43.1502 101.477 43.4002 101.893 43.5602 102.44C43.7269 102.987 43.8102 103.647 43.8102 104.42ZM40.3402 104.42C40.3402 105.04 40.3769 105.557 40.4502 105.97C40.5302 106.383 40.6569 106.693 40.8302 106.9C41.0102 107.107 41.2436 107.21 41.5302 107.21C41.8236 107.21 42.0536 107.11 42.2202 106.91C42.3936 106.703 42.5202 106.393 42.6002 105.98C42.6802 105.56 42.7202 105.04 42.7202 104.42C42.7202 103.8 42.6802 103.287 42.6002 102.88C42.5202 102.467 42.3936 102.157 42.2202 101.95C42.0536 101.743 41.8236 101.64 41.5302 101.64C41.2436 101.64 41.0102 101.743 40.8302 101.95C40.6569 102.157 40.5302 102.467 40.4502 102.88C40.3769 103.287 40.3402 103.8 40.3402 104.42ZM44.6409 107.41C44.6409 107.15 44.7042 106.967 44.8309 106.86C44.9642 106.753 45.1275 106.7 45.3209 106.7C45.5075 106.7 45.6675 106.753 45.8009 106.86C45.9409 106.967 46.0109 107.15 46.0109 107.41C46.0109 107.67 45.9409 107.857 45.8009 107.97C45.6675 108.083 45.5075 108.14 45.3209 108.14C45.1275 108.14 44.9642 108.083 44.8309 107.97C44.7042 107.857 44.6409 107.67 44.6409 107.41ZM44.6409 103.21C44.6409 102.937 44.7042 102.747 44.8309 102.64C44.9642 102.533 45.1275 102.48 45.3209 102.48C45.5075 102.48 45.6675 102.533 45.8009 102.64C45.9409 102.747 46.0109 102.937 46.0109 103.21C46.0109 103.463 45.9409 103.647 45.8009 103.76C45.6675 103.873 45.5075 103.93 45.3209 103.93C45.1275 103.93 44.9642 103.873 44.8309 103.76C44.7042 103.647 44.6409 103.463 44.6409 103.21ZM51.3887 104.42C51.3887 105 51.3487 105.517 51.2687 105.97C51.1887 106.423 51.0554 106.81 50.8687 107.13C50.6887 107.443 50.4521 107.683 50.1587 107.85C49.8721 108.017 49.5187 108.1 49.0987 108.1C48.5854 108.1 48.1587 107.953 47.8187 107.66C47.4854 107.367 47.2354 106.947 47.0687 106.4C46.9087 105.847 46.8287 105.187 46.8287 104.42C46.8287 103.647 46.9021 102.987 47.0487 102.44C47.2021 101.893 47.4454 101.477 47.7787 101.19C48.1121 100.897 48.5554 100.75 49.1087 100.75C49.6287 100.75 50.0554 100.897 50.3887 101.19C50.7287 101.477 50.9787 101.893 51.1387 102.44C51.3054 102.987 51.3887 103.647 51.3887 104.42ZM47.9187 104.42C47.9187 105.04 47.9554 105.557 48.0287 105.97C48.1087 106.383 48.2354 106.693 48.4087 106.9C48.5887 107.107 48.8221 107.21 49.1087 107.21C49.4021 107.21 49.6321 107.11 49.7987 106.91C49.9721 106.703 50.0987 106.393 50.1787 105.98C50.2587 105.56 50.2987 105.04 50.2987 104.42C50.2987 103.8 50.2587 103.287 50.1787 102.88C50.0987 102.467 49.9721 102.157 49.7987 101.95C49.6321 101.743 49.4021 101.64 49.1087 101.64C48.8221 101.64 48.5887 101.743 48.4087 101.95C48.2354 102.157 48.1087 102.467 48.0287 102.88C47.9554 103.287 47.9187 103.8 47.9187 104.42ZM56.5794 104.42C56.5794 105 56.5394 105.517 56.4594 105.97C56.3794 106.423 56.246 106.81 56.0594 107.13C55.8794 107.443 55.6427 107.683 55.3494 107.85C55.0627 108.017 54.7094 108.1 54.2894 108.1C53.776 108.1 53.3494 107.953 53.0094 107.66C52.676 107.367 52.426 106.947 52.2594 106.4C52.0994 105.847 52.0194 105.187 52.0194 104.42C52.0194 103.647 52.0927 102.987 52.2394 102.44C52.3927 101.893 52.636 101.477 52.9694 101.19C53.3027 100.897 53.746 100.75 54.2994 100.75C54.8194 100.75 55.246 100.897 55.5794 101.19C55.9194 101.477 56.1694 101.893 56.3294 102.44C56.496 102.987 56.5794 103.647 56.5794 104.42ZM53.1094 104.42C53.1094 105.04 53.146 105.557 53.2194 105.97C53.2994 106.383 53.426 106.693 53.5994 106.9C53.7794 107.107 54.0127 107.21 54.2994 107.21C54.5927 107.21 54.8227 107.11 54.9894 106.91C55.1627 106.703 55.2894 106.393 55.3694 105.98C55.4494 105.56 55.4894 105.04 55.4894 104.42C55.4894 103.8 55.4494 103.287 55.3694 102.88C55.2894 102.467 55.1627 102.157 54.9894 101.95C54.8227 101.743 54.5927 101.64 54.2994 101.64C54.0127 101.64 53.7794 101.743 53.5994 101.95C53.426 102.157 53.2994 102.467 53.2194 102.88C53.146 103.287 53.1094 103.8 53.1094 104.42Z" fill="#A5AFB6"/>
<path d="M37.2396 150H36.1596V145.26C36.1596 145.093 36.1596 144.94 36.1596 144.8C36.1663 144.653 36.1696 144.513 36.1696 144.38C36.1763 144.24 36.1829 144.107 36.1896 143.98C36.1096 144.067 36.0263 144.153 35.9396 144.24C35.8529 144.32 35.7563 144.41 35.6496 144.51L34.9296 145.14L34.3596 144.46L36.3096 142.86H37.2396V150ZM41.5402 145.57C41.9736 145.57 42.3536 145.653 42.6802 145.82C43.0136 145.987 43.2736 146.227 43.4602 146.54C43.6469 146.853 43.7402 147.237 43.7402 147.69C43.7402 148.19 43.6402 148.62 43.4402 148.98C43.2402 149.34 42.9469 149.617 42.5602 149.81C42.1802 150.003 41.7136 150.1 41.1602 150.1C40.8069 150.1 40.4769 150.067 40.1702 150C39.8636 149.933 39.6002 149.837 39.3802 149.71V148.74C39.6069 148.88 39.8836 148.993 40.2102 149.08C40.5369 149.167 40.8436 149.21 41.1302 149.21C41.4369 149.21 41.7002 149.16 41.9202 149.06C42.1469 148.953 42.3202 148.797 42.4402 148.59C42.5669 148.377 42.6302 148.11 42.6302 147.79C42.6302 147.357 42.5069 147.027 42.2602 146.8C42.0136 146.567 41.6269 146.45 41.1002 146.45C40.9202 146.45 40.7269 146.467 40.5202 146.5C40.3136 146.533 40.1436 146.567 40.0102 146.6L39.5302 146.31L39.7802 142.86H43.2702V143.8H40.7202L40.5802 145.67C40.6869 145.65 40.8169 145.63 40.9702 145.61C41.1302 145.583 41.3202 145.57 41.5402 145.57ZM44.6409 149.41C44.6409 149.15 44.7042 148.967 44.8309 148.86C44.9642 148.753 45.1275 148.7 45.3209 148.7C45.5075 148.7 45.6675 148.753 45.8009 148.86C45.9409 148.967 46.0109 149.15 46.0109 149.41C46.0109 149.67 45.9409 149.857 45.8009 149.97C45.6675 150.083 45.5075 150.14 45.3209 150.14C45.1275 150.14 44.9642 150.083 44.8309 149.97C44.7042 149.857 44.6409 149.67 44.6409 149.41ZM44.6409 145.21C44.6409 144.937 44.7042 144.747 44.8309 144.64C44.9642 144.533 45.1275 144.48 45.3209 144.48C45.5075 144.48 45.6675 144.533 45.8009 144.64C45.9409 144.747 46.0109 144.937 46.0109 145.21C46.0109 145.463 45.9409 145.647 45.8009 145.76C45.6675 145.873 45.5075 145.93 45.3209 145.93C45.1275 145.93 44.9642 145.873 44.8309 145.76C44.7042 145.647 44.6409 145.463 44.6409 145.21ZM51.3887 146.42C51.3887 147 51.3487 147.517 51.2687 147.97C51.1887 148.423 51.0554 148.81 50.8687 149.13C50.6887 149.443 50.4521 149.683 50.1587 149.85C49.8721 150.017 49.5187 150.1 49.0987 150.1C48.5854 150.1 48.1587 149.953 47.8187 149.66C47.4854 149.367 47.2354 148.947 47.0687 148.4C46.9087 147.847 46.8287 147.187 46.8287 146.42C46.8287 145.647 46.9021 144.987 47.0487 144.44C47.2021 143.893 47.4454 143.477 47.7787 143.19C48.1121 142.897 48.5554 142.75 49.1087 142.75C49.6287 142.75 50.0554 142.897 50.3887 143.19C50.7287 143.477 50.9787 143.893 51.1387 144.44C51.3054 144.987 51.3887 145.647 51.3887 146.42ZM47.9187 146.42C47.9187 147.04 47.9554 147.557 48.0287 147.97C48.1087 148.383 48.2354 148.693 48.4087 148.9C48.5887 149.107 48.8221 149.21 49.1087 149.21C49.4021 149.21 49.6321 149.11 49.7987 148.91C49.9721 148.703 50.0987 148.393 50.1787 147.98C50.2587 147.56 50.2987 147.04 50.2987 146.42C50.2987 145.8 50.2587 145.287 50.1787 144.88C50.0987 144.467 49.9721 144.157 49.7987 143.95C49.6321 143.743 49.4021 143.64 49.1087 143.64C48.8221 143.64 48.5887 143.743 48.4087 143.95C48.2354 144.157 48.1087 144.467 48.0287 144.88C47.9554 145.287 47.9187 145.8 47.9187 146.42ZM56.5794 146.42C56.5794 147 56.5394 147.517 56.4594 147.97C56.3794 148.423 56.246 148.81 56.0594 149.13C55.8794 149.443 55.6427 149.683 55.3494 149.85C55.0627 150.017 54.7094 150.1 54.2894 150.1C53.776 150.1 53.3494 149.953 53.0094 149.66C52.676 149.367 52.426 148.947 52.2594 148.4C52.0994 147.847 52.0194 147.187 52.0194 146.42C52.0194 145.647 52.0927 144.987 52.2394 144.44C52.3927 143.893 52.636 143.477 52.9694 143.19C53.3027 142.897 53.746 142.75 54.2994 142.75C54.8194 142.75 55.246 142.897 55.5794 143.19C55.9194 143.477 56.1694 143.893 56.3294 144.44C56.496 144.987 56.5794 145.647 56.5794 146.42ZM53.1094 146.42C53.1094 147.04 53.146 147.557 53.2194 147.97C53.2994 148.383 53.426 148.693 53.5994 148.9C53.7794 149.107 54.0127 149.21 54.2994 149.21C54.5927 149.21 54.8227 149.11 54.9894 148.91C55.1627 148.703 55.2894 148.393 55.3694 147.98C55.4494 147.56 55.4894 147.04 55.4894 146.42C55.4894 145.8 55.4494 145.287 55.3694 144.88C55.2894 144.467 55.1627 144.157 54.9894 143.95C54.8227 143.743 54.5927 143.64 54.2994 143.64C54.0127 143.64 53.7794 143.743 53.5994 143.95C53.426 144.157 53.2994 144.467 53.2194 144.88C53.146 145.287 53.1094 145.8 53.1094 146.42Z" fill="#A5AFB6"/>
<path d="M37.2396 192H36.1596V187.26C36.1596 187.093 36.1596 186.94 36.1596 186.8C36.1663 186.653 36.1696 186.513 36.1696 186.38C36.1763 186.24 36.1829 186.107 36.1896 185.98C36.1096 186.067 36.0263 186.153 35.9396 186.24C35.8529 186.32 35.7563 186.41 35.6496 186.51L34.9296 187.14L34.3596 186.46L36.3096 184.86H37.2396V192ZM43.8002 187.91C43.8002 188.323 43.7702 188.733 43.7102 189.14C43.6569 189.547 43.5602 189.93 43.4202 190.29C43.2802 190.643 43.0902 190.957 42.8502 191.23C42.6102 191.503 42.3036 191.717 41.9302 191.87C41.5636 192.023 41.1202 192.1 40.6002 192.1C40.4736 192.1 40.3236 192.093 40.1502 192.08C39.9769 192.067 39.8369 192.043 39.7302 192.01V191.12C39.8436 191.16 39.9702 191.19 40.1102 191.21C40.2569 191.23 40.4002 191.24 40.5402 191.24C40.9669 191.24 41.3202 191.173 41.6002 191.04C41.8802 190.9 42.1036 190.707 42.2702 190.46C42.4369 190.213 42.5536 189.927 42.6202 189.6C42.6936 189.273 42.7369 188.927 42.7502 188.56H42.7002C42.6069 188.713 42.4936 188.853 42.3602 188.98C42.2269 189.107 42.0602 189.207 41.8602 189.28C41.6669 189.353 41.4302 189.39 41.1502 189.39C40.7702 189.39 40.4369 189.303 40.1502 189.13C39.8636 188.957 39.6436 188.71 39.4902 188.39C39.3369 188.063 39.2602 187.667 39.2602 187.2C39.2602 186.693 39.3469 186.26 39.5202 185.9C39.7002 185.533 39.9536 185.253 40.2802 185.06C40.6136 184.86 41.0036 184.76 41.4502 184.76C41.7836 184.76 42.0902 184.827 42.3702 184.96C42.6569 185.087 42.9069 185.28 43.1202 185.54C43.3402 185.8 43.5069 186.127 43.6202 186.52C43.7402 186.913 43.8002 187.377 43.8002 187.91ZM41.4702 185.64C41.1302 185.64 40.8536 185.767 40.6402 186.02C40.4269 186.273 40.3202 186.66 40.3202 187.18C40.3202 187.607 40.4102 187.943 40.5902 188.19C40.7769 188.43 41.0569 188.55 41.4302 188.55C41.6902 188.55 41.9169 188.49 42.1102 188.37C42.3036 188.25 42.4502 188.1 42.5502 187.92C42.6569 187.733 42.7102 187.54 42.7102 187.34C42.7102 187.133 42.6836 186.93 42.6302 186.73C42.5769 186.53 42.5002 186.347 42.4002 186.18C42.3002 186.013 42.1702 185.883 42.0102 185.79C41.8569 185.69 41.6769 185.64 41.4702 185.64ZM44.6409 191.41C44.6409 191.15 44.7042 190.967 44.8309 190.86C44.9642 190.753 45.1275 190.7 45.3209 190.7C45.5075 190.7 45.6675 190.753 45.8009 190.86C45.9409 190.967 46.0109 191.15 46.0109 191.41C46.0109 191.67 45.9409 191.857 45.8009 191.97C45.6675 192.083 45.5075 192.14 45.3209 192.14C45.1275 192.14 44.9642 192.083 44.8309 191.97C44.7042 191.857 44.6409 191.67 44.6409 191.41ZM44.6409 187.21C44.6409 186.937 44.7042 186.747 44.8309 186.64C44.9642 186.533 45.1275 186.48 45.3209 186.48C45.5075 186.48 45.6675 186.533 45.8009 186.64C45.9409 186.747 46.0109 186.937 46.0109 187.21C46.0109 187.463 45.9409 187.647 45.8009 187.76C45.6675 187.873 45.5075 187.93 45.3209 187.93C45.1275 187.93 44.9642 187.873 44.8309 187.76C44.7042 187.647 44.6409 187.463 44.6409 187.21ZM51.3887 188.42C51.3887 189 51.3487 189.517 51.2687 189.97C51.1887 190.423 51.0554 190.81 50.8687 191.13C50.6887 191.443 50.4521 191.683 50.1587 191.85C49.8721 192.017 49.5187 192.1 49.0987 192.1C48.5854 192.1 48.1587 191.953 47.8187 191.66C47.4854 191.367 47.2354 190.947 47.0687 190.4C46.9087 189.847 46.8287 189.187 46.8287 188.42C46.8287 187.647 46.9021 186.987 47.0487 186.44C47.2021 185.893 47.4454 185.477 47.7787 185.19C48.1121 184.897 48.5554 184.75 49.1087 184.75C49.6287 184.75 50.0554 184.897 50.3887 185.19C50.7287 185.477 50.9787 185.893 51.1387 186.44C51.3054 186.987 51.3887 187.647 51.3887 188.42ZM47.9187 188.42C47.9187 189.04 47.9554 189.557 48.0287 189.97C48.1087 190.383 48.2354 190.693 48.4087 190.9C48.5887 191.107 48.8221 191.21 49.1087 191.21C49.4021 191.21 49.6321 191.11 49.7987 190.91C49.9721 190.703 50.0987 190.393 50.1787 189.98C50.2587 189.56 50.2987 189.04 50.2987 188.42C50.2987 187.8 50.2587 187.287 50.1787 186.88C50.0987 186.467 49.9721 186.157 49.7987 185.95C49.6321 185.743 49.4021 185.64 49.1087 185.64C48.8221 185.64 48.5887 185.743 48.4087 185.95C48.2354 186.157 48.1087 186.467 48.0287 186.88C47.9554 187.287 47.9187 187.8 47.9187 188.42ZM56.5794 188.42C56.5794 189 56.5394 189.517 56.4594 189.97C56.3794 190.423 56.246 190.81 56.0594 191.13C55.8794 191.443 55.6427 191.683 55.3494 191.85C55.0627 192.017 54.7094 192.1 54.2894 192.1C53.776 192.1 53.3494 191.953 53.0094 191.66C52.676 191.367 52.426 190.947 52.2594 190.4C52.0994 189.847 52.0194 189.187 52.0194 188.42C52.0194 187.647 52.0927 186.987 52.2394 186.44C52.3927 185.893 52.636 185.477 52.9694 185.19C53.3027 184.897 53.746 184.75 54.2994 184.75C54.8194 184.75 55.246 184.897 55.5794 185.19C55.9194 185.477 56.1694 185.893 56.3294 186.44C56.496 186.987 56.5794 187.647 56.5794 188.42ZM53.1094 188.42C53.1094 189.04 53.146 189.557 53.2194 189.97C53.2994 190.383 53.426 190.693 53.5994 190.9C53.7794 191.107 54.0127 191.21 54.2994 191.21C54.5927 191.21 54.8227 191.11 54.9894 190.91C55.1627 190.703 55.2894 190.393 55.3694 189.98C55.4494 189.56 55.4894 189.04 55.4894 188.42C55.4894 187.8 55.4494 187.287 55.3694 186.88C55.2894 186.467 55.1627 186.157 54.9894 185.95C54.8227 185.743 54.5927 185.64 54.2994 185.64C54.0127 185.64 53.7794 185.743 53.5994 185.95C53.426 186.157 53.2994 186.467 53.2194 186.88C53.146 187.287 53.1094 187.8 53.1094 188.42Z" fill="#A5AFB6"/>
<path d="M114.101 82.927L115.135 83.158C115.076 83.598 114.988 84.0343 114.871 84.467C114.761 84.8923 114.607 85.2883 114.409 85.655C114.211 86.0217 113.954 86.3333 113.639 86.59L112.704 85.996C112.99 85.7687 113.225 85.4973 113.408 85.182C113.599 84.8593 113.749 84.5073 113.859 84.126C113.969 83.7373 114.05 83.3377 114.101 82.927ZM120.943 82.905L122.076 83.345C121.893 83.697 121.698 84.06 121.493 84.434C121.288 84.8007 121.082 85.1563 120.877 85.501C120.672 85.8383 120.474 86.1353 120.283 86.392L119.392 85.996C119.568 85.7247 119.751 85.413 119.942 85.061C120.14 84.7017 120.323 84.335 120.492 83.961C120.668 83.587 120.818 83.235 120.943 82.905ZM117.445 80.87H118.006V84.379C118.006 84.621 118.035 84.896 118.094 85.204C118.153 85.512 118.248 85.8383 118.38 86.183C118.512 86.5203 118.688 86.8687 118.908 87.228C119.135 87.58 119.418 87.9247 119.755 88.262C120.092 88.592 120.492 88.9037 120.954 89.197C121.416 89.483 121.948 89.7397 122.549 89.967C122.476 90.0403 122.391 90.132 122.296 90.242C122.208 90.3593 122.12 90.4767 122.032 90.594C121.951 90.7187 121.885 90.8323 121.834 90.935C121.247 90.7003 120.727 90.4253 120.272 90.11C119.817 89.7947 119.421 89.4647 119.084 89.12C118.754 88.768 118.475 88.4197 118.248 88.075C118.028 87.723 117.852 87.393 117.72 87.085C117.588 86.777 117.496 86.5167 117.445 86.304C117.394 86.524 117.306 86.788 117.181 87.096C117.064 87.3967 116.895 87.7193 116.675 88.064C116.462 88.4087 116.195 88.7533 115.872 89.098C115.557 89.4427 115.175 89.7727 114.728 90.088C114.288 90.4033 113.778 90.6857 113.199 90.935C113.155 90.8543 113.089 90.759 113.001 90.649C112.92 90.539 112.832 90.429 112.737 90.319C112.642 90.209 112.554 90.121 112.473 90.055C113.184 89.7837 113.793 89.461 114.299 89.087C114.805 88.713 115.223 88.3133 115.553 87.888C115.89 87.4627 116.154 87.0373 116.345 86.612C116.543 86.1867 116.682 85.7833 116.763 85.402C116.844 85.0133 116.884 84.676 116.884 84.39V80.87H117.445Z" fill="#A5AFB6"/>
<path d="M151.594 83.477H154.784V84.533H151.594V83.477ZM155.983 80.727H157.083V89.527C157.083 89.8643 157.039 90.121 156.951 90.297C156.863 90.473 156.716 90.6087 156.511 90.704C156.298 90.7993 156.02 90.8617 155.675 90.891C155.338 90.9203 154.912 90.935 154.399 90.935C154.384 90.825 154.355 90.7003 154.311 90.561C154.267 90.4217 154.216 90.2823 154.157 90.143C154.106 90.0037 154.051 89.8863 153.992 89.791C154.373 89.7983 154.722 89.8057 155.037 89.813C155.36 89.813 155.576 89.8093 155.686 89.802C155.789 89.802 155.862 89.78 155.906 89.736C155.957 89.692 155.983 89.6223 155.983 89.527V80.727ZM154.432 83.477H154.652L154.839 83.444L155.543 83.708C155.367 84.6833 155.11 85.5707 154.773 86.37C154.443 87.1693 154.054 87.866 153.607 88.46C153.16 89.054 152.668 89.538 152.133 89.912C152.074 89.8313 151.994 89.736 151.891 89.626C151.788 89.516 151.682 89.4133 151.572 89.318C151.462 89.2153 151.363 89.1383 151.275 89.087C151.796 88.7497 152.265 88.3207 152.683 87.8C153.108 87.2793 153.468 86.6743 153.761 85.985C154.062 85.2957 154.285 84.5403 154.432 83.719V83.477ZM157.017 82.443C157.2 83.1763 157.431 83.8877 157.71 84.577C157.996 85.259 158.333 85.8933 158.722 86.48C159.111 87.0667 159.554 87.5873 160.053 88.042C160.559 88.4967 161.12 88.8633 161.736 89.142C161.648 89.2153 161.553 89.307 161.45 89.417C161.347 89.527 161.248 89.6443 161.153 89.769C161.065 89.8863 160.988 89.9963 160.922 90.099C160.086 89.659 159.364 89.065 158.755 88.317C158.146 87.569 157.633 86.711 157.215 85.743C156.804 84.775 156.463 83.7373 156.192 82.63L157.017 82.443ZM160.383 82.476L161.351 83.158C161.05 83.488 160.72 83.829 160.361 84.181C160.002 84.533 159.642 84.8703 159.283 85.193C158.924 85.5157 158.586 85.7943 158.271 86.029L157.523 85.446C157.838 85.1967 158.168 84.9033 158.513 84.566C158.865 84.2213 159.206 83.8693 159.536 83.51C159.866 83.1433 160.148 82.7987 160.383 82.476Z" fill="#A5AFB6"/>
<path d="M187.704 83.367H197.307V84.39H187.704V83.367ZM191.939 80.716H193.05V90.924H191.939V80.716ZM191.708 83.906L192.621 84.225C192.372 84.797 192.078 85.3543 191.741 85.897C191.411 86.4397 191.048 86.9567 190.652 87.448C190.256 87.932 189.834 88.3757 189.387 88.779C188.947 89.1823 188.492 89.527 188.023 89.813C187.964 89.725 187.887 89.626 187.792 89.516C187.704 89.406 187.609 89.2997 187.506 89.197C187.411 89.087 187.323 88.9953 187.242 88.922C187.697 88.68 188.14 88.3793 188.573 88.02C189.013 87.6533 189.431 87.2463 189.827 86.799C190.223 86.3517 190.579 85.8823 190.894 85.391C191.217 84.8997 191.488 84.4047 191.708 83.906ZM193.248 83.939C193.483 84.423 193.761 84.907 194.084 85.391C194.414 85.8677 194.777 86.326 195.173 86.766C195.569 87.206 195.983 87.6057 196.416 87.965C196.856 88.3243 197.296 88.6287 197.736 88.878C197.655 88.944 197.564 89.032 197.461 89.142C197.358 89.2447 197.263 89.3547 197.175 89.472C197.087 89.582 197.014 89.6847 196.955 89.78C196.5 89.4867 196.053 89.142 195.613 88.746C195.18 88.3427 194.766 87.899 194.37 87.415C193.974 86.931 193.607 86.4213 193.27 85.886C192.933 85.3507 192.632 84.808 192.368 84.258L193.248 83.939Z" fill="#A5AFB6"/>
<path d="M230.456 81.706C230.155 82.1387 229.77 82.586 229.301 83.048C228.839 83.5027 228.322 83.939 227.75 84.357C227.185 84.775 226.595 85.1453 225.979 85.468C225.942 85.3873 225.887 85.2957 225.814 85.193C225.741 85.0903 225.66 84.9913 225.572 84.896C225.491 84.7933 225.414 84.7053 225.341 84.632C225.972 84.3167 226.58 83.939 227.167 83.499C227.754 83.059 228.282 82.5933 228.751 82.102C229.22 81.6107 229.594 81.1413 229.873 80.694H230.94C231.233 81.0973 231.563 81.4897 231.93 81.871C232.304 82.245 232.696 82.597 233.107 82.927C233.525 83.257 233.954 83.5577 234.394 83.829C234.834 84.093 235.27 84.3167 235.703 84.5C235.578 84.6247 235.454 84.7713 235.329 84.94C235.212 85.1087 235.109 85.27 235.021 85.424C234.596 85.204 234.167 84.951 233.734 84.665C233.301 84.379 232.88 84.071 232.469 83.741C232.066 83.411 231.692 83.0737 231.347 82.729C231.002 82.3843 230.705 82.0433 230.456 81.706ZM227.728 84.038H233.25V84.962H227.728V84.038ZM226.342 86.271H234.625V87.173H226.342V86.271ZM225.814 89.681H235.197V90.594H225.814V89.681ZM229.895 84.401H230.995V90.143H229.895V84.401ZM227.156 87.679L228.003 87.338C228.15 87.5287 228.293 87.7377 228.432 87.965C228.571 88.1923 228.696 88.4197 228.806 88.647C228.916 88.867 228.993 89.0687 229.037 89.252L228.146 89.648C228.102 89.4647 228.029 89.2593 227.926 89.032C227.823 88.8047 227.706 88.5737 227.574 88.339C227.442 88.097 227.303 87.877 227.156 87.679ZM232.843 87.327L233.833 87.701C233.62 88.0457 233.393 88.394 233.151 88.746C232.916 89.098 232.7 89.3987 232.502 89.648L231.71 89.307C231.842 89.131 231.978 88.9293 232.117 88.702C232.256 88.4673 232.388 88.229 232.513 87.987C232.645 87.745 232.755 87.525 232.843 87.327Z" fill="#A5AFB6"/>
<path d="M263.254 84.203H271.757V85.226H263.254V84.203ZM262.539 89.428H272.483V90.44H262.539V89.428ZM266.928 80.738H268.039V90.099H266.928V80.738Z" fill="#A5AFB6"/>
<path d="M300.837 81.42H308.251V90.759H307.129V82.476H301.904V90.803H300.837V81.42ZM301.552 85.182H307.602V86.216H301.552V85.182ZM301.541 89.032H307.613V90.077H301.541V89.032Z" fill="#A5AFB6"/>
<g filter="url(#filter0_d_61_476)">
<circle cx="123" cy="44" r="20" fill="white"/>
<path d="M118.465 46.2019C118.183 45.92 118.042 45.5748 118.042 45.1665C118.042 44.7582 118.183 44.413 118.465 44.1311C118.747 43.8491 119.092 43.7082 119.5 43.7082C119.908 43.7082 120.253 43.8491 120.535 44.1311C120.817 44.413 120.958 44.7582 120.958 45.1665C120.958 45.5748 120.817 45.92 120.535 46.2019C120.253 46.4839 119.908 46.6248 119.5 46.6248C119.092 46.6248 118.747 46.4839 118.465 46.2019ZM125.465 46.2019C125.183 45.92 125.042 45.5748 125.042 45.1665C125.042 44.7582 125.183 44.413 125.465 44.1311C125.747 43.8491 126.092 43.7082 126.5 43.7082C126.908 43.7082 127.253 43.8491 127.535 44.1311C127.817 44.413 127.958 44.7582 127.958 45.1665C127.958 45.5748 127.817 45.92 127.535 46.2019C127.253 46.4839 126.908 46.6248 126.5 46.6248C126.092 46.6248 125.747 46.4839 125.465 46.2019ZM123 53.3332C125.606 53.3332 127.812 52.429 129.621 50.6207C131.429 48.8123 132.333 46.6054 132.333 43.9998C132.333 43.5332 132.304 43.0811 132.246 42.6436C132.187 42.2061 132.081 41.7832 131.925 41.3748C131.517 41.4721 131.108 41.545 130.7 41.5936C130.292 41.6422 129.864 41.6665 129.417 41.6665C127.647 41.6665 125.975 41.2873 124.4 40.529C122.825 39.7707 121.483 38.7109 120.375 37.3498C119.753 38.8665 118.863 40.1839 117.706 41.3019C116.549 42.42 115.203 43.2609 113.667 43.8248V43.9998C113.667 46.6054 114.571 48.8123 116.379 50.6207C118.187 52.429 120.394 53.3332 123 53.3332ZM123.002 55.0832C121.469 55.0832 120.028 54.7923 118.679 54.2105C117.33 53.6287 116.157 52.8392 115.159 51.8419C114.162 50.8446 113.372 49.6718 112.79 48.3235C112.208 46.9752 111.917 45.5347 111.917 44.0019C111.917 42.4689 112.208 41.0279 112.789 39.6791C113.371 38.3302 114.161 37.1569 115.158 36.1593C116.155 35.1616 117.328 34.3716 118.676 33.7895C120.025 33.2075 121.465 32.9165 122.998 32.9165C124.531 32.9165 125.972 33.2074 127.321 33.7892C128.67 34.3709 129.843 35.1605 130.841 36.1578C131.838 37.1551 132.628 38.3279 133.21 39.6762C133.792 41.0244 134.083 42.465 134.083 43.9978C134.083 45.5308 133.792 46.9717 133.211 48.3206C132.629 49.6694 131.839 50.8427 130.842 51.8404C129.845 52.8381 128.672 53.628 127.324 54.2102C125.975 54.7922 124.535 55.0832 123.002 55.0832ZM120.875 34.9246C121.759 36.5548 122.985 37.7944 124.554 38.6434C126.122 39.4921 127.743 39.9165 129.417 39.9165C129.734 39.9165 130.043 39.9001 130.344 39.8672C130.646 39.8344 130.951 39.7872 131.261 39.7258C130.482 38.1778 129.353 36.9475 127.874 36.035C126.396 35.1227 124.771 34.6665 123 34.6665C122.608 34.6665 122.243 34.6886 121.904 34.7327C121.565 34.7769 121.222 34.8408 120.875 34.9246ZM113.994 41.7721C115.091 41.2232 116.132 40.4211 117.117 39.3658C118.103 38.3106 118.739 37.0455 119.027 35.5707C117.751 36.1495 116.672 36.9816 115.791 38.0668C114.91 39.1519 114.311 40.3871 113.994 41.7721Z" fill="#6C7175"/>
<path d="M123 71L116.938 60.5L129.062 60.5L123 71Z" fill="white"/>
</g>
<g filter="url(#filter1_d_61_476)">
<circle cx="183" cy="44" r="20" fill="white"/>
<path d="M183 51.0002C185.606 51.0002 187.812 50.0911 189.621 48.2731C191.429 46.455 192.333 44.2529 192.333 41.6668C192.333 40.9892 192.268 40.3415 192.137 39.7237C192.006 39.106 191.811 38.516 191.553 37.9536C191.057 38.2692 190.531 38.5108 189.974 38.6784C189.417 38.8458 188.842 38.9295 188.25 38.9295C187.17 38.9295 186.166 38.6689 185.239 38.1476C184.312 37.6265 183.565 36.9022 183 35.9747C182.442 36.9022 181.698 37.6265 180.766 38.1476C179.835 38.6689 178.83 38.9295 177.75 38.9295C177.158 38.9295 176.585 38.8458 176.031 38.6784C175.478 38.5108 174.954 38.273 174.459 37.965C174.2 38.5347 174.003 39.1285 173.868 39.7462C173.734 40.364 173.667 41.0042 173.667 41.6668C173.667 44.2529 174.576 46.455 176.394 48.2731C178.212 50.0911 180.414 51.0002 183 51.0002ZM180.535 43.8689C180.817 43.587 180.958 43.2418 180.958 42.8335C180.958 42.4252 180.817 42.08 180.535 41.7981C180.253 41.5161 179.908 41.3752 179.5 41.3752C179.092 41.3752 178.747 41.5161 178.465 41.7981C178.183 42.08 178.042 42.4252 178.042 42.8335C178.042 43.2418 178.183 43.587 178.465 43.8689C178.747 44.1509 179.092 44.2918 179.5 44.2918C179.908 44.2918 180.253 44.1509 180.535 43.8689ZM187.535 43.8689C187.817 43.587 187.958 43.2418 187.958 42.8335C187.958 42.4252 187.817 42.08 187.535 41.7981C187.253 41.5161 186.908 41.3752 186.5 41.3752C186.092 41.3752 185.747 41.5161 185.465 41.7981C185.183 42.08 185.042 42.4252 185.042 42.8335C185.042 43.2418 185.183 43.587 185.465 43.8689C185.747 44.1509 186.092 44.2918 186.5 44.2918C186.908 44.2918 187.253 44.1509 187.535 43.8689ZM177.75 37.1795C178.96 37.1795 179.992 36.7529 180.845 35.8997C181.698 35.0463 182.125 34.0146 182.125 32.8045V32.3694C180.721 32.495 179.427 32.9187 178.243 33.6405C177.06 34.362 176.085 35.2853 175.316 36.4101C175.681 36.6508 176.067 36.8393 176.475 36.9754C176.882 37.1115 177.307 37.1795 177.75 37.1795ZM188.25 37.1795C188.693 37.1795 189.12 37.1126 189.531 36.9789C189.942 36.8451 190.331 36.6518 190.696 36.399C189.934 35.2816 188.965 34.3714 187.788 33.6685C186.611 32.9655 185.306 32.5363 183.875 32.3807V32.8045C183.875 34.0146 184.302 35.0463 185.155 35.8997C186.008 36.7529 187.04 37.1795 188.25 37.1795ZM172.184 55.0835C171.571 55.0835 171.053 54.855 170.631 54.3981C170.209 53.9411 170.024 53.406 170.075 52.7927L171.091 41.6645C171.239 40.1134 171.652 38.6619 172.328 37.3099C173.005 35.9577 173.875 34.784 174.938 33.7886C176 32.7931 177.221 32.01 178.599 31.4395C179.978 30.8688 181.444 30.5835 183 30.5835C184.556 30.5835 186.022 30.8688 187.401 31.4395C188.779 32.01 190 32.7931 191.062 33.7886C192.125 34.784 192.995 35.9577 193.671 37.3099C194.348 38.6619 194.761 40.1134 194.909 41.6645L195.925 52.7927C195.976 53.406 195.791 53.9411 195.369 54.3981C194.947 54.855 194.429 55.0835 193.816 55.0835H172.184ZM183 52.7502C180.547 52.7502 178.365 52.0315 176.454 50.5942C174.544 49.1566 173.233 47.3333 172.522 45.1242L171.825 52.9409C171.81 53.0455 171.84 53.1371 171.914 53.2157C171.989 53.2942 172.079 53.3335 172.184 53.3335H193.816C193.921 53.3335 194.011 53.2942 194.086 53.2157C194.16 53.1371 194.19 53.0455 194.175 52.9409L193.478 45.1353C192.767 47.3446 191.459 49.1661 189.555 50.5997C187.65 52.0333 185.465 52.7502 183 52.7502ZM183 53.3335H194.175H171.825H183Z" fill="#6C7175"/>
<path d="M183 71L176.938 60.5L189.062 60.5L183 71Z" fill="white"/>
</g>
<g filter="url(#filter2_d_61_476)">
<circle cx="243" cy="44" r="20" fill="white"/>
<path d="M243 55.0832C241.48 55.0832 240.046 54.7919 238.698 54.2093C237.349 53.6268 236.173 52.8336 235.17 51.8299C234.166 50.8264 233.373 49.6504 232.791 48.3019C232.208 46.9534 231.917 45.5194 231.917 43.9998C231.917 42.4682 232.208 41.0282 232.791 39.68C233.373 38.3315 234.166 37.1566 235.17 36.1552C236.173 35.1538 237.349 34.3637 238.698 33.7848C240.046 33.2059 241.48 32.9165 243 32.9165C244.532 32.9165 245.972 33.2059 247.32 33.7848C248.668 34.3637 249.843 35.1538 250.845 36.1552C251.846 37.1566 252.636 38.3315 253.215 39.68C253.794 41.0282 254.083 42.4682 254.083 43.9998C254.083 45.5194 253.794 46.9534 253.215 48.3019C252.636 49.6504 251.846 50.8264 250.845 51.8299C249.843 52.8336 248.668 53.6268 247.32 54.2093C245.972 54.7919 244.532 55.0832 243 55.0832ZM243 34.6665C240.789 34.6665 238.845 35.3448 237.166 36.7015C235.486 38.0581 234.405 39.7714 233.92 41.8415C234.354 41.7742 234.817 41.579 235.31 41.2558C235.803 40.9329 236.333 40.2008 236.9 39.0596C237.169 38.5091 237.563 38.0768 238.082 37.7625C238.601 37.4485 239.171 37.2915 239.792 37.2915H246.208C246.829 37.2915 247.399 37.4467 247.918 37.757C248.437 38.0673 248.831 38.4977 249.1 39.0482C249.675 40.2088 250.216 40.9496 250.725 41.2704C251.233 41.5913 251.685 41.7816 252.08 41.8415C251.595 39.7714 250.517 38.0581 248.844 36.7015C247.171 35.3448 245.223 34.6665 243 34.6665ZM243 53.3332C245.606 53.3332 247.816 52.4211 249.63 50.597C251.444 48.773 252.345 46.5619 252.333 43.964V43.8012C252.333 43.7526 252.33 43.7021 252.322 43.6498C251.061 43.5361 250.069 43.1203 249.345 42.4024C248.621 41.6845 248.012 40.8304 247.516 39.8401C247.389 39.5815 247.213 39.3837 246.987 39.2468C246.761 39.1099 246.511 39.0415 246.238 39.0415H239.792C239.498 39.0415 239.239 39.1099 239.013 39.2468C238.787 39.3837 238.611 39.5815 238.484 39.8401C237.989 40.8498 237.373 41.7137 236.637 42.4315C235.901 43.1494 234.915 43.5653 233.678 43.679C233.67 43.7313 233.667 43.7818 233.667 43.8304V43.9818C233.667 46.5799 234.576 48.788 236.394 50.6061C238.212 52.4241 240.414 53.3332 243 53.3332ZM238.465 46.2019C238.183 45.92 238.042 45.5748 238.042 45.1665C238.042 44.7582 238.183 44.413 238.465 44.1311C238.747 43.8491 239.092 43.7082 239.5 43.7082C239.908 43.7082 240.253 43.8491 240.535 44.1311C240.817 44.413 240.958 44.7582 240.958 45.1665C240.958 45.5748 240.817 45.92 240.535 46.2019C240.253 46.4839 239.908 46.6248 239.5 46.6248C239.092 46.6248 238.747 46.4839 238.465 46.2019ZM245.465 46.2019C245.183 45.92 245.042 45.5748 245.042 45.1665C245.042 44.7582 245.183 44.413 245.465 44.1311C245.747 43.8491 246.092 43.7082 246.5 43.7082C246.908 43.7082 247.253 43.8491 247.535 44.1311C247.817 44.413 247.958 44.7582 247.958 45.1665C247.958 45.5748 247.817 45.92 247.535 46.2019C247.253 46.4839 246.908 46.6248 246.5 46.6248C246.092 46.6248 245.747 46.4839 245.465 46.2019Z" fill="#6C7175"/>
<path d="M243 71L236.938 60.5L249.062 60.5L243 71Z" fill="white"/>
</g>
<defs>
<filter id="filter0_d_61_476" x="95" y="16" width="56" height="63" filterUnits="userSpaceOnUse" color-interpolation-filters="sRGB">
<feFlood flood-opacity="0" result="BackgroundImageFix"/>
<feColorMatrix in="SourceAlpha" type="matrix" values="0 0 0 0 0 0 0 0 0 0 0 0 0 0 0 0 0 0 127 0" result="hardAlpha"/>
<feOffset/>
<feGaussianBlur stdDeviation="4"/>
<feComposite in2="hardAlpha" operator="out"/>
<feColorMatrix type="matrix" values="0 0 0 0 0 0 0 0 0 0 0 0 0 0 0 0 0 0 0.05 0"/>
<feBlend mode="normal" in2="BackgroundImageFix" result="effect1_dropShadow_61_476"/>
<feBlend mode="normal" in="SourceGraphic" in2="effect1_dropShadow_61_476" result="shape"/>
</filter>
<filter id="filter1_d_61_476" x="155" y="16" width="56" height="63" filterUnits="userSpaceOnUse" color-interpolation-filters="sRGB">
<feFlood flood-opacity="0" result="BackgroundImageFix"/>
<feColorMatrix in="SourceAlpha" type="matrix" values="0 0 0 0 0 0 0 0 0 0 0 0 0 0 0 0 0 0 127 0" result="hardAlpha"/>
<feOffset/>
<feGaussianBlur stdDeviation="4"/>
<feComposite in2="hardAlpha" operator="out"/>
<feColorMatrix type="matrix" values="0 0 0 0 0 0 0 0 0 0 0 0 0 0 0 0 0 0 0.05 0"/>
<feBlend mode="normal" in2="BackgroundImageFix" result="effect1_dropShadow_61_476"/>
<feBlend mode="normal" in="SourceGraphic" in2="effect1_dropShadow_61_476" result="shape"/>
</filter>
<filter id="filter2_d_61_476" x="215" y="16" width="56" height="63" filterUnits="userSpaceOnUse" color-interpolation-filters="sRGB">
<feFlood flood-opacity="0" result="BackgroundImageFix"/>
<feColorMatrix in="SourceAlpha" type="matrix" values="0 0 0 0 0 0 0 0 0 0 0 0 0 0 0 0 0 0 127 0" result="hardAlpha"/>
<feOffset/>
<feGaussianBlur stdDeviation="4"/>
<feComposite in2="hardAlpha" operator="out"/>
<feColorMatrix type="matrix" values="0 0 0 0 0 0 0 0 0 0 0 0 0 0 0 0 0 0 0.05 0"/>
<feBlend mode="normal" in2="BackgroundImageFix" result="effect1_dropShadow_61_476"/>
<feBlend mode="normal" in="SourceGraphic" in2="effect1_dropShadow_61_476" result="shape"/>
</filter>
</defs>
</svg>
