<svg width="200" height="200" viewBox="0 0 200 200" fill="none" xmlns="http://www.w3.org/2000/svg">
<rect width="200" height="200" rx="100" fill="white"/>
<mask id="mask0_54_148" style="mask-type:alpha" maskUnits="userSpaceOnUse" x="0" y="0" width="200" height="200">
<rect width="200" height="200" rx="100" fill="white"/>
</mask>
<g mask="url(#mask0_54_148)">
<mask id="mask1_54_148" style="mask-type:luminance" maskUnits="userSpaceOnUse" x="13" y="29" width="171" height="171">
<path d="M183.805 29.4482H13.8054V199.528H183.805V29.4482Z" fill="white"/>
</mask>
<g mask="url(#mask1_54_148)">
<path d="M64.3768 261.51H137.234L151.32 146.913C151.599 142.26 148.782 138.069 144.641 136.988L108.298 131.278C103.38 129.99 98.2554 129.99 93.3375 131.278L56.9939 136.988C52.8532 138.069 50.0239 142.272 50.3154 146.913L64.4011 261.51H64.3768Z" fill="#1E8CD6"/>
<path d="M100.805 185.57L82.8218 132.918L93.3132 131.266C98.2311 129.978 103.355 129.978 108.273 131.266L118.765 132.918L100.793 185.57H100.805Z" fill="#EFEFEF"/>
<path d="M100.805 142.139L105.177 147.497L103.501 152.344H98.0975L96.434 147.497L100.805 142.139Z" fill="#31B5A2"/>
<path d="M104.97 173.385L100.805 185.57L96.6404 173.385L98.1461 152.344H103.465L104.97 173.385Z" fill="#31B5A2"/>
<path d="M86.2339 134.388C86.2339 134.388 89.8768 141.968 100.805 141.968C111.734 141.968 115.377 134.388 115.377 134.388L109.548 104.065H92.0625L86.2339 134.388Z" fill="#D9AA91"/>
<path d="M65.834 149.512H42.5197L45.434 215.114H62.9197L65.834 149.512Z" fill="#1E8CD6"/>
<path d="M54.1768 161.175C60.6149 161.175 65.834 155.953 65.834 149.512C65.834 143.071 60.6149 137.85 54.1768 137.85C47.7388 137.85 42.5197 143.071 42.5197 149.512C42.5197 155.953 47.7388 161.175 54.1768 161.175Z" fill="#1E8CD6"/>
<path d="M159.091 149.512H135.777L138.691 215.114H156.177L159.091 149.512Z" fill="#1E8CD6"/>
<path d="M147.434 161.175C153.872 161.175 159.091 155.953 159.091 149.512C159.091 143.071 153.872 137.85 147.434 137.85C140.996 137.85 135.777 143.071 135.777 149.512C135.777 155.953 140.996 161.175 147.434 161.175Z" fill="#1E8CD6"/>
<path d="M90.7875 44.5127L127.058 47.0275C134.077 47.5134 139.31 53.369 138.606 59.9414L133.87 91.3454L77.9161 87.47L77.5639 55.7137C77.7704 49.117 83.7689 44.0389 90.7875 44.5249V44.5127Z" fill="#423F3F"/>
<path d="M118.68 94.6744C118.34 99.4974 121.983 103.676 126.791 104.004C131.612 104.345 135.789 100.7 136.117 95.8893C136.445 91.0784 132.814 86.8872 128.005 86.5592C123.185 86.2311 119.008 89.8636 118.68 94.6744Z" fill="#E2B99F"/>
<path d="M99.0204 125.458C113.47 126.455 126.002 115.557 126.998 101.101L128.406 80.7395C129.414 66.2827 118.51 53.7454 104.06 52.7492C89.6097 51.7409 77.0782 62.6503 76.0825 77.1071L74.6739 97.4681C73.6661 111.925 84.5704 124.462 99.0204 125.458Z" fill="#E2B99F"/>
<path d="M58.7304 50.5022C57.4918 57.682 69.7561 79.2579 90.5325 72.9892C111.309 66.7206 126.354 72.1267 128.54 59.3707C129.681 52.7376 127.24 43.7112 121.315 40.6011C115.474 37.0173 106.16 39.3498 95.4139 44.5373C84.6675 49.7126 75.3175 52.2759 69.0154 51.4012C62.6282 51.0003 59.289 47.1735 58.7182 50.5144L58.7304 50.5022Z" fill="#423F3F"/>
<path d="M90.3626 110.831C90.2169 110.831 90.0833 110.759 89.9861 110.649C89.7919 110.418 89.8161 110.078 90.0347 109.884C93.3619 106.98 98.4376 107.333 101.328 110.673C101.522 110.904 101.498 111.244 101.279 111.439C101.048 111.633 100.708 111.609 100.514 111.39C98.0126 108.511 93.6411 108.207 90.7633 110.71C90.654 110.807 90.5083 110.856 90.3626 110.844V110.831Z" fill="#243357"/>
<path d="M87.8854 87.0083L84.3397 87.3849C84.1818 87.6643 84.0847 87.968 84.0604 88.296C83.9754 89.4988 84.8861 90.5435 86.0883 90.6286C87.2904 90.7136 88.3347 89.8025 88.4197 88.5998C88.4561 87.9923 88.2497 87.4335 87.8854 87.0083Z" fill="#243357"/>
<path d="M106.622 88.3086C106.197 88.6731 105.918 89.2076 105.869 89.815C105.784 91.0177 106.695 92.0625 107.897 92.1475C109.099 92.2326 110.143 91.3214 110.228 90.1187C110.253 89.7907 110.192 89.4627 110.083 89.1711L106.622 88.3086Z" fill="#243357"/>
</g>
</g>
<g clip-path="url(#clip0_54_148)">
<path d="M54.5167 77.8993C54.3924 77.8856 54.2712 77.8443 54.1588 77.7731C52.689 76.8242 51.0831 75.9444 49.3848 75.0153C44.1288 72.1401 38.2953 68.9492 37.1762 63.2516C35.818 63.5538 34.3776 63.6115 32.8914 63.3979C26.5331 62.4927 22.5475 58.078 22.167 51.713C20.699 51.4622 19.4423 50.9151 18.3861 50.0704C13.7792 46.3752 14.4459 38.0342 14.9802 31.3324C15.1776 28.8456 15.3497 26.6923 15.2143 25.2003C15.1718 24.7472 15.5068 24.3439 15.9615 24.3013C16.4138 24.2557 16.8183 24.5944 16.8581 25.0472C17.0059 26.6806 16.8296 28.898 16.6264 31.4627C16.1239 37.7728 15.4967 45.6275 19.4201 48.7741C20.1702 49.3777 21.0839 49.7891 22.153 50.0074C22.156 49.9797 22.1566 49.9489 22.1575 49.9154C22.2668 47.3908 22.9033 44.7756 23.988 42.3552C20.6437 40.0458 19.2737 35.921 19.493 32.3182C19.7751 27.7105 22.5727 22.8772 28.1892 22.4677C31.6754 22.2113 34.5835 23.2228 36.647 25.2823C37.0811 25.4029 37.5296 25.5446 37.9953 25.7078C40.3288 26.5301 41.8217 29.3819 41.9658 32.705C44.083 33.3074 45.0392 34.4269 45.4555 35.448C46.4188 37.8016 45.0649 41.0697 42.0115 43.7756C41.5256 44.2044 40.9874 44.6246 40.4057 45.0092C42.9518 45.5241 44.298 46.9107 44.9598 47.9111C45.4442 48.6425 45.7774 49.4779 45.9637 50.3784C47.1176 50.3846 48.1418 50.7829 48.9092 51.5594C49.5055 52.163 49.6832 52.7346 49.4404 53.2658C49.0665 54.074 48.0383 54.1966 45.9486 54.0821C45.6846 55.4434 45.1444 56.8247 44.3356 58.1066C44.2985 58.1641 44.2642 58.222 44.2247 58.2766C47.2956 59.9197 49.9364 61.5325 49.8398 63.5596C49.7701 65.0346 48.7709 65.9368 47.1706 65.9742C45.1612 66.0199 41.9968 64.7196 38.8715 62.7313C38.8366 62.7443 38.7985 62.7598 38.7605 62.7752C39.6263 67.8004 44.7744 70.6133 50.1756 73.5661C51.8264 74.4704 53.533 75.4005 55.0546 76.3859C55.4382 76.6354 55.5471 77.1463 55.301 77.5285C55.1258 77.8008 54.8175 77.9351 54.5164 77.902L54.5167 77.8993ZM40.6391 61.8322C43.1827 63.3643 45.6188 64.3464 47.1345 64.3165C48.0735 64.2935 48.1719 63.9063 48.1908 63.4795C48.2418 62.4032 45.5651 60.8621 43.2195 59.6153C42.4572 60.4986 41.5902 61.2415 40.6416 61.8353L40.6391 61.8322ZM23.8305 51.8648C24.2429 57.3279 27.6166 60.9747 33.1241 61.7614C34.4685 61.9426 35.769 61.8863 36.9894 61.5914C36.9866 61.5407 36.9863 61.493 36.9865 61.4397C32.9335 58.4808 29.344 54.558 28.9047 51.1997C27.0213 51.6768 25.3333 51.9008 23.8302 51.8676L23.8305 51.8648ZM38.6615 60.5445C38.7938 60.6375 38.9262 60.7305 39.0616 60.821C40.0391 60.3201 40.9321 59.6473 41.7137 58.8166C40.8632 58.3645 40.0661 57.9351 39.3607 57.5101C39.0865 58.1751 38.8804 58.8812 38.7654 59.6226C38.717 59.9368 38.6805 60.2439 38.6618 60.5417L38.6615 60.5445ZM30.5178 50.7405C30.5197 50.7743 30.5219 50.8054 30.5265 50.8395C30.7689 53.4447 33.6952 56.7369 37.1305 59.4151C37.132 59.4012 37.1335 59.3874 37.1353 59.3708C37.2889 58.3786 37.5761 57.4431 37.9616 56.5801C36.8707 55.7457 36.2477 54.9009 36.371 53.9307C36.5895 52.2449 38.7491 52.0027 41.4734 52.1167C42.3342 51.4572 43.2377 50.9678 44.1074 50.6848C44.1829 50.6595 44.2581 50.6369 44.3332 50.6143C44.184 49.9617 43.9348 49.3542 43.5847 48.8252C42.4459 47.1026 40.3779 46.3067 37.5523 46.4786C37.0161 46.6777 36.4642 46.8413 35.9067 46.9539C34.4604 48.7207 32.6656 50.0709 30.5697 50.7265C30.5525 50.7303 30.535 50.7368 30.5178 50.7405ZM40.1236 56.0354C40.9757 56.5494 41.9445 57.0705 42.7585 57.499C42.8189 57.4075 42.8792 57.3161 42.9399 57.2218C43.6001 56.1732 44.0519 55.0624 44.2929 53.9621C44.218 53.9567 44.1431 53.9512 44.0682 53.9458C43.5443 53.9051 42.8044 53.8464 42.0205 53.8052C41.3218 54.4152 40.6689 55.1676 40.1267 56.033L40.1236 56.0354ZM39.741 53.7652C38.8572 53.7943 38.1662 53.9007 38.0047 54.1492C37.9749 54.3954 38.2677 54.733 38.749 55.111C39.0533 54.6315 39.3851 54.1802 39.741 53.7652ZM25.4512 43.1857C24.4798 45.3634 23.9032 47.7134 23.8046 49.9868C23.8028 50.0539 23.8007 50.1238 23.7959 50.1933C25.2892 50.2395 27.0186 49.9948 28.9716 49.4693C29.2063 48.4524 29.8398 47.4176 31.1852 46.5702C30.9261 46.4605 30.666 46.3339 30.4108 46.1881C29.4396 45.6387 28.5657 44.8645 27.807 43.932L27.796 43.9307C26.9451 43.7617 26.162 43.5104 25.4515 43.1829L25.4512 43.1857ZM46.137 52.0343C46.1369 52.1632 46.1361 52.2977 46.1326 52.4318C46.6162 52.4569 47.0677 52.47 47.4239 52.4587C47.0216 52.1763 46.5701 52.0622 46.137 52.0343ZM33.2167 47.393C32.3194 47.7486 31.6451 48.1875 31.1936 48.7097C31.9162 48.3658 32.5912 47.9214 33.2167 47.393ZM30.4907 44.263C30.7281 44.4432 30.9729 44.6074 31.2256 44.75C32.0234 45.1991 32.8648 45.4288 33.7232 45.4782C34.1966 45.3424 34.7163 45.2172 35.2818 45.1083C35.7356 44.463 36.1445 43.7679 36.5016 43.0364C34.8932 43.8857 32.898 44.3618 30.488 44.2626L30.4907 44.263ZM39.0016 41.1442C38.5853 42.4158 38.0514 43.6381 37.4044 44.7695C38.7262 44.2139 39.9479 43.3978 40.9205 42.5348C43.3637 40.37 44.6026 37.7172 43.93 36.0766C43.6303 35.343 42.9448 34.7885 41.9228 34.4212C41.856 35.1314 41.7273 35.846 41.5344 36.5592C41.0881 38.2059 40.2569 39.8188 39.0019 41.1414L39.0016 41.1442ZM28.7525 42.4241C33.2134 43.1435 35.9443 41.8484 37.6043 40.1976C38.2094 38.1479 38.4784 35.9772 38.3692 33.9163C37.953 33.9127 37.5157 33.9235 37.06 33.9492C33.0914 34.1695 29.7126 36.5538 27.3583 39.8438C27.7362 40.7822 28.2051 41.6549 28.75 42.421L28.7525 42.4241ZM30.4984 24.1478C29.8271 24.0742 29.0989 24.0615 28.3072 24.1176C23.6853 24.4567 21.3766 28.5281 21.1398 32.4177C20.9492 35.5303 22.0369 38.915 24.7273 40.8668C24.9613 40.4412 25.2085 40.0227 25.4683 39.6168C24.3146 36.2473 24.2245 32.3555 25.5968 29.3277C26.3126 27.7469 28.2763 24.756 32.8829 24.7347C32.1816 24.4503 31.3906 24.2458 30.4984 24.1478ZM34.0717 26.46C30.7487 26.0953 28.3235 27.3062 27.1015 30.0085C26.0863 32.2543 26.0443 35.1842 26.7235 37.885C29.2737 34.7455 32.7849 32.5298 36.973 32.2972C37.4032 32.2743 37.8101 32.2601 38.1986 32.2607C38.1795 32.1297 38.1548 31.9981 38.1325 31.8695C37.8927 30.5903 37.2813 28.4687 35.7608 26.7603C35.1754 26.6175 34.6134 26.5166 34.0748 26.4575L34.0717 26.46ZM40.0221 34.0108C40.0467 34.6274 40.0391 35.2572 40.0035 35.8867C40.1545 35.2754 40.2478 34.655 40.2898 34.043C40.2014 34.0333 40.1133 34.0208 40.0221 34.0108ZM38.594 28.0214C39.1135 29.0706 39.5035 30.2542 39.751 31.565C39.7989 31.8169 39.8409 32.071 39.8764 32.3328C40.0148 32.3451 40.1477 32.3569 40.2797 32.377C40.1287 30.5694 39.5243 28.9699 38.594 28.0214Z" fill="#243357"/>
</g>
<defs>
<clipPath id="clip0_54_148">
<rect width="45.6593" height="52.4596" fill="white" transform="translate(15.6737 20.8613) rotate(6.26339)"/>
</clipPath>
</defs>
</svg>
