<svg width="200" height="200" viewBox="0 0 200 200" fill="none" xmlns="http://www.w3.org/2000/svg">
<mask id="mask0_54_330" style="mask-type:luminance" maskUnits="userSpaceOnUse" x="11" y="25" width="175" height="175">
<path d="M186 25H11V199.865H186V25Z" fill="white"/>
</mask>
<g mask="url(#mask0_54_330)">
<path d="M137.475 101.853C143.075 75.4856 141.463 52.803 115.05 47.1948C88.6375 41.5867 77.7375 61.6212 72.3375 88.0259C64.5625 125.997 59.9625 135.302 94.7625 142.684C136.938 151.639 131.875 128.22 137.475 101.853Z" fill="#2E384C"/>
<path d="M136 255.597H61L65.4125 208.434C65.475 207.909 65.4875 207.372 65.45 206.847L61.5125 147.768C61.225 143.396 64.125 139.449 68.3875 138.425L90.8 133.054C95.8625 131.843 101.138 131.843 106.2 133.054L128.612 138.425C132.875 139.449 135.787 143.396 135.487 147.768L131.55 206.847C131.512 207.372 131.525 207.909 131.587 208.434L136 255.597Z" fill="#31B5A2"/>
<path d="M107.5 138.688C101.738 141.074 95.2626 141.074 89.5001 138.688V93.7227H107.5V138.688Z" fill="#E2BBA6"/>
<path d="M143.5 150.94L140.5 210.894H122.5L119.5 150.94H143.5Z" fill="#31B5A2"/>
<path d="M131.5 162.93C138.127 162.93 143.5 157.562 143.5 150.94C143.5 144.317 138.127 138.949 131.5 138.949C124.873 138.949 119.5 144.317 119.5 150.94C119.5 157.562 124.873 162.93 131.5 162.93Z" fill="#31B5A2"/>
<path d="M77.5 150.94L74.5 210.894H56.5L53.5 150.94H77.5Z" fill="#31B5A2"/>
<path d="M65.5 162.93C72.1274 162.93 77.5 157.562 77.5 150.94C77.5 144.317 72.1274 138.949 65.5 138.949C58.8726 138.949 53.5 144.317 53.5 150.94C53.5 157.562 58.8726 162.93 65.5 162.93Z" fill="#31B5A2"/>
<path d="M93.525 126.908C78.7125 123.636 70.5875 104.9 73.6125 90.7359C75.0625 83.8912 74.9625 84.3783 76.4125 77.546C79.4125 63.2945 93.8 53.8643 108.438 56.762C122.988 60.0595 132.3 74.5109 129.238 88.7624C127.788 95.6071 127.888 95.12 126.438 101.952C123.438 116.129 108.4 129.943 93.525 126.921V126.908Z" fill="#EBCAB5"/>
<path d="M123.912 71.4403C118.3 128.309 119.837 141.386 107.5 148.444C138.575 150.942 141.725 126.948 140.112 79.4716C139.725 67.968 133.837 53.4666 112.987 49.0325C92.1375 44.6109 83.125 56.9265 79.1125 66.5191C75.1 76.1242 73.9125 82.1321 73.9125 82.1321C73.9125 82.1321 119.962 74.8627 123.925 71.4403H123.912Z" fill="#2E384C"/>
<path d="M87.0876 89.0385L83.4251 88.9136C83.2251 89.1759 83.0751 89.4632 83.0126 89.8004C82.7501 91.012 83.5251 92.211 84.7501 92.4608C85.9626 92.7231 87.1626 91.9487 87.4126 90.7247C87.5376 90.1127 87.4126 89.5131 87.1001 89.026L87.0876 89.0385Z" fill="#243357"/>
<path d="M106 93.0481C105.513 93.3604 105.15 93.86 105.025 94.472C104.763 95.6836 105.538 96.8827 106.763 97.1325C107.975 97.3948 109.175 96.6204 109.425 95.3963C109.5 95.0591 109.488 94.7218 109.413 94.4096L106.013 93.0356L106 93.0481Z" fill="#243357"/>
<path d="M94.9626 111.033C94.7126 110.983 94.55 110.734 94.6 110.484C94.6375 110.297 94.8876 108.71 92.8751 108.286C90.8626 107.861 90.4376 109.422 90.4001 109.597C90.3501 109.847 90.1001 110.009 89.8501 109.959C89.6001 109.909 89.4376 109.66 89.4876 109.41C89.6876 108.485 90.6876 106.874 93.0751 107.374C95.4626 107.886 95.7251 109.759 95.5251 110.684C95.4751 110.934 95.2251 111.096 94.9751 111.046L94.9626 111.033Z" fill="#243357"/>
</g>
<g clip-path="url(#clip0_54_330)">
<path d="M58.5827 64.9998C57.8016 64.9998 57.0434 64.8511 56.3951 64.4559C55.9828 64.2049 55.3391 63.5471 55.6759 61.9572C55.7766 61.4784 55.9713 60.9298 56.2371 60.3673C54.4756 60.279 52.5652 59.9745 50.8839 59.5096C47.0379 58.4404 44.7358 56.6831 44.3968 54.5563C44.1494 53.0083 44.4862 51.4835 45.2352 50.0586C42.4475 49.9145 39.7927 49.5589 37.6578 48.9871C34.3387 48.1015 32.4902 46.7766 32.1603 45.0472C31.693 42.6019 32.2565 40.4333 33.8371 38.597C37.7723 34.0249 47.0104 32.7581 51.9078 33.037C52.2834 33.058 52.5698 33.3834 52.5492 33.7646C52.5285 34.1458 52.1872 34.4363 51.8322 34.4154C46.8455 34.1411 38.2877 35.5288 34.861 39.5105C33.5713 41.0074 33.1132 42.7832 33.4958 44.7892C33.7111 45.9212 35.3122 46.9393 38.0037 47.6575C40.2783 48.2642 43.1439 48.5989 46.0988 48.6988C48.0801 46.0304 51.4657 43.8641 54.9543 42.8135C59.0728 41.5746 62.266 42.2556 63.2876 44.5939C63.6335 45.3842 63.5052 46.1978 62.9257 46.8858C60.9901 49.1916 53.7013 50.2911 46.7814 50.119C45.9315 51.4579 45.5124 52.899 45.7414 54.3378C46.1331 56.7947 50.8655 58.5032 55.3368 58.9215C55.9439 58.9773 56.4982 59.0075 56.9998 59.0168C57.8634 57.7129 59.011 56.5971 60.099 56.4647C60.8916 56.3647 61.5696 56.7901 61.9636 57.6199C62.2316 58.187 62.1721 58.7728 61.7964 59.2307C61.1825 59.9791 59.6386 60.3371 57.7512 60.3906C57.4007 61.0112 57.1281 61.6643 57.0044 62.2501C56.8945 62.7731 56.9288 63.1752 57.0938 63.2775C58.6857 64.2491 61.8995 62.9288 63.0013 62.3384C63.3334 62.1618 63.7457 62.2919 63.9198 62.6266C64.0962 62.9637 63.9679 63.3821 63.6358 63.5587C63.283 63.747 60.8435 65.0022 58.5804 65.0022L58.5827 64.9998ZM60.3189 57.8314C60.2983 57.8314 60.2777 57.8337 60.2594 57.836C59.8333 57.8872 59.2813 58.3265 58.7476 58.9494C60.0487 58.8123 60.7015 58.5101 60.7702 58.3172C60.5778 57.8895 60.4243 57.8314 60.3189 57.8314ZM47.8465 48.7291C54.132 48.7081 60.4381 47.7203 61.888 45.9932C62.1308 45.705 62.1743 45.4609 62.0415 45.1541C61.1779 43.1761 57.8909 43.3713 55.3391 44.1384C52.5194 44.9868 49.7065 46.672 47.8465 48.7291Z" fill="#243357"/>
</g>
<defs>
<clipPath id="clip0_54_330">
<rect width="32" height="32" fill="white" transform="translate(32 33)"/>
</clipPath>
</defs>
</svg>
