<svg width="200" height="200" viewBox="0 0 200 200" fill="none" xmlns="http://www.w3.org/2000/svg">
<rect width="200" height="200" rx="100" fill="white"/>
<mask id="mask0_54_331" style="mask-type:alpha" maskUnits="userSpaceOnUse" x="0" y="0" width="200" height="200">
<rect width="200" height="200" rx="100" fill="white"/>
</mask>
<g mask="url(#mask0_54_331)">
<mask id="mask1_54_331" style="mask-type:luminance" maskUnits="userSpaceOnUse" x="21" y="30" width="170" height="170">
<path d="M191 30H21V200H191V30Z" fill="white"/>
</mask>
<g mask="url(#mask1_54_331)">
<path d="M91.4286 132.061C91.4286 132.061 95.0715 139.638 106 139.638C116.929 139.638 120.572 132.061 120.572 132.061L114.743 101.752H97.2572L91.4286 132.061Z" fill="#D9AA91"/>
<path d="M69.5715 259.124H142.429L156.514 144.581C156.794 139.93 153.976 135.741 149.836 134.66L113.492 128.953C108.574 127.666 103.45 127.666 98.5322 128.953L62.1886 134.66C58.0479 135.741 55.2186 139.942 55.51 144.581L69.5958 259.124H69.5715Z" fill="#F0F0F0"/>
<path d="M108.696 150.008L110.371 145.163L106 139.808L101.629 145.163L103.292 150.008H103.341L101.835 192.557L106 208.124L110.165 192.557L108.659 150.008H108.696Z" fill="#31B5A2"/>
<path d="M71.0285 147.179H47.7142L50.6285 212.751H68.1142L71.0285 147.179Z" fill="#435460"/>
<path d="M59.3714 158.835C65.8094 158.835 71.0285 153.616 71.0285 147.178C71.0285 140.74 65.8094 135.521 59.3714 135.521C52.9333 135.521 47.7142 140.74 47.7142 147.178C47.7142 153.616 52.9333 158.835 59.3714 158.835Z" fill="#435460"/>
<path d="M164.286 147.179H140.971L143.886 212.751H161.371L164.286 147.179Z" fill="#435460"/>
<path d="M152.629 158.835C159.067 158.835 164.286 153.616 164.286 147.178C164.286 140.74 159.067 135.521 152.629 135.521C146.19 135.521 140.971 140.74 140.971 147.178C140.971 153.616 146.19 158.835 152.629 158.835Z" fill="#435460"/>
<path d="M149.884 134.295L121.749 129.875L106.012 206.314L90.3356 130.215L90.2628 129.875L62.0913 134.307C57.7685 135.436 54.8421 139.771 55.1335 144.604L59.6385 251.838L59.5049 259.743H152.519L152.386 251.862L156.878 144.604C157.17 139.771 154.243 135.449 149.884 134.307V134.295Z" fill="#435460"/>
<path d="M132.527 71.9781C137.42 93.145 126.611 113.726 110.147 117.523C93.6835 121.32 77.791 106.917 72.8982 85.7498C68.0054 64.5829 66.8891 46.7565 92.4416 40.8627C117.996 34.9568 127.634 50.8112 132.527 71.9781Z" fill="#747E87"/>
<path d="M106.221 119.928C120.34 116.668 129.13 102.588 125.869 88.4687L121.279 68.5883C118.018 54.469 103.938 45.6793 89.8191 48.9402C75.6998 52.201 66.9101 66.2807 70.1709 80.4L74.761 100.28C78.0219 114.4 92.1015 123.189 106.221 119.928Z" fill="#E2B99F"/>
<path d="M116.044 84.7574C117.128 89.4593 121.825 92.3897 126.527 91.3062C131.229 90.2228 134.159 85.5256 133.076 80.8236C131.992 76.1217 127.295 73.1913 122.593 74.2748C117.891 75.3582 114.961 80.0554 116.044 84.7574Z" fill="#E2B99F"/>
<path d="M86.9477 55.885C89.9608 55.1881 92.8815 54.9325 95.4855 55.053L104.234 53.036C103.151 48.334 94.6357 46.2682 85.2304 48.4472C75.825 50.6261 78.9075 58.8848 78.9075 58.8848C81.2073 57.6329 83.9346 56.5818 86.9477 55.885Z" fill="#67727A"/>
<path d="M68.7049 69.2242C68.4222 72.7256 68.8397 76.3032 68.5344 79.7895C68.2412 83.2774 67.0501 86.8968 64.4183 88.6453C69.586 88.5263 74.5531 86.1178 78.0415 82.0418C81.53 77.9657 83.4735 72.2627 83.387 66.4504C83.3365 63.2619 82.7001 60.0606 82.6737 56.8751C82.6473 53.6896 84.1539 49.4124 85.4655 48.3295C71.1997 49.3566 69.4737 59.64 68.7034 69.2362L68.7049 69.2242Z" fill="#747E87"/>
<path d="M117.042 54.2485C119.596 57.0921 121.528 60.5057 122.644 64.1715C123.406 66.6665 123.423 76.5212 126.826 76.7179C120.711 79.202 113.884 77.0432 107.743 75.179C101.612 73.3283 96.4584 69.2632 93.6375 64.0728C92.088 61.2214 91.2346 58.0906 89.6716 55.2497C88.107 52.4209 84.1931 49.3935 82.1134 49.0944C93.2199 45.0739 105.427 43.7748 114.911 52.1314C115.66 52.789 116.377 53.5037 117.042 54.2485Z" fill="#747E87"/>
<path d="M97.8843 103.26C95.5099 103.841 94.0521 106.277 94.3908 107.764C94.74 109.264 96.9575 110.119 99.3468 109.613C101.711 109.018 103.338 107.277 103.001 105.778C102.662 104.291 100.275 102.741 97.8843 103.26Z" fill="#243357"/>
<path d="M84.3547 86.4248L81.0697 87.8217C81.006 88.1319 80.9906 88.4481 81.0716 88.7766C81.3398 89.9486 82.5197 90.685 83.6918 90.4168C84.8639 90.1486 85.6003 88.9686 85.3321 87.7965C85.1987 87.2045 84.8303 86.7296 84.3532 86.4368L84.3547 86.4248Z" fill="#243357"/>
<path d="M102.659 82.1993C102.354 82.6749 102.244 83.2606 102.377 83.8527C102.645 85.0248 103.825 85.7612 104.997 85.4929C106.17 85.2247 106.906 84.0448 106.638 82.8727C106.557 82.5442 106.409 82.2564 106.22 82.0122L102.659 82.1993Z" fill="#243357"/>
</g>
</g>
<g clip-path="url(#clip0_54_331)">
<path d="M52.0034 76.8171C51.939 76.8285 51.8675 76.8326 51.8002 76.8273C38.296 75.931 35.366 71.9393 35.2843 68.7462C35.2413 67.0723 36.0185 65.365 37.2774 63.817C33.9081 62.1665 30.6787 59.9699 28.3329 57.4955C23.9944 52.9247 23.0597 47.9855 25.7048 43.5885C25.7384 43.5336 25.7743 43.4754 25.813 43.4167C22.6859 42.0571 19.9463 40.3091 18.1241 38.2457C15.4715 35.2471 14.9351 31.8353 16.5685 28.378C19.8582 21.4132 29.3773 21.3067 37.7748 21.2122C42.6007 21.1587 47.1582 21.1068 49.5821 19.7262C49.9889 19.4957 50.5046 19.6344 50.7349 20.037C50.9658 20.4423 50.826 20.9566 50.422 21.1867C47.6156 22.7878 42.8444 22.8402 37.7936 22.8962C29.8916 22.9833 20.9345 23.0822 18.091 29.0953C16.7469 31.9368 17.1836 34.6407 19.3846 37.1293C21.1372 39.1101 23.8617 40.7887 26.974 42.0818C31.2463 38.1617 42.0208 35.1862 47.2632 36.8929C49.777 37.7106 51.0339 39.5347 50.8004 42.0265C50.6844 43.2765 49.9164 44.9706 46.9264 45.9449C42.2513 47.466 34.1708 46.6289 27.4134 44.0683C27.3118 44.1957 27.2252 44.3263 27.1465 44.4526C24.3032 49.1814 26.8885 53.5251 29.5575 56.3395C31.9273 58.8355 35.1809 60.973 38.4749 62.5246C40.9136 60.2028 44.3414 58.4568 47.3753 58.088C50.6591 57.695 52.8824 59.0567 53.4774 61.8218C53.9057 63.8275 53.2673 65.3891 51.68 66.2267C49.0318 67.6125 43.924 66.7457 38.8576 64.55C37.6783 65.8794 36.9369 67.3327 36.9694 68.7032C37.0576 72.1773 42.5033 74.5246 51.9123 75.1488C52.3769 75.1786 52.7283 75.5798 52.6984 76.0458C52.6701 76.4396 52.3764 76.7537 52.0039 76.8199L52.0034 76.8171ZM40.167 63.2694C44.634 65.0994 48.9165 65.7758 50.8927 64.7368C51.4633 64.4368 52.1816 63.8457 51.8244 62.1757C51.4197 60.2867 49.9897 59.4724 47.5768 59.7597C45.1293 60.0474 42.2984 61.4455 40.1698 63.2689L40.167 63.2694ZM28.7749 42.7727C35.0037 44.9751 42.2639 45.6987 46.4054 44.3444C48.104 43.7923 49.019 42.9589 49.1213 41.8754C49.283 40.1507 48.526 39.0758 46.7388 38.4948C42.0663 36.972 32.8237 39.6928 28.7782 42.775L28.7749 42.7727Z" fill="#243357"/>
</g>
<defs>
<clipPath id="clip0_54_331">
<rect width="36.8646" height="58.4749" fill="white" transform="translate(14.0757 24.1616) rotate(-10.068)"/>
</clipPath>
</defs>
</svg>
