<svg width="200" height="200" viewBox="0 0 200 200" fill="none" xmlns="http://www.w3.org/2000/svg">
<rect width="200" height="200" rx="100" fill="white"/>
<mask id="mask0_54_330" style="mask-type:alpha" maskUnits="userSpaceOnUse" x="0" y="0" width="200" height="200">
<rect width="200" height="200" rx="100" fill="white"/>
</mask>
<g mask="url(#mask0_54_330)">
<mask id="mask1_54_330" style="mask-type:luminance" maskUnits="userSpaceOnUse" x="7" y="21" width="180" height="179">
<path d="M186.003 21H7V199.866H186.003V21Z" fill="white"/>
</mask>
<g mask="url(#mask1_54_330)">
<path d="M136.368 99.6106C142.096 72.6402 140.447 49.4388 113.43 43.7023C86.4135 37.9659 75.2641 58.4587 69.7406 85.4674C61.7877 124.307 57.0825 133.825 92.6786 141.376C135.818 150.536 130.64 126.581 136.368 99.6106Z" fill="#2E384C"/>
<path d="M134.859 256.873H58.1437L62.6572 208.63C62.7211 208.093 62.7339 207.544 62.6955 207.007L58.668 146.576C58.3739 142.105 61.3402 138.068 65.7002 137.02L88.6254 131.526C93.8037 130.287 99.1994 130.287 104.378 131.526L127.303 137.02C131.663 138.068 134.642 142.105 134.335 146.576L130.308 207.007C130.269 207.544 130.282 208.093 130.346 208.63L134.859 256.873Z" fill="#31B5A2"/>
<path d="M105.708 137.289C99.8132 139.729 93.1901 139.729 87.2958 137.289V91.2949H105.708V137.289Z" fill="#E2BBA6"/>
<path d="M142.531 149.821L139.462 211.147H121.051L117.982 149.821H142.531Z" fill="#31B5A2"/>
<path d="M130.256 162.085C137.036 162.085 142.531 156.594 142.531 149.82C142.531 143.046 137.036 137.555 130.256 137.555C123.477 137.555 117.982 143.046 117.982 149.82C117.982 156.594 123.477 162.085 130.256 162.085Z" fill="#31B5A2"/>
<path d="M75.0212 149.821L71.9525 211.147H53.5408L50.4722 149.821H75.0212Z" fill="#31B5A2"/>
<path d="M62.7467 162.085C69.5257 162.085 75.0212 156.594 75.0212 149.82C75.0212 143.046 69.5257 137.555 62.7467 137.555C55.9676 137.555 50.4722 143.046 50.4722 149.82C50.4722 156.594 55.9676 162.085 62.7467 162.085Z" fill="#31B5A2"/>
<path d="M91.4128 125.239C76.2615 121.892 67.9506 102.727 71.0448 88.2394C72.528 81.2381 72.4257 81.7363 73.9088 74.7478C76.9775 60.1703 91.6941 50.5243 106.666 53.4884C121.549 56.8613 131.075 71.6432 127.942 86.2208C126.459 93.2221 126.561 92.7238 125.078 99.7123C122.01 114.213 106.628 128.344 91.4128 125.252V125.239Z" fill="#EBCAB5"/>
<path d="M122.495 68.5024C116.754 126.672 118.327 140.049 105.707 147.267C137.493 149.822 140.715 125.279 139.066 76.7174C138.67 64.9506 132.647 50.1176 111.32 45.5821C89.9934 41.0593 80.7748 53.6566 76.6705 63.4686C72.5662 73.2934 71.3516 79.4387 71.3516 79.4387C71.3516 79.4387 118.455 72.003 122.508 68.5024H122.495Z" fill="#2E384C"/>
<path d="M84.8281 86.5033L81.0818 86.3755C80.8772 86.6438 80.7238 86.9376 80.6598 87.2826C80.3913 88.5219 81.1841 89.7484 82.4371 90.0039C83.6773 90.2722 84.9048 89.4801 85.1605 88.228C85.2884 87.602 85.1605 86.9887 84.8408 86.4905L84.8281 86.5033Z" fill="#243357"/>
<path d="M104.173 90.6046C103.674 90.924 103.304 91.435 103.176 92.061C102.907 93.3003 103.7 94.5268 104.953 94.7824C106.193 95.0507 107.421 94.2585 107.676 93.0065C107.753 92.6615 107.74 92.3166 107.664 91.9972L104.186 90.5918L104.173 90.6046Z" fill="#243357"/>
<path d="M92.8832 109.002C92.6274 108.951 92.4612 108.695 92.5124 108.439C92.5507 108.248 92.8065 106.625 90.7479 106.191C88.6894 105.757 88.2547 107.354 88.2163 107.532C88.1652 107.788 87.9094 107.954 87.6537 107.903C87.398 107.852 87.2318 107.596 87.2829 107.341C87.4875 106.395 88.5104 104.747 90.9525 105.258C93.3946 105.782 93.6631 107.698 93.4585 108.644C93.4074 108.899 93.1517 109.066 92.896 109.014L92.8832 109.002Z" fill="#243357"/>
</g>
</g>
<g clip-path="url(#clip0_54_330)">
<path d="M49.7206 63.0001C48.6709 63.0001 47.6521 62.8002 46.781 62.2692C46.227 61.9319 45.3621 61.048 45.8145 58.9116C45.95 58.2681 46.2116 57.531 46.5687 56.7752C44.2017 56.6565 41.6346 56.2473 39.3753 55.6226C34.2073 54.1859 31.1139 51.8246 30.6583 48.9666C30.3259 46.8864 30.7784 44.8375 31.7849 42.9228C28.0389 42.7292 24.4715 42.2513 21.6028 41.4829C17.1427 40.2929 14.6588 38.5126 14.2155 36.1888C13.5876 32.9029 14.3448 29.9888 16.4687 27.5213C21.7567 21.3775 34.1704 19.6753 40.7512 20.0501C41.256 20.0782 41.6407 20.5155 41.613 21.0277C41.5853 21.54 41.1267 21.9304 40.6496 21.9023C33.9488 21.5337 22.4493 23.3984 17.8445 28.7488C16.1116 30.7603 15.496 33.1466 16.01 35.8421C16.2994 37.3632 18.4509 38.7312 22.0676 39.6963C25.1241 40.5116 28.9747 40.9613 32.9453 41.0956C35.6078 37.51 40.1571 34.5989 44.845 33.1872C50.3792 31.5224 54.67 32.4375 56.0428 35.5797C56.5076 36.6416 56.3352 37.7348 55.5565 38.6594C52.9555 41.7578 43.1613 43.2352 33.8626 43.004C32.7206 44.8031 32.1573 46.7396 32.4651 48.673C32.9915 51.9745 39.3507 54.2702 45.359 54.8324C46.1747 54.9074 46.9195 54.948 47.5936 54.9605C48.7541 53.2082 50.2961 51.709 51.7582 51.5309C52.8232 51.3966 53.7343 51.9682 54.2637 53.0833C54.6238 53.8454 54.5438 54.6325 54.039 55.2478C53.2141 56.2535 51.1395 56.7346 48.6032 56.8064C48.1323 57.6403 47.766 58.518 47.5998 59.3051C47.452 60.0079 47.4982 60.5482 47.7198 60.6857C49.8591 61.9913 54.1775 60.2172 55.6581 59.4238C56.1044 59.1864 56.6584 59.3613 56.8923 59.8111C57.1294 60.264 56.957 60.8262 56.5107 61.0636C56.0367 61.3166 52.7586 63.0032 49.7175 63.0032L49.7206 63.0001ZM52.0537 53.3675C52.026 53.3675 51.9983 53.3706 51.9737 53.3738C51.4012 53.4425 50.6593 54.0328 49.9422 54.8699C51.6905 54.6856 52.5677 54.2796 52.6601 54.0203C52.4015 53.4456 52.1953 53.3675 52.0537 53.3675ZM35.2938 41.1362C43.7399 41.1081 52.2137 39.7807 54.1621 37.46C54.4884 37.0727 54.5469 36.7447 54.3684 36.3324C53.2079 33.6744 48.791 33.9368 45.3621 34.9675C41.573 36.1075 37.7932 38.372 35.2938 41.1362Z" fill="#243357"/>
</g>
<defs>
<clipPath id="clip0_54_330">
<rect width="43" height="43" fill="white" transform="translate(14 20)"/>
</clipPath>
</defs>
</svg>
