<svg width="200" height="200" viewBox="0 0 200 200" fill="none" xmlns="http://www.w3.org/2000/svg">
<g clip-path="url(#clip0_54_331)">
<path d="M57.8365 68.4918C57.7858 68.5008 57.7296 68.504 57.6766 68.4998C47.0533 67.7947 44.7484 64.6546 44.6842 62.1427C44.6503 60.8259 45.2617 59.4829 46.2521 58.2651C43.6015 56.9667 41.0611 55.2388 39.2157 53.2923C35.8028 49.6965 35.0675 45.8111 37.1483 42.3521C37.1747 42.3089 37.203 42.2631 37.2334 42.2169C34.7735 41.1474 32.6183 39.7724 31.1849 38.1491C29.0982 35.7902 28.6762 33.1063 29.9611 30.3866C32.549 24.9077 40.0373 24.8239 46.6433 24.7495C50.4397 24.7075 54.0249 24.6666 55.9317 23.5806C56.2517 23.3992 56.6574 23.5084 56.8386 23.825C57.0202 24.1439 56.9102 24.5484 56.5924 24.7294C54.3847 25.989 50.6314 26.0302 46.6581 26.0743C40.4419 26.1428 33.3957 26.2206 31.1588 30.9508C30.1015 33.1862 30.445 35.3132 32.1765 37.2709C33.5552 38.8291 35.6984 40.1497 38.1467 41.1669C41.5076 38.0831 49.9835 35.7424 54.1075 37.0849C56.085 37.7282 57.0737 39.1631 56.89 41.1233C56.7988 42.1067 56.1946 43.4394 53.8426 44.2058C50.1648 45.4024 43.8082 44.7439 38.4924 42.7295C38.4125 42.8298 38.3444 42.9325 38.2825 43.0318C36.0458 46.7518 38.0795 50.1689 40.1791 52.3828C42.0433 54.3463 44.6028 56.0279 47.1941 57.2485C49.1125 55.4219 51.809 54.0485 54.1957 53.7584C56.779 53.4492 58.5279 54.5203 58.9959 56.6955C59.3329 58.2734 58.8307 59.5019 57.582 60.1607C55.4988 61.2509 51.4807 60.569 47.4951 58.8417C46.5674 59.8876 45.9842 61.0308 46.0097 62.1089C46.0791 64.8419 50.3631 66.6884 57.7648 67.1794C58.1302 67.2029 58.4067 67.5185 58.3832 67.8851C58.3609 68.1948 58.1298 68.442 57.8369 68.494L57.8365 68.4918ZM48.5252 57.8343C52.0392 59.2739 55.4081 59.806 56.9626 58.9887C57.4116 58.7527 57.9766 58.2877 57.6956 56.974C57.3773 55.488 56.2523 54.8474 54.3542 55.0734C52.4289 55.2997 50.2019 56.3996 48.5274 57.834L48.5252 57.8343ZM39.5635 41.7104C44.4634 43.4429 50.1748 44.0122 53.4327 42.9467C54.7689 42.5124 55.4887 41.8568 55.5692 41.0045C55.6964 39.6478 55.1009 38.8022 53.695 38.3451C50.0193 37.1471 42.7485 39.2875 39.566 41.7122L39.5635 41.7104Z" fill="#243357"/>
</g>
<mask id="mask0_54_331" style="mask-type:luminance" maskUnits="userSpaceOnUse" x="23" y="30" width="170" height="170">
<path d="M193 30H23V200H193V30Z" fill="white"/>
</mask>
<g mask="url(#mask0_54_331)">
<path d="M93.4286 132.061C93.4286 132.061 97.0715 139.638 108 139.638C118.929 139.638 122.572 132.061 122.572 132.061L116.743 101.752H99.2572L93.4286 132.061Z" fill="#D9AA91"/>
<path d="M71.5715 259.124H144.429L158.514 144.581C158.794 139.93 155.976 135.741 151.836 134.66L115.492 128.953C110.574 127.666 105.45 127.666 100.532 128.953L64.1886 134.66C60.0479 135.741 57.2186 139.942 57.51 144.581L71.5958 259.124H71.5715Z" fill="#F0F0F0"/>
<path d="M110.696 150.008L112.371 145.163L108 139.808L103.629 145.163L105.292 150.008H105.341L103.835 192.557L108 208.124L112.165 192.557L110.659 150.008H110.696Z" fill="#31B5A2"/>
<path d="M73.0285 147.179H49.7142L52.6285 212.751H70.1142L73.0285 147.179Z" fill="#435460"/>
<path d="M61.3714 158.835C67.8094 158.835 73.0285 153.616 73.0285 147.178C73.0285 140.74 67.8094 135.521 61.3714 135.521C54.9333 135.521 49.7142 140.74 49.7142 147.178C49.7142 153.616 54.9333 158.835 61.3714 158.835Z" fill="#435460"/>
<path d="M166.286 147.179H142.971L145.886 212.751H163.371L166.286 147.179Z" fill="#435460"/>
<path d="M154.629 158.835C161.067 158.835 166.286 153.616 166.286 147.178C166.286 140.74 161.067 135.521 154.629 135.521C148.19 135.521 142.971 140.74 142.971 147.178C142.971 153.616 148.19 158.835 154.629 158.835Z" fill="#435460"/>
<path d="M151.884 134.295L123.749 129.875L108.012 206.314L92.3356 130.215L92.2628 129.875L64.0913 134.307C59.7685 135.436 56.8421 139.771 57.1335 144.604L61.6385 251.838L61.5049 259.743H154.519L154.386 251.862L158.878 144.604C159.17 139.771 156.243 135.449 151.884 134.307V134.295Z" fill="#435460"/>
<path d="M134.527 71.9781C139.42 93.145 128.611 113.726 112.147 117.523C95.6835 121.32 79.791 106.917 74.8982 85.7498C70.0054 64.5829 68.8891 46.7565 94.4416 40.8627C119.996 34.9568 129.634 50.8112 134.527 71.9781Z" fill="#747E87"/>
<path d="M108.221 119.928C122.34 116.668 131.13 102.588 127.869 88.4687L123.279 68.5883C120.018 54.469 105.938 45.6793 91.8191 48.9402C77.6998 52.201 68.9101 66.2807 72.1709 80.4L76.761 100.28C80.0219 114.4 94.1015 123.189 108.221 119.928Z" fill="#E2B99F"/>
<path d="M118.044 84.7574C119.128 89.4593 123.825 92.3897 128.527 91.3062C133.229 90.2228 136.159 85.5256 135.076 80.8236C133.992 76.1217 129.295 73.1913 124.593 74.2748C119.891 75.3582 116.961 80.0554 118.044 84.7574Z" fill="#E2B99F"/>
<path d="M88.9477 55.885C91.9608 55.1881 94.8815 54.9325 97.4855 55.053L106.234 53.036C105.151 48.334 96.6357 46.2682 87.2304 48.4472C77.825 50.6261 80.9075 58.8848 80.9075 58.8848C83.2073 57.6329 85.9346 56.5818 88.9477 55.885Z" fill="#67727A"/>
<path d="M70.7049 69.2242C70.4222 72.7256 70.8397 76.3032 70.5344 79.7895C70.2412 83.2774 69.0501 86.8968 66.4183 88.6453C71.586 88.5263 76.5531 86.1178 80.0415 82.0418C83.53 77.9657 85.4735 72.2627 85.387 66.4504C85.3365 63.2619 84.7001 60.0606 84.6737 56.8751C84.6473 53.6896 86.1539 49.4124 87.4655 48.3295C73.1997 49.3566 71.4737 59.64 70.7034 69.2362L70.7049 69.2242Z" fill="#747E87"/>
<path d="M119.042 54.2485C121.596 57.0921 123.528 60.5057 124.644 64.1715C125.406 66.6665 125.423 76.5212 128.826 76.7179C122.711 79.202 115.884 77.0432 109.743 75.179C103.612 73.3283 98.4584 69.2632 95.6375 64.0728C94.088 61.2214 93.2346 58.0906 91.6716 55.2497C90.107 52.4209 86.1931 49.3935 84.1134 49.0944C95.2199 45.0739 107.427 43.7748 116.911 52.1314C117.66 52.789 118.377 53.5037 119.042 54.2485Z" fill="#747E87"/>
<path d="M99.8843 103.26C97.5099 103.841 96.0521 106.277 96.3908 107.764C96.74 109.264 98.9575 110.119 101.347 109.613C103.711 109.018 105.338 107.277 105.001 105.778C104.662 104.291 102.275 102.741 99.8843 103.26Z" fill="#243357"/>
<path d="M86.3547 86.4248L83.0697 87.8217C83.006 88.1319 82.9906 88.4481 83.0716 88.7766C83.3398 89.9486 84.5197 90.685 85.6918 90.4168C86.8639 90.1486 87.6003 88.9686 87.3321 87.7965C87.1987 87.2045 86.8303 86.7296 86.3532 86.4368L86.3547 86.4248Z" fill="#243357"/>
<path d="M104.659 82.1993C104.354 82.6749 104.244 83.2606 104.377 83.8527C104.645 85.0248 105.825 85.7612 106.997 85.4929C108.17 85.2247 108.906 84.0448 108.638 82.8727C108.557 82.5442 108.409 82.2564 108.22 82.0122L104.659 82.1993Z" fill="#243357"/>
</g>
<defs>
<clipPath id="clip0_54_331">
<rect width="29" height="46" fill="white" transform="translate(28 27.0698) rotate(-10.068)"/>
</clipPath>
</defs>
</svg>
