<svg width="366" height="226" viewBox="0 0 366 226" fill="none" xmlns="http://www.w3.org/2000/svg">
<rect width="366" height="226" fill="#EEF6FC"/>
<g filter="url(#filter0_d_66_703)">
<path d="M80.2396 43H79.1596V38.26C79.1596 38.0933 79.1596 37.94 79.1596 37.8C79.1663 37.6533 79.1696 37.5133 79.1696 37.38C79.1763 37.24 79.1829 37.1067 79.1896 36.98C79.1096 37.0667 79.0263 37.1533 78.9396 37.24C78.8529 37.32 78.7563 37.41 78.6496 37.51L77.9296 38.14L77.3596 37.46L79.3096 35.86H80.2396V43ZM86.8102 39.42C86.8102 40 86.7702 40.5167 86.6902 40.97C86.6102 41.4233 86.4769 41.81 86.2902 42.13C86.1102 42.4433 85.8736 42.6833 85.5802 42.85C85.2936 43.0167 84.9402 43.1 84.5202 43.1C84.0069 43.1 83.5802 42.9533 83.2402 42.66C82.9069 42.3667 82.6569 41.9467 82.4902 41.4C82.3302 40.8467 82.2502 40.1867 82.2502 39.42C82.2502 38.6467 82.3236 37.9867 82.4702 37.44C82.6236 36.8933 82.8669 36.4767 83.2002 36.19C83.5336 35.8967 83.9769 35.75 84.5302 35.75C85.0502 35.75 85.4769 35.8967 85.8102 36.19C86.1502 36.4767 86.4002 36.8933 86.5602 37.44C86.7269 37.9867 86.8102 38.6467 86.8102 39.42ZM83.3402 39.42C83.3402 40.04 83.3769 40.5567 83.4502 40.97C83.5302 41.3833 83.6569 41.6933 83.8302 41.9C84.0102 42.1067 84.2436 42.21 84.5302 42.21C84.8236 42.21 85.0536 42.11 85.2202 41.91C85.3936 41.7033 85.5202 41.3933 85.6002 40.98C85.6802 40.56 85.7202 40.04 85.7202 39.42C85.7202 38.8 85.6802 38.2867 85.6002 37.88C85.5202 37.4667 85.3936 37.1567 85.2202 36.95C85.0536 36.7433 84.8236 36.64 84.5302 36.64C84.2436 36.64 84.0102 36.7433 83.8302 36.95C83.6569 37.1567 83.5302 37.4667 83.4502 37.88C83.3769 38.2867 83.3402 38.8 83.3402 39.42ZM87.6409 42.41C87.6409 42.15 87.7042 41.9667 87.8309 41.86C87.9642 41.7533 88.1275 41.7 88.3209 41.7C88.5075 41.7 88.6675 41.7533 88.8009 41.86C88.9409 41.9667 89.0109 42.15 89.0109 42.41C89.0109 42.67 88.9409 42.8567 88.8009 42.97C88.6675 43.0833 88.5075 43.14 88.3209 43.14C88.1275 43.14 87.9642 43.0833 87.8309 42.97C87.7042 42.8567 87.6409 42.67 87.6409 42.41ZM87.6409 38.21C87.6409 37.9367 87.7042 37.7467 87.8309 37.64C87.9642 37.5333 88.1275 37.48 88.3209 37.48C88.5075 37.48 88.6675 37.5333 88.8009 37.64C88.9409 37.7467 89.0109 37.9367 89.0109 38.21C89.0109 38.4633 88.9409 38.6467 88.8009 38.76C88.6675 38.8733 88.5075 38.93 88.3209 38.93C88.1275 38.93 87.9642 38.8733 87.8309 38.76C87.7042 38.6467 87.6409 38.4633 87.6409 38.21ZM94.3887 39.42C94.3887 40 94.3487 40.5167 94.2687 40.97C94.1887 41.4233 94.0554 41.81 93.8687 42.13C93.6887 42.4433 93.4521 42.6833 93.1587 42.85C92.8721 43.0167 92.5187 43.1 92.0987 43.1C91.5854 43.1 91.1587 42.9533 90.8187 42.66C90.4854 42.3667 90.2354 41.9467 90.0687 41.4C89.9087 40.8467 89.8287 40.1867 89.8287 39.42C89.8287 38.6467 89.9021 37.9867 90.0487 37.44C90.2021 36.8933 90.4454 36.4767 90.7787 36.19C91.1121 35.8967 91.5554 35.75 92.1087 35.75C92.6287 35.75 93.0554 35.8967 93.3887 36.19C93.7287 36.4767 93.9787 36.8933 94.1387 37.44C94.3054 37.9867 94.3887 38.6467 94.3887 39.42ZM90.9187 39.42C90.9187 40.04 90.9554 40.5567 91.0287 40.97C91.1087 41.3833 91.2354 41.6933 91.4087 41.9C91.5887 42.1067 91.8221 42.21 92.1087 42.21C92.4021 42.21 92.6321 42.11 92.7987 41.91C92.9721 41.7033 93.0987 41.3933 93.1787 40.98C93.2587 40.56 93.2987 40.04 93.2987 39.42C93.2987 38.8 93.2587 38.2867 93.1787 37.88C93.0987 37.4667 92.9721 37.1567 92.7987 36.95C92.6321 36.7433 92.4021 36.64 92.1087 36.64C91.8221 36.64 91.5887 36.7433 91.4087 36.95C91.2354 37.1567 91.1087 37.4667 91.0287 37.88C90.9554 38.2867 90.9187 38.8 90.9187 39.42ZM99.5794 39.42C99.5794 40 99.5394 40.5167 99.4594 40.97C99.3794 41.4233 99.246 41.81 99.0594 42.13C98.8794 42.4433 98.6427 42.6833 98.3494 42.85C98.0627 43.0167 97.7094 43.1 97.2894 43.1C96.776 43.1 96.3494 42.9533 96.0094 42.66C95.676 42.3667 95.426 41.9467 95.2594 41.4C95.0994 40.8467 95.0194 40.1867 95.0194 39.42C95.0194 38.6467 95.0927 37.9867 95.2394 37.44C95.3927 36.8933 95.636 36.4767 95.9694 36.19C96.3027 35.8967 96.746 35.75 97.2994 35.75C97.8194 35.75 98.246 35.8967 98.5794 36.19C98.9194 36.4767 99.1694 36.8933 99.3294 37.44C99.496 37.9867 99.5794 38.6467 99.5794 39.42ZM96.1094 39.42C96.1094 40.04 96.146 40.5567 96.2194 40.97C96.2994 41.3833 96.426 41.6933 96.5994 41.9C96.7794 42.1067 97.0127 42.21 97.2994 42.21C97.5927 42.21 97.8227 42.11 97.9894 41.91C98.1627 41.7033 98.2894 41.3933 98.3694 40.98C98.4494 40.56 98.4894 40.04 98.4894 39.42C98.4894 38.8 98.4494 38.2867 98.3694 37.88C98.2894 37.4667 98.1627 37.1567 97.9894 36.95C97.8227 36.7433 97.5927 36.64 97.2994 36.64C97.0127 36.64 96.7794 36.7433 96.5994 36.95C96.426 37.1567 96.2994 37.4667 96.2194 37.88C96.146 38.2867 96.1094 38.8 96.1094 39.42Z" fill="#A5AFB6"/>
<path d="M80.2396 117H79.1596V112.26C79.1596 112.093 79.1596 111.94 79.1596 111.8C79.1663 111.653 79.1696 111.513 79.1696 111.38C79.1763 111.24 79.1829 111.107 79.1896 110.98C79.1096 111.067 79.0263 111.153 78.9396 111.24C78.8529 111.32 78.7563 111.41 78.6496 111.51L77.9296 112.14L77.3596 111.46L79.3096 109.86H80.2396V117ZM84.5402 112.57C84.9736 112.57 85.3536 112.653 85.6802 112.82C86.0136 112.987 86.2736 113.227 86.4602 113.54C86.6469 113.853 86.7402 114.237 86.7402 114.69C86.7402 115.19 86.6402 115.62 86.4402 115.98C86.2402 116.34 85.9469 116.617 85.5602 116.81C85.1802 117.003 84.7136 117.1 84.1602 117.1C83.8069 117.1 83.4769 117.067 83.1702 117C82.8636 116.933 82.6002 116.837 82.3802 116.71V115.74C82.6069 115.88 82.8836 115.993 83.2102 116.08C83.5369 116.167 83.8436 116.21 84.1302 116.21C84.4369 116.21 84.7002 116.16 84.9202 116.06C85.1469 115.953 85.3202 115.797 85.4402 115.59C85.5669 115.377 85.6302 115.11 85.6302 114.79C85.6302 114.357 85.5069 114.027 85.2602 113.8C85.0136 113.567 84.6269 113.45 84.1002 113.45C83.9202 113.45 83.7269 113.467 83.5202 113.5C83.3136 113.533 83.1436 113.567 83.0102 113.6L82.5302 113.31L82.7802 109.86H86.2702V110.8H83.7202L83.5802 112.67C83.6869 112.65 83.8169 112.63 83.9702 112.61C84.1302 112.583 84.3202 112.57 84.5402 112.57ZM87.6409 116.41C87.6409 116.15 87.7042 115.967 87.8309 115.86C87.9642 115.753 88.1275 115.7 88.3209 115.7C88.5075 115.7 88.6675 115.753 88.8009 115.86C88.9409 115.967 89.0109 116.15 89.0109 116.41C89.0109 116.67 88.9409 116.857 88.8009 116.97C88.6675 117.083 88.5075 117.14 88.3209 117.14C88.1275 117.14 87.9642 117.083 87.8309 116.97C87.7042 116.857 87.6409 116.67 87.6409 116.41ZM87.6409 112.21C87.6409 111.937 87.7042 111.747 87.8309 111.64C87.9642 111.533 88.1275 111.48 88.3209 111.48C88.5075 111.48 88.6675 111.533 88.8009 111.64C88.9409 111.747 89.0109 111.937 89.0109 112.21C89.0109 112.463 88.9409 112.647 88.8009 112.76C88.6675 112.873 88.5075 112.93 88.3209 112.93C88.1275 112.93 87.9642 112.873 87.8309 112.76C87.7042 112.647 87.6409 112.463 87.6409 112.21ZM94.3887 113.42C94.3887 114 94.3487 114.517 94.2687 114.97C94.1887 115.423 94.0554 115.81 93.8687 116.13C93.6887 116.443 93.4521 116.683 93.1587 116.85C92.8721 117.017 92.5187 117.1 92.0987 117.1C91.5854 117.1 91.1587 116.953 90.8187 116.66C90.4854 116.367 90.2354 115.947 90.0687 115.4C89.9087 114.847 89.8287 114.187 89.8287 113.42C89.8287 112.647 89.9021 111.987 90.0487 111.44C90.2021 110.893 90.4454 110.477 90.7787 110.19C91.1121 109.897 91.5554 109.75 92.1087 109.75C92.6287 109.75 93.0554 109.897 93.3887 110.19C93.7287 110.477 93.9787 110.893 94.1387 111.44C94.3054 111.987 94.3887 112.647 94.3887 113.42ZM90.9187 113.42C90.9187 114.04 90.9554 114.557 91.0287 114.97C91.1087 115.383 91.2354 115.693 91.4087 115.9C91.5887 116.107 91.8221 116.21 92.1087 116.21C92.4021 116.21 92.6321 116.11 92.7987 115.91C92.9721 115.703 93.0987 115.393 93.1787 114.98C93.2587 114.56 93.2987 114.04 93.2987 113.42C93.2987 112.8 93.2587 112.287 93.1787 111.88C93.0987 111.467 92.9721 111.157 92.7987 110.95C92.6321 110.743 92.4021 110.64 92.1087 110.64C91.8221 110.64 91.5887 110.743 91.4087 110.95C91.2354 111.157 91.1087 111.467 91.0287 111.88C90.9554 112.287 90.9187 112.8 90.9187 113.42ZM99.5794 113.42C99.5794 114 99.5394 114.517 99.4594 114.97C99.3794 115.423 99.246 115.81 99.0594 116.13C98.8794 116.443 98.6427 116.683 98.3494 116.85C98.0627 117.017 97.7094 117.1 97.2894 117.1C96.776 117.1 96.3494 116.953 96.0094 116.66C95.676 116.367 95.426 115.947 95.2594 115.4C95.0994 114.847 95.0194 114.187 95.0194 113.42C95.0194 112.647 95.0927 111.987 95.2394 111.44C95.3927 110.893 95.636 110.477 95.9694 110.19C96.3027 109.897 96.746 109.75 97.2994 109.75C97.8194 109.75 98.246 109.897 98.5794 110.19C98.9194 110.477 99.1694 110.893 99.3294 111.44C99.496 111.987 99.5794 112.647 99.5794 113.42ZM96.1094 113.42C96.1094 114.04 96.146 114.557 96.2194 114.97C96.2994 115.383 96.426 115.693 96.5994 115.9C96.7794 116.107 97.0127 116.21 97.2994 116.21C97.5927 116.21 97.8227 116.11 97.9894 115.91C98.1627 115.703 98.2894 115.393 98.3694 114.98C98.4494 114.56 98.4894 114.04 98.4894 113.42C98.4894 112.8 98.4494 112.287 98.3694 111.88C98.2894 111.467 98.1627 111.157 97.9894 110.95C97.8227 110.743 97.5927 110.64 97.2994 110.64C97.0127 110.64 96.7794 110.743 96.5994 110.95C96.426 111.157 96.2994 111.467 96.2194 111.88C96.146 112.287 96.1094 112.8 96.1094 113.42Z" fill="#A5AFB6"/>
<path d="M80.2396 192H79.1596V187.26C79.1596 187.093 79.1596 186.94 79.1596 186.8C79.1663 186.653 79.1696 186.513 79.1696 186.38C79.1763 186.24 79.1829 186.107 79.1896 185.98C79.1096 186.067 79.0263 186.153 78.9396 186.24C78.8529 186.32 78.7563 186.41 78.6496 186.51L77.9296 187.14L77.3596 186.46L79.3096 184.86H80.2396V192ZM86.8002 187.91C86.8002 188.323 86.7702 188.733 86.7102 189.14C86.6569 189.547 86.5602 189.93 86.4202 190.29C86.2802 190.643 86.0902 190.957 85.8502 191.23C85.6102 191.503 85.3036 191.717 84.9302 191.87C84.5636 192.023 84.1202 192.1 83.6002 192.1C83.4736 192.1 83.3236 192.093 83.1502 192.08C82.9769 192.067 82.8369 192.043 82.7302 192.01V191.12C82.8436 191.16 82.9702 191.19 83.1102 191.21C83.2569 191.23 83.4002 191.24 83.5402 191.24C83.9669 191.24 84.3202 191.173 84.6002 191.04C84.8802 190.9 85.1036 190.707 85.2702 190.46C85.4369 190.213 85.5536 189.927 85.6202 189.6C85.6936 189.273 85.7369 188.927 85.7502 188.56H85.7002C85.6069 188.713 85.4936 188.853 85.3602 188.98C85.2269 189.107 85.0602 189.207 84.8602 189.28C84.6669 189.353 84.4302 189.39 84.1502 189.39C83.7702 189.39 83.4369 189.303 83.1502 189.13C82.8636 188.957 82.6436 188.71 82.4902 188.39C82.3369 188.063 82.2602 187.667 82.2602 187.2C82.2602 186.693 82.3469 186.26 82.5202 185.9C82.7002 185.533 82.9536 185.253 83.2802 185.06C83.6136 184.86 84.0036 184.76 84.4502 184.76C84.7836 184.76 85.0902 184.827 85.3702 184.96C85.6569 185.087 85.9069 185.28 86.1202 185.54C86.3402 185.8 86.5069 186.127 86.6202 186.52C86.7402 186.913 86.8002 187.377 86.8002 187.91ZM84.4702 185.64C84.1302 185.64 83.8536 185.767 83.6402 186.02C83.4269 186.273 83.3202 186.66 83.3202 187.18C83.3202 187.607 83.4102 187.943 83.5902 188.19C83.7769 188.43 84.0569 188.55 84.4302 188.55C84.6902 188.55 84.9169 188.49 85.1102 188.37C85.3036 188.25 85.4502 188.1 85.5502 187.92C85.6569 187.733 85.7102 187.54 85.7102 187.34C85.7102 187.133 85.6836 186.93 85.6302 186.73C85.5769 186.53 85.5002 186.347 85.4002 186.18C85.3002 186.013 85.1702 185.883 85.0102 185.79C84.8569 185.69 84.6769 185.64 84.4702 185.64ZM87.6409 191.41C87.6409 191.15 87.7042 190.967 87.8309 190.86C87.9642 190.753 88.1275 190.7 88.3209 190.7C88.5075 190.7 88.6675 190.753 88.8009 190.86C88.9409 190.967 89.0109 191.15 89.0109 191.41C89.0109 191.67 88.9409 191.857 88.8009 191.97C88.6675 192.083 88.5075 192.14 88.3209 192.14C88.1275 192.14 87.9642 192.083 87.8309 191.97C87.7042 191.857 87.6409 191.67 87.6409 191.41ZM87.6409 187.21C87.6409 186.937 87.7042 186.747 87.8309 186.64C87.9642 186.533 88.1275 186.48 88.3209 186.48C88.5075 186.48 88.6675 186.533 88.8009 186.64C88.9409 186.747 89.0109 186.937 89.0109 187.21C89.0109 187.463 88.9409 187.647 88.8009 187.76C88.6675 187.873 88.5075 187.93 88.3209 187.93C88.1275 187.93 87.9642 187.873 87.8309 187.76C87.7042 187.647 87.6409 187.463 87.6409 187.21ZM94.3887 188.42C94.3887 189 94.3487 189.517 94.2687 189.97C94.1887 190.423 94.0554 190.81 93.8687 191.13C93.6887 191.443 93.4521 191.683 93.1587 191.85C92.8721 192.017 92.5187 192.1 92.0987 192.1C91.5854 192.1 91.1587 191.953 90.8187 191.66C90.4854 191.367 90.2354 190.947 90.0687 190.4C89.9087 189.847 89.8287 189.187 89.8287 188.42C89.8287 187.647 89.9021 186.987 90.0487 186.44C90.2021 185.893 90.4454 185.477 90.7787 185.19C91.1121 184.897 91.5554 184.75 92.1087 184.75C92.6287 184.75 93.0554 184.897 93.3887 185.19C93.7287 185.477 93.9787 185.893 94.1387 186.44C94.3054 186.987 94.3887 187.647 94.3887 188.42ZM90.9187 188.42C90.9187 189.04 90.9554 189.557 91.0287 189.97C91.1087 190.383 91.2354 190.693 91.4087 190.9C91.5887 191.107 91.8221 191.21 92.1087 191.21C92.4021 191.21 92.6321 191.11 92.7987 190.91C92.9721 190.703 93.0987 190.393 93.1787 189.98C93.2587 189.56 93.2987 189.04 93.2987 188.42C93.2987 187.8 93.2587 187.287 93.1787 186.88C93.0987 186.467 92.9721 186.157 92.7987 185.95C92.6321 185.743 92.4021 185.64 92.1087 185.64C91.8221 185.64 91.5887 185.743 91.4087 185.95C91.2354 186.157 91.1087 186.467 91.0287 186.88C90.9554 187.287 90.9187 187.8 90.9187 188.42ZM99.5794 188.42C99.5794 189 99.5394 189.517 99.4594 189.97C99.3794 190.423 99.246 190.81 99.0594 191.13C98.8794 191.443 98.6427 191.683 98.3494 191.85C98.0627 192.017 97.7094 192.1 97.2894 192.1C96.776 192.1 96.3494 191.953 96.0094 191.66C95.676 191.367 95.426 190.947 95.2594 190.4C95.0994 189.847 95.0194 189.187 95.0194 188.42C95.0194 187.647 95.0927 186.987 95.2394 186.44C95.3927 185.893 95.636 185.477 95.9694 185.19C96.3027 184.897 96.746 184.75 97.2994 184.75C97.8194 184.75 98.246 184.897 98.5794 185.19C98.9194 185.477 99.1694 185.893 99.3294 186.44C99.496 186.987 99.5794 187.647 99.5794 188.42ZM96.1094 188.42C96.1094 189.04 96.146 189.557 96.2194 189.97C96.2994 190.383 96.426 190.693 96.5994 190.9C96.7794 191.107 97.0127 191.21 97.2994 191.21C97.5927 191.21 97.8227 191.11 97.9894 190.91C98.1627 190.703 98.2894 190.393 98.3694 189.98C98.4494 189.56 98.4894 189.04 98.4894 188.42C98.4894 187.8 98.4494 187.287 98.3694 186.88C98.2894 186.467 98.1627 186.157 97.9894 185.95C97.8227 185.743 97.5927 185.64 97.2994 185.64C97.0127 185.64 96.7794 185.743 96.5994 185.95C96.426 186.157 96.2994 186.467 96.2194 186.88C96.146 187.287 96.1094 187.8 96.1094 188.42Z" fill="#A5AFB6"/>
<path d="M108 33.5H260C261.933 33.5 263.5 35.067 263.5 37V65.5H104.5V37L104.505 36.8203C104.598 34.9708 106.127 33.5 108 33.5Z" fill="white" stroke="#31B5A2"/>
<rect x="104.5" y="65.5" width="159" height="32" fill="white" stroke="#31B5A2"/>
<rect x="104.5" y="97.5" width="159" height="32" fill="#31B5A2" stroke="#31B5A2"/>
<rect x="104.5" y="129.5" width="159" height="32" fill="white" stroke="#31B5A2"/>
<path d="M263.5 161.5V190C263.5 191.933 261.933 193.5 260 193.5H108C106.067 193.5 104.5 191.933 104.5 190V161.5H263.5Z" fill="white" stroke="#31B5A2"/>
<path d="M112.462 107.138H122.582V108.282H112.462V107.138ZM127.587 102.749L128.665 102.947C128.518 103.585 128.342 104.208 128.137 104.817C127.932 105.418 127.697 105.976 127.433 106.489C127.176 107.002 126.901 107.453 126.608 107.842C126.535 107.783 126.436 107.717 126.311 107.644C126.194 107.571 126.069 107.501 125.937 107.435C125.812 107.369 125.702 107.314 125.607 107.27C125.922 106.918 126.205 106.504 126.454 106.027C126.711 105.55 126.934 105.03 127.125 104.465C127.316 103.9 127.47 103.328 127.587 102.749ZM129.49 105.62H130.029V106.973C130.029 107.186 130.058 107.457 130.117 107.787C130.176 108.11 130.278 108.462 130.425 108.843C130.572 109.224 130.773 109.609 131.03 109.998C131.287 110.379 131.617 110.742 132.02 111.087C132.431 111.432 132.922 111.732 133.494 111.989C133.428 112.062 133.351 112.158 133.263 112.275C133.182 112.392 133.102 112.506 133.021 112.616C132.94 112.733 132.874 112.836 132.823 112.924C132.383 112.726 131.994 112.488 131.657 112.209C131.32 111.938 131.023 111.644 130.766 111.329C130.509 111.014 130.289 110.702 130.106 110.394C129.93 110.079 129.791 109.782 129.688 109.503C129.593 109.224 129.523 108.986 129.479 108.788C129.442 108.993 129.365 109.232 129.248 109.503C129.131 109.774 128.973 110.068 128.775 110.383C128.584 110.691 128.346 110.999 128.06 111.307C127.774 111.615 127.437 111.908 127.048 112.187C126.667 112.466 126.23 112.711 125.739 112.924C125.695 112.843 125.633 112.748 125.552 112.638C125.479 112.528 125.402 112.418 125.321 112.308C125.24 112.205 125.167 112.121 125.101 112.055C125.739 111.806 126.282 111.509 126.729 111.164C127.176 110.812 127.543 110.442 127.829 110.053C128.122 109.664 128.346 109.279 128.5 108.898C128.661 108.509 128.775 108.15 128.841 107.82C128.907 107.483 128.94 107.204 128.94 106.984V105.62H129.49ZM123.143 110.482C123.356 110.277 123.601 110.035 123.88 109.756C124.159 109.477 124.452 109.177 124.76 108.854C125.075 108.531 125.387 108.205 125.695 107.875L126.278 108.777C125.882 109.217 125.468 109.664 125.035 110.119C124.602 110.574 124.199 110.984 123.825 111.351L123.143 110.482ZM123.484 104.19L124.221 103.42C124.456 103.574 124.698 103.746 124.947 103.937C125.204 104.12 125.446 104.307 125.673 104.498C125.9 104.681 126.084 104.854 126.223 105.015L125.442 105.873C125.31 105.712 125.134 105.532 124.914 105.334C124.694 105.129 124.459 104.927 124.21 104.729C123.961 104.524 123.719 104.344 123.484 104.19ZM127.796 104.663H132.559V105.697H127.301L127.796 104.663ZM132.207 104.663H132.361L132.57 104.608L133.329 105.037C133.234 105.396 133.113 105.759 132.966 106.126C132.827 106.485 132.68 106.826 132.526 107.149C132.379 107.472 132.236 107.761 132.097 108.018C132.024 107.981 131.932 107.937 131.822 107.886C131.719 107.827 131.613 107.772 131.503 107.721C131.393 107.662 131.298 107.618 131.217 107.589C131.334 107.362 131.459 107.094 131.591 106.786C131.723 106.478 131.844 106.159 131.954 105.829C132.071 105.499 132.156 105.191 132.207 104.905V104.663ZM137.487 107.589H140.435V108.414H137.487V107.589ZM137.487 109.481H140.446V110.306H137.487V109.481ZM135.287 111.395H142.91V112.352H135.287V111.395ZM134.638 105.598H143.471V112.924H142.415V106.566H135.65V112.924H134.638V105.598ZM137.025 106.225H137.971V111.835H137.025V106.225ZM140.017 106.225H140.963V111.802H140.017V106.225ZM138.378 103.86L139.599 104.124C139.482 104.505 139.361 104.894 139.236 105.29C139.119 105.686 139.005 106.023 138.895 106.302L137.949 106.049C138.008 105.844 138.066 105.613 138.125 105.356C138.184 105.099 138.235 104.839 138.279 104.575C138.323 104.311 138.356 104.073 138.378 103.86ZM134.165 103.398H143.999V104.388H134.165V103.398ZM150.984 102.705H152.04V104.201H150.984V102.705ZM148.443 103.827H154.625V104.718H148.443V103.827ZM148.047 106.379H154.922V107.27H148.047V106.379ZM149.466 104.795L150.357 104.619C150.43 104.802 150.5 105 150.566 105.213C150.632 105.418 150.687 105.62 150.731 105.818C150.775 106.009 150.801 106.181 150.808 106.335L149.873 106.555C149.866 106.401 149.84 106.221 149.796 106.016C149.759 105.811 149.712 105.602 149.653 105.389C149.602 105.176 149.539 104.978 149.466 104.795ZM152.656 104.608L153.668 104.729C153.558 105.044 153.441 105.363 153.316 105.686C153.199 106.009 153.089 106.287 152.986 106.522L152.095 106.39C152.161 106.221 152.231 106.034 152.304 105.829C152.377 105.616 152.443 105.404 152.502 105.191C152.568 104.971 152.619 104.777 152.656 104.608ZM148.113 108.227H154.889V109.118H148.113V108.227ZM150.533 107.05L151.567 107.248C151.376 107.673 151.167 108.124 150.94 108.601C150.72 109.07 150.496 109.525 150.269 109.965C150.049 110.405 149.844 110.797 149.653 111.142L148.751 110.834C148.934 110.504 149.132 110.123 149.345 109.69C149.558 109.257 149.767 108.81 149.972 108.348C150.185 107.879 150.372 107.446 150.533 107.05ZM149.4 110.757L150.016 110.064C150.419 110.181 150.837 110.321 151.27 110.482C151.71 110.636 152.143 110.808 152.568 110.999C152.993 111.19 153.393 111.384 153.767 111.582C154.141 111.773 154.46 111.96 154.724 112.143L154.064 112.935C153.815 112.752 153.51 112.557 153.151 112.352C152.792 112.154 152.399 111.96 151.974 111.769C151.549 111.571 151.116 111.384 150.676 111.208C150.236 111.032 149.811 110.882 149.4 110.757ZM152.656 108.843L153.657 108.964C153.518 109.595 153.316 110.137 153.052 110.592C152.788 111.039 152.44 111.417 152.007 111.725C151.582 112.033 151.054 112.282 150.423 112.473C149.8 112.664 149.059 112.818 148.201 112.935C148.172 112.788 148.117 112.634 148.036 112.473C147.963 112.312 147.886 112.18 147.805 112.077C148.582 112.004 149.25 111.894 149.807 111.747C150.372 111.6 150.841 111.402 151.215 111.153C151.596 110.896 151.901 110.581 152.128 110.207C152.363 109.826 152.539 109.371 152.656 108.843ZM144.604 108.469C145.059 108.366 145.605 108.231 146.243 108.062C146.881 107.886 147.523 107.706 148.168 107.523L148.3 108.458C147.699 108.634 147.094 108.814 146.485 108.997C145.884 109.173 145.334 109.334 144.835 109.481L144.604 108.469ZM144.813 104.872H148.19V105.84H144.813V104.872ZM146.221 102.727H147.211V111.714C147.211 111.985 147.182 112.198 147.123 112.352C147.064 112.513 146.954 112.634 146.793 112.715C146.632 112.803 146.426 112.858 146.177 112.88C145.935 112.909 145.627 112.92 145.253 112.913C145.238 112.781 145.202 112.616 145.143 112.418C145.084 112.22 145.022 112.051 144.956 111.912C145.191 111.919 145.407 111.923 145.605 111.923C145.81 111.923 145.946 111.923 146.012 111.923C146.085 111.923 146.137 111.908 146.166 111.879C146.203 111.842 146.221 111.787 146.221 111.714V102.727ZM158.035 112.671C157.808 112.392 157.555 112.106 157.276 111.813C157.005 111.52 156.726 111.237 156.44 110.966C156.161 110.695 155.894 110.453 155.637 110.24L156.539 109.448C156.803 109.661 157.082 109.91 157.375 110.196C157.668 110.475 157.954 110.764 158.233 111.065C158.519 111.358 158.765 111.63 158.97 111.879L158.035 112.671ZM167.473 111.098H175.349V112.143H167.473V111.098ZM167.484 107.237H175.371V108.271H167.484V107.237ZM166.89 103.464H175.943V112.825H174.865V104.465H167.924V112.825H166.89V103.464ZM170.806 103.937H171.862V111.637H170.806V103.937ZM177.703 104.652H186.657V109.987H185.579V105.675H178.737V110.042H177.703V104.652ZM178.242 108.359H186.195V109.382H178.242V108.359ZM181.608 102.716H182.697V112.913H181.608V102.716ZM188.109 105.565H197.888V106.632H188.109V105.565ZM191.618 110.515L192.509 109.888C192.751 110.093 193.008 110.321 193.279 110.57C193.558 110.819 193.818 111.069 194.06 111.318C194.302 111.56 194.496 111.78 194.643 111.978L193.697 112.715C193.558 112.51 193.371 112.279 193.136 112.022C192.909 111.765 192.659 111.505 192.388 111.241C192.124 110.977 191.867 110.735 191.618 110.515ZM193.719 106.06C193.946 106.947 194.262 107.78 194.665 108.557C195.068 109.327 195.56 110.005 196.139 110.592C196.726 111.179 197.404 111.641 198.174 111.978C198.093 112.044 198.002 112.132 197.899 112.242C197.796 112.359 197.701 112.477 197.613 112.594C197.525 112.719 197.452 112.832 197.393 112.935C196.579 112.539 195.871 112.018 195.27 111.373C194.676 110.72 194.17 109.969 193.752 109.118C193.334 108.26 192.989 107.321 192.718 106.302L193.719 106.06ZM192.278 102.716H193.411C193.404 103.251 193.389 103.82 193.367 104.421C193.345 105.022 193.29 105.642 193.202 106.28C193.114 106.911 192.971 107.541 192.773 108.172C192.575 108.803 192.3 109.411 191.948 109.998C191.596 110.585 191.145 111.127 190.595 111.626C190.045 112.125 189.374 112.557 188.582 112.924C188.501 112.785 188.388 112.631 188.241 112.462C188.094 112.301 187.944 112.165 187.79 112.055C188.56 111.718 189.205 111.322 189.726 110.867C190.247 110.412 190.668 109.917 190.991 109.382C191.321 108.847 191.574 108.289 191.75 107.71C191.926 107.131 192.051 106.551 192.124 105.972C192.197 105.385 192.238 104.817 192.245 104.267C192.26 103.71 192.271 103.193 192.278 102.716ZM199.846 106.005H203.124V106.841H199.846V106.005ZM199.351 104.047H200.319V111.428L199.351 111.56V104.047ZM201.034 102.771H202.035V104.685H201.034V102.771ZM198.614 111.362C198.966 111.289 199.373 111.201 199.835 111.098C200.297 110.988 200.785 110.871 201.298 110.746C201.819 110.621 202.336 110.497 202.849 110.372L202.948 111.373C202.237 111.571 201.522 111.762 200.803 111.945C200.084 112.128 199.443 112.293 198.878 112.44L198.614 111.362ZM201.54 109.448L202.398 109.041C202.618 109.342 202.838 109.664 203.058 110.009C203.285 110.354 203.491 110.695 203.674 111.032C203.857 111.369 203.997 111.67 204.092 111.934L203.168 112.407C203.08 112.143 202.948 111.842 202.772 111.505C202.596 111.16 202.402 110.808 202.189 110.449C201.976 110.09 201.76 109.756 201.54 109.448ZM199.813 104.047H203.674V108.81H199.813V107.842H202.706V105.015H199.813V104.047ZM204.466 103.398H207.909V104.388H205.478V112.957H204.466V103.398ZM207.645 103.398H207.865L208.019 103.365L208.811 103.86C208.584 104.388 208.331 104.945 208.052 105.532C207.781 106.111 207.517 106.643 207.26 107.127C207.634 107.457 207.92 107.776 208.118 108.084C208.323 108.385 208.463 108.674 208.536 108.953C208.609 109.232 208.646 109.496 208.646 109.745C208.646 110.119 208.595 110.434 208.492 110.691C208.397 110.948 208.239 111.149 208.019 111.296C207.916 111.362 207.799 111.417 207.667 111.461C207.535 111.505 207.392 111.538 207.238 111.56C207.099 111.575 206.937 111.586 206.754 111.593C206.578 111.593 206.406 111.586 206.237 111.571C206.23 111.424 206.197 111.252 206.138 111.054C206.087 110.849 206.017 110.669 205.929 110.515C206.098 110.537 206.252 110.548 206.391 110.548C206.538 110.548 206.666 110.548 206.776 110.548C206.871 110.541 206.959 110.53 207.04 110.515C207.128 110.493 207.209 110.464 207.282 110.427C207.399 110.361 207.48 110.262 207.524 110.13C207.575 109.991 207.597 109.826 207.59 109.635C207.59 109.305 207.491 108.942 207.293 108.546C207.095 108.15 206.714 107.725 206.149 107.27C206.288 106.999 206.428 106.705 206.567 106.39C206.714 106.067 206.853 105.745 206.985 105.422C207.124 105.099 207.249 104.795 207.359 104.509C207.476 104.223 207.572 103.974 207.645 103.761V103.398ZM215.853 104.036H221.87V104.872H215.853V104.036ZM216.161 105.499H221.628V106.302H216.161V105.499ZM215.622 106.973H222.035V107.842H215.622V106.973ZM220.187 102.694L221.221 102.969C221.074 103.211 220.927 103.453 220.781 103.695C220.641 103.93 220.517 104.128 220.407 104.289L219.593 104.047C219.695 103.856 219.802 103.633 219.912 103.376C220.029 103.119 220.121 102.892 220.187 102.694ZM216.623 103.024L217.448 102.738C217.58 102.936 217.704 103.152 217.822 103.387C217.946 103.622 218.038 103.823 218.097 103.992L217.217 104.322C217.173 104.146 217.092 103.937 216.975 103.695C216.865 103.446 216.747 103.222 216.623 103.024ZM221.155 108.161L221.947 108.722C221.712 108.986 221.455 109.246 221.177 109.503C220.905 109.76 220.66 109.983 220.44 110.174L219.758 109.668C219.904 109.536 220.062 109.386 220.231 109.217C220.407 109.041 220.575 108.861 220.737 108.678C220.898 108.487 221.037 108.315 221.155 108.161ZM215.919 108.667L216.634 108.205C216.846 108.41 217.059 108.645 217.272 108.909C217.484 109.166 217.646 109.397 217.756 109.602L217.008 110.119C216.905 109.921 216.751 109.686 216.546 109.415C216.34 109.136 216.131 108.887 215.919 108.667ZM215.193 111.417C215.537 111.256 215.948 111.05 216.425 110.801C216.901 110.552 217.385 110.295 217.877 110.031L218.141 110.878C217.723 111.12 217.297 111.366 216.865 111.615C216.439 111.864 216.04 112.088 215.666 112.286L215.193 111.417ZM218.339 104.608H219.34V111.835C219.34 112.092 219.31 112.29 219.252 112.429C219.193 112.576 219.087 112.689 218.933 112.77C218.764 112.851 218.551 112.898 218.295 112.913C218.045 112.935 217.752 112.946 217.415 112.946C217.4 112.814 217.363 112.653 217.305 112.462C217.253 112.279 217.195 112.125 217.129 112C217.341 112.007 217.547 112.011 217.745 112.011C217.95 112.018 218.086 112.018 218.152 112.011C218.225 112.011 218.273 111.996 218.295 111.967C218.324 111.938 218.339 111.894 218.339 111.835V104.608ZM219.285 108.117C219.453 108.638 219.677 109.125 219.956 109.58C220.234 110.035 220.564 110.434 220.946 110.779C221.334 111.124 221.767 111.399 222.244 111.604C222.178 111.663 222.101 111.743 222.013 111.846C221.932 111.941 221.851 112.04 221.771 112.143C221.697 112.253 221.635 112.352 221.584 112.44C221.1 112.183 220.663 111.85 220.275 111.439C219.893 111.021 219.56 110.544 219.274 110.009C218.995 109.474 218.764 108.898 218.581 108.282L219.285 108.117ZM212.025 105.059H215.622V106.027H212.025V105.059ZM213.477 102.716H214.423V112.913H213.477V102.716ZM213.455 105.675L214.06 105.884C213.979 106.317 213.876 106.768 213.752 107.237C213.627 107.706 213.488 108.168 213.334 108.623C213.18 109.078 213.011 109.499 212.828 109.888C212.652 110.277 212.468 110.61 212.278 110.889C212.226 110.75 212.149 110.592 212.047 110.416C211.951 110.24 211.863 110.093 211.783 109.976C211.959 109.734 212.131 109.444 212.3 109.107C212.476 108.77 212.637 108.41 212.784 108.029C212.93 107.64 213.059 107.244 213.169 106.841C213.286 106.438 213.381 106.049 213.455 105.675ZM214.368 106.555C214.434 106.628 214.529 106.76 214.654 106.951C214.778 107.134 214.914 107.336 215.061 107.556C215.215 107.776 215.354 107.981 215.479 108.172C215.603 108.355 215.688 108.487 215.732 108.568L215.182 109.327C215.116 109.18 215.028 109.001 214.918 108.788C214.808 108.568 214.687 108.344 214.555 108.117C214.43 107.882 214.309 107.662 214.192 107.457C214.082 107.252 213.99 107.09 213.917 106.973L214.368 106.555Z" fill="white"/>
<path d="M112.776 123.768C113.245 123.752 113.789 123.736 114.408 123.72C115.032 123.699 115.693 123.675 116.392 123.648C117.091 123.621 117.787 123.592 118.48 123.56L118.464 124.112C117.792 124.144 117.115 124.176 116.432 124.208C115.749 124.24 115.101 124.267 114.488 124.288C113.875 124.315 113.331 124.339 112.856 124.36L112.776 123.768ZM112.712 121.296H119.344V121.864H112.712V121.296ZM114.08 119.76H117.896V120.32H114.08V119.76ZM114.904 121.656L115.576 121.848C115.453 122.099 115.32 122.365 115.176 122.648C115.037 122.925 114.896 123.195 114.752 123.456C114.613 123.717 114.477 123.949 114.344 124.152L113.816 123.968C113.944 123.76 114.075 123.52 114.208 123.248C114.347 122.976 114.477 122.701 114.6 122.424C114.723 122.141 114.824 121.885 114.904 121.656ZM116.8 122.504L117.312 122.224C117.563 122.432 117.808 122.661 118.048 122.912C118.293 123.163 118.517 123.411 118.72 123.656C118.923 123.901 119.085 124.125 119.208 124.328L118.672 124.664C118.549 124.461 118.387 124.235 118.184 123.984C117.981 123.728 117.76 123.469 117.52 123.208C117.285 122.947 117.045 122.712 116.8 122.504ZM115.968 117.872C115.755 118.192 115.472 118.523 115.12 118.864C114.773 119.2 114.387 119.52 113.96 119.824C113.539 120.128 113.101 120.395 112.648 120.624C112.621 120.571 112.587 120.515 112.544 120.456C112.507 120.397 112.464 120.339 112.416 120.28C112.373 120.221 112.331 120.171 112.288 120.128C112.752 119.909 113.197 119.645 113.624 119.336C114.056 119.021 114.445 118.688 114.792 118.336C115.144 117.979 115.421 117.629 115.624 117.288H116.248C116.461 117.587 116.704 117.875 116.976 118.152C117.248 118.424 117.539 118.68 117.848 118.92C118.157 119.16 118.472 119.376 118.792 119.568C119.117 119.755 119.44 119.912 119.76 120.04C119.691 120.115 119.621 120.203 119.552 120.304C119.488 120.4 119.427 120.491 119.368 120.576C118.957 120.379 118.536 120.136 118.104 119.848C117.677 119.555 117.277 119.237 116.904 118.896C116.531 118.555 116.219 118.213 115.968 117.872ZM124.808 118.192H125.392V120.2H124.808V118.192ZM123.848 120.992H124.384V124.088C124.384 124.221 124.365 124.323 124.328 124.392C124.291 124.467 124.224 124.523 124.128 124.56C124.032 124.597 123.904 124.619 123.744 124.624C123.584 124.635 123.387 124.64 123.152 124.64C123.141 124.576 123.12 124.501 123.088 124.416C123.056 124.331 123.021 124.253 122.984 124.184C123.155 124.189 123.309 124.192 123.448 124.192C123.587 124.197 123.68 124.197 123.728 124.192C123.808 124.187 123.848 124.147 123.848 124.072V120.992ZM126.176 117.264L126.712 117.432C126.616 117.581 126.52 117.725 126.424 117.864C126.328 117.997 126.235 118.115 126.144 118.216L125.728 118.072C125.808 117.955 125.891 117.821 125.976 117.672C126.061 117.517 126.128 117.381 126.176 117.264ZM123.592 117.448L124.024 117.272C124.125 117.389 124.224 117.52 124.32 117.664C124.421 117.808 124.493 117.939 124.536 118.056L124.08 118.24C124.037 118.128 123.971 117.997 123.88 117.848C123.789 117.699 123.693 117.565 123.592 117.448ZM126.16 120.92L126.52 120.656C126.68 120.757 126.845 120.88 127.016 121.024C127.187 121.163 127.315 121.291 127.4 121.408L127.032 121.712C126.947 121.589 126.821 121.456 126.656 121.312C126.491 121.163 126.325 121.032 126.16 120.92ZM122.688 123.024C123.019 122.987 123.408 122.939 123.856 122.88C124.309 122.821 124.773 122.76 125.248 122.696L125.264 123.144C124.821 123.208 124.381 123.275 123.944 123.344C123.512 123.408 123.12 123.464 122.768 123.512L122.688 123.024ZM124.832 120.6L125.192 120.976C124.995 121.04 124.768 121.099 124.512 121.152C124.261 121.2 124.003 121.243 123.736 121.28C123.475 121.317 123.221 121.347 122.976 121.368C122.965 121.32 122.947 121.259 122.92 121.184C122.893 121.109 122.867 121.045 122.84 120.992C123.069 120.96 123.309 120.925 123.56 120.888C123.811 120.851 124.045 120.808 124.264 120.76C124.488 120.707 124.677 120.653 124.832 120.6ZM123.016 118.072H127.288V118.504H123.016V118.072ZM123.272 119.032H127.072V119.448H123.272V119.032ZM122.728 120H127.456V120.464H122.728V120ZM122.72 121.808H127.464V122.28H122.72V121.808ZM125.344 120.648H125.856C125.872 121.437 125.931 122.096 126.032 122.624C126.133 123.152 126.264 123.549 126.424 123.816C126.584 124.083 126.755 124.216 126.936 124.216C127.005 124.216 127.059 124.163 127.096 124.056C127.139 123.949 127.168 123.768 127.184 123.512C127.237 123.565 127.299 123.611 127.368 123.648C127.443 123.685 127.512 123.717 127.576 123.744C127.528 124.107 127.451 124.355 127.344 124.488C127.243 124.627 127.093 124.699 126.896 124.704C126.651 124.704 126.435 124.611 126.248 124.424C126.067 124.243 125.909 123.976 125.776 123.624C125.648 123.272 125.549 122.848 125.48 122.352C125.411 121.851 125.365 121.283 125.344 120.648ZM126.68 122.448L127.12 122.656C126.96 122.928 126.763 123.184 126.528 123.424C126.299 123.664 126.045 123.88 125.768 124.072C125.496 124.264 125.216 124.427 124.928 124.56C124.896 124.512 124.848 124.453 124.784 124.384C124.725 124.32 124.669 124.267 124.616 124.224C124.893 124.107 125.163 123.96 125.424 123.784C125.691 123.603 125.933 123.4 126.152 123.176C126.371 122.952 126.547 122.709 126.68 122.448ZM120.472 119.704H122.528V120.176H120.472V119.704ZM120.528 117.56H122.512V118.04H120.528V117.56ZM120.472 120.768H122.528V121.248H120.472V120.768ZM120.144 118.608H122.736V119.112H120.144V118.608ZM120.752 121.848H122.52V124.176H120.752V123.68H122.024V122.344H120.752V121.848ZM120.464 121.848H120.96V124.552H120.464V121.848ZM131.352 121.36H131.968V124.08H131.352V121.36ZM129.056 119.248H134.36V119.776H129.056V119.248ZM128.152 123.872H135.24V124.416H128.152V123.872ZM128.88 122.336H134.544V122.864H128.88V122.336ZM130.656 119.52L131.28 119.696C131.168 119.883 131.048 120.077 130.92 120.28C130.797 120.477 130.672 120.667 130.544 120.848C130.416 121.029 130.296 121.192 130.184 121.336L129.704 121.168C129.816 121.019 129.931 120.848 130.048 120.656C130.165 120.464 130.277 120.269 130.384 120.072C130.496 119.869 130.587 119.685 130.656 119.52ZM128.736 120.952C129.179 120.947 129.693 120.939 130.28 120.928C130.867 120.912 131.491 120.896 132.152 120.88C132.813 120.859 133.475 120.84 134.136 120.824L134.104 121.328C133.459 121.355 132.811 121.381 132.16 121.408C131.515 121.429 130.901 121.448 130.32 121.464C129.739 121.48 129.221 121.493 128.768 121.504L128.736 120.952ZM132.6 120.256L133.032 119.944C133.261 120.088 133.493 120.251 133.728 120.432C133.968 120.613 134.192 120.797 134.4 120.984C134.613 121.165 134.784 121.336 134.912 121.496L134.448 121.832C134.325 121.677 134.163 121.507 133.96 121.32C133.757 121.133 133.536 120.947 133.296 120.76C133.061 120.568 132.829 120.4 132.6 120.256ZM131.352 117.28H131.968V118.264H131.352V117.28ZM128.24 117.888H135.144V119.368H134.536V118.44H128.824V119.368H128.24V117.888ZM139.608 124L138.984 122.232H136.864L136.248 124H135.52L137.6 118.264H138.272L140.344 124H139.608ZM138.184 119.864C138.173 119.821 138.149 119.744 138.112 119.632C138.08 119.52 138.045 119.405 138.008 119.288C137.976 119.165 137.949 119.072 137.928 119.008C137.901 119.115 137.872 119.224 137.84 119.336C137.813 119.443 137.787 119.541 137.76 119.632C137.733 119.723 137.709 119.8 137.688 119.864L137.096 121.592H138.776L138.184 119.864Z" fill="white"/>
</g>
<g filter="url(#filter1_d_66_703)">
<circle cx="264" cy="97" r="20" fill="white"/>
</g>
<path d="M256.125 105.032C255.877 105.032 255.669 104.948 255.502 104.78C255.334 104.613 255.25 104.405 255.25 104.156C255.25 103.909 255.334 103.701 255.502 103.533C255.669 103.366 255.877 103.282 256.125 103.282H257.359V94.5767C257.359 93.0077 257.843 91.6204 258.812 90.4149C259.78 89.2093 261.023 88.4383 262.542 88.1017V87.3748C262.542 86.9698 262.683 86.6254 262.967 86.3418C263.25 86.0583 263.594 85.9165 263.999 85.9165C264.403 85.9165 264.748 86.0583 265.032 86.3418C265.316 86.6254 265.458 86.9698 265.458 87.3748V88.1017C266.977 88.4383 268.22 89.2093 269.188 90.4149C270.157 91.6204 270.641 93.0077 270.641 94.5767V103.282H271.875C272.123 103.282 272.331 103.366 272.498 103.533C272.666 103.701 272.75 103.909 272.75 104.157C272.75 104.405 272.666 104.613 272.498 104.781C272.331 104.948 272.123 105.032 271.875 105.032H256.125ZM263.998 108.307C263.418 108.307 262.921 108.101 262.509 107.688C262.097 107.275 261.891 106.778 261.891 106.198H266.109C266.109 106.78 265.902 107.277 265.489 107.689C265.076 108.101 264.579 108.307 263.998 108.307ZM259.109 103.282H268.891V94.5767C268.891 93.2261 268.414 92.0733 267.459 91.1184C266.503 90.1633 265.351 89.6857 264 89.6857C262.649 89.6857 261.497 90.1633 260.541 91.1184C259.587 92.0733 259.109 93.2261 259.109 94.5767V103.282Z" fill="#31B5A2"/>
<defs>
<filter id="filter0_d_66_703" x="69.3596" y="25" width="202.64" height="177" filterUnits="userSpaceOnUse" color-interpolation-filters="sRGB">
<feFlood flood-opacity="0" result="BackgroundImageFix"/>
<feColorMatrix in="SourceAlpha" type="matrix" values="0 0 0 0 0 0 0 0 0 0 0 0 0 0 0 0 0 0 127 0" result="hardAlpha"/>
<feOffset/>
<feGaussianBlur stdDeviation="4"/>
<feComposite in2="hardAlpha" operator="out"/>
<feColorMatrix type="matrix" values="0 0 0 0 0 0 0 0 0 0 0 0 0 0 0 0 0 0 0.05 0"/>
<feBlend mode="normal" in2="BackgroundImageFix" result="effect1_dropShadow_66_703"/>
<feBlend mode="normal" in="SourceGraphic" in2="effect1_dropShadow_66_703" result="shape"/>
</filter>
<filter id="filter1_d_66_703" x="236" y="69" width="56" height="56" filterUnits="userSpaceOnUse" color-interpolation-filters="sRGB">
<feFlood flood-opacity="0" result="BackgroundImageFix"/>
<feColorMatrix in="SourceAlpha" type="matrix" values="0 0 0 0 0 0 0 0 0 0 0 0 0 0 0 0 0 0 127 0" result="hardAlpha"/>
<feOffset/>
<feGaussianBlur stdDeviation="4"/>
<feComposite in2="hardAlpha" operator="out"/>
<feColorMatrix type="matrix" values="0 0 0 0 0 0 0 0 0 0 0 0 0 0 0 0 0 0 0.05 0"/>
<feBlend mode="normal" in2="BackgroundImageFix" result="effect1_dropShadow_66_703"/>
<feBlend mode="normal" in="SourceGraphic" in2="effect1_dropShadow_66_703" result="shape"/>
</filter>
</defs>
</svg>
