<svg width="200" height="200" viewBox="0 0 200 200" fill="none" xmlns="http://www.w3.org/2000/svg">
<mask id="mask0_54_148" style="mask-type:luminance" maskUnits="userSpaceOnUse" x="16" y="29" width="171" height="171">
<path d="M186.805 29.4482H16.8054V199.528H186.805V29.4482Z" fill="white"/>
</mask>
<g mask="url(#mask0_54_148)">
<path d="M67.3768 261.51H140.234L154.32 146.913C154.599 142.26 151.782 138.069 147.641 136.988L111.298 131.278C106.38 129.99 101.255 129.99 96.3375 131.278L59.9939 136.988C55.8532 138.069 53.0239 142.272 53.3154 146.913L67.4011 261.51H67.3768Z" fill="#1E8CD6"/>
<path d="M103.805 185.57L85.8218 132.918L96.3132 131.266C101.231 129.978 106.355 129.978 111.273 131.266L121.765 132.918L103.793 185.57H103.805Z" fill="#EFEFEF"/>
<path d="M103.805 142.139L108.177 147.497L106.501 152.344H101.098L99.434 147.497L103.805 142.139Z" fill="#31B5A2"/>
<path d="M107.97 173.385L103.805 185.57L99.6404 173.385L101.146 152.344H106.465L107.97 173.385Z" fill="#31B5A2"/>
<path d="M89.2339 134.388C89.2339 134.388 92.8768 141.968 103.805 141.968C114.734 141.968 118.377 134.388 118.377 134.388L112.548 104.065H95.0625L89.2339 134.388Z" fill="#D9AA91"/>
<path d="M68.834 149.512H45.5197L48.434 215.114H65.9197L68.834 149.512Z" fill="#1E8CD6"/>
<path d="M57.1768 161.175C63.6149 161.175 68.834 155.953 68.834 149.512C68.834 143.071 63.6149 137.85 57.1768 137.85C50.7388 137.85 45.5197 143.071 45.5197 149.512C45.5197 155.953 50.7388 161.175 57.1768 161.175Z" fill="#1E8CD6"/>
<path d="M162.091 149.512H138.777L141.691 215.114H159.177L162.091 149.512Z" fill="#1E8CD6"/>
<path d="M150.434 161.175C156.872 161.175 162.091 155.953 162.091 149.512C162.091 143.071 156.872 137.85 150.434 137.85C143.996 137.85 138.777 143.071 138.777 149.512C138.777 155.953 143.996 161.175 150.434 161.175Z" fill="#1E8CD6"/>
<path d="M93.7875 44.5127L130.058 47.0275C137.077 47.5134 142.31 53.369 141.606 59.9414L136.87 91.3454L80.9161 87.47L80.5639 55.7137C80.7704 49.117 86.7689 44.0389 93.7875 44.5249V44.5127Z" fill="#423F3F"/>
<path d="M121.68 94.6744C121.34 99.4974 124.983 103.676 129.791 104.004C134.612 104.345 138.789 100.7 139.117 95.8893C139.445 91.0784 135.814 86.8872 131.005 86.5592C126.185 86.2311 122.008 89.8636 121.68 94.6744Z" fill="#E2B99F"/>
<path d="M102.02 125.458C116.47 126.455 129.002 115.557 129.998 101.101L131.406 80.7395C132.414 66.2827 121.51 53.7454 107.06 52.7492C92.6097 51.7409 80.0782 62.6503 79.0825 77.1071L77.6739 97.4681C76.6661 111.925 87.5704 124.462 102.02 125.458Z" fill="#E2B99F"/>
<path d="M61.7304 50.5022C60.4918 57.682 72.7561 79.2579 93.5325 72.9892C114.309 66.7206 129.354 72.1267 131.54 59.3707C132.681 52.7376 130.24 43.7112 124.315 40.6011C118.474 37.0173 109.16 39.3498 98.4139 44.5373C87.6675 49.7126 78.3175 52.2759 72.0154 51.4012C65.6282 51.0003 62.289 47.1735 61.7182 50.5144L61.7304 50.5022Z" fill="#423F3F"/>
<path d="M93.3626 110.831C93.2169 110.831 93.0833 110.759 92.9861 110.649C92.7919 110.418 92.8161 110.078 93.0347 109.884C96.3619 106.98 101.438 107.333 104.328 110.673C104.522 110.904 104.498 111.244 104.279 111.439C104.048 111.633 103.708 111.609 103.514 111.39C101.013 108.511 96.6411 108.207 93.7633 110.71C93.654 110.807 93.5083 110.856 93.3626 110.844V110.831Z" fill="#243357"/>
<path d="M90.8854 87.0083L87.3397 87.3849C87.1818 87.6643 87.0847 87.968 87.0604 88.296C86.9754 89.4988 87.8861 90.5435 89.0883 90.6286C90.2904 90.7136 91.3347 89.8025 91.4197 88.5998C91.4561 87.9923 91.2497 87.4335 90.8854 87.0083Z" fill="#243357"/>
<path d="M109.622 88.3086C109.197 88.6731 108.918 89.2076 108.869 89.815C108.784 91.0177 109.695 92.0625 110.897 92.1475C112.099 92.2326 113.143 91.3214 113.228 90.1187C113.253 89.7907 113.192 89.4627 113.083 89.1711L109.622 88.3086Z" fill="#243357"/>
</g>
<g clip-path="url(#clip0_54_148)">
<path d="M52.6781 70.9172C52.5783 70.9062 52.4808 70.873 52.3906 70.8158C51.21 70.0536 49.92 69.3469 48.5558 68.6006C44.334 66.2911 39.6481 63.728 38.7492 59.1513C37.6582 59.3941 36.5012 59.4404 35.3074 59.2689C30.2 58.5417 26.9986 54.9956 26.693 49.8829C25.5138 49.6815 24.5043 49.242 23.6559 48.5635C19.9554 45.5952 20.4909 38.8953 20.9201 33.5121C21.0787 31.5145 21.2169 29.7848 21.1081 28.5864C21.074 28.2224 21.3431 27.8985 21.7084 27.8643C22.0717 27.8276 22.3966 28.0997 22.4285 28.4634C22.5473 29.7755 22.4057 31.5565 22.2424 33.6167C21.8388 38.6853 21.335 44.9947 24.4865 47.5222C25.089 48.0071 25.8229 48.3375 26.6817 48.5128C26.6841 48.4906 26.6846 48.4659 26.6853 48.4389C26.7731 46.4111 27.2844 44.3103 28.1557 42.3662C25.4693 40.5111 24.3689 37.1979 24.545 34.3039C24.7716 30.6027 27.0189 26.7203 31.5303 26.3914C34.3306 26.1855 36.6666 26.998 38.3241 28.6523C38.6728 28.7491 39.0331 28.8629 39.4072 28.994C41.2815 29.6545 42.4807 31.9452 42.5965 34.6146C44.2971 35.0984 45.0652 35.9977 45.3996 36.8179C46.1734 38.7085 45.0858 41.3336 42.6332 43.5071C42.2428 43.8515 41.8106 44.1891 41.3433 44.498C43.3885 44.9116 44.4698 46.0254 45.0014 46.829C45.3905 47.4165 45.6582 48.0875 45.8079 48.8109C46.7347 48.8158 47.5574 49.1357 48.1738 49.7595C48.6528 50.2443 48.7955 50.7035 48.6005 51.1301C48.3002 51.7794 47.4743 51.8778 45.7957 51.7859C45.5836 52.8793 45.1497 53.9889 44.5 55.0185C44.4703 55.0648 44.4427 55.1113 44.4109 55.1551C46.8776 56.475 48.999 57.7705 48.9213 59.3987C48.8654 60.5836 48.0628 61.3082 46.7773 61.3382C45.1632 61.375 42.6214 60.3305 40.111 58.7334C40.0829 58.7439 40.0523 58.7563 40.0218 58.7687C40.7172 62.8052 44.8525 65.0647 49.1911 67.4365C50.517 68.1629 51.8879 68.91 53.1102 69.7016C53.4183 69.902 53.5057 70.3123 53.3081 70.6193C53.1673 70.838 52.9197 70.9459 52.6779 70.9194L52.6781 70.9172ZM41.5308 58.0112C43.5739 59.2418 45.5308 60.0307 46.7483 60.0067C47.5025 59.9882 47.5816 59.6772 47.5968 59.3344C47.6377 58.4699 45.4877 57.232 43.6035 56.2305C42.9912 56.94 42.2947 57.5367 41.5328 58.0137L41.5308 58.0112ZM28.0292 50.0048C28.3604 54.3931 31.0704 57.3224 35.4944 57.9543C36.5742 58.0999 37.6188 58.0547 38.5992 57.8178C38.5969 57.777 38.5966 57.7387 38.5968 57.696C35.3412 55.3191 32.458 52.1682 32.1051 49.4705C30.5922 49.8538 29.2364 50.0337 28.0289 50.007L28.0292 50.0048ZM39.9422 56.9768C40.0486 57.0515 40.1549 57.1263 40.2637 57.199C41.0489 56.7966 41.7661 56.2562 42.394 55.5889C41.7108 55.2257 41.0705 54.8808 40.5039 54.5394C40.2836 55.0736 40.1181 55.6408 40.0258 56.2363C39.9868 56.4887 39.9575 56.7354 39.9425 56.9746L39.9422 56.9768ZM33.4008 49.1017C33.4023 49.1289 33.4041 49.1538 33.4078 49.1813C33.6025 51.2739 35.953 53.9184 38.7125 56.0696C38.7137 56.0585 38.7149 56.0474 38.7164 56.034C38.8398 55.2371 39.0704 54.4857 39.3801 53.7924C38.5038 53.1222 38.0034 52.4436 38.1024 51.6642C38.278 50.3101 40.0127 50.1156 42.201 50.2071C42.8924 49.6774 43.6182 49.2843 44.3168 49.057C44.3774 49.0366 44.4378 49.0185 44.4981 49.0004C44.3783 48.4761 44.1781 47.9881 43.8969 47.5633C42.9821 46.1796 41.321 45.5402 39.0513 45.6784C38.6206 45.8382 38.1773 45.9697 37.7294 46.0601C36.5677 47.4793 35.126 48.5638 33.4425 49.0905C33.4287 49.0935 33.4146 49.0987 33.4008 49.1017ZM41.1167 53.3549C41.8012 53.7677 42.5794 54.1864 43.2332 54.5305C43.2817 54.4571 43.3302 54.3836 43.3789 54.3079C43.9093 53.4655 44.2722 52.5733 44.4657 51.6895C44.4056 51.6851 44.3454 51.6808 44.2853 51.6764C43.8644 51.6437 43.2701 51.5965 42.6405 51.5634C42.0792 52.0534 41.5548 52.6578 41.1192 53.3529L41.1167 53.3549ZM40.8094 51.5313C40.0995 51.5547 39.5444 51.6401 39.4147 51.8398C39.3908 52.0375 39.626 52.3088 40.0126 52.6123C40.257 52.2272 40.5235 51.8647 40.8094 51.5313ZM29.331 43.0333C28.5507 44.7825 28.0875 46.6701 28.0084 48.4963C28.0069 48.5502 28.0053 48.6063 28.0014 48.6622C29.2009 48.6993 30.59 48.5028 32.1588 48.0806C32.3473 47.2637 32.8562 46.4326 33.9369 45.7519C33.7287 45.6638 33.5198 45.5621 33.3149 45.445C32.5347 45.0037 31.8327 44.3818 31.2233 43.6327L31.2145 43.6317C30.531 43.4959 29.902 43.2941 29.3313 43.0311L29.331 43.0333ZM45.9471 50.141C45.9469 50.2445 45.9463 50.3525 45.9435 50.4603C46.332 50.4804 46.6946 50.491 46.9808 50.4818C46.6576 50.255 46.2949 50.1634 45.9471 50.141ZM35.5687 46.4128C34.848 46.6984 34.3063 47.051 33.9436 47.4705C34.5241 47.1942 35.0663 46.8372 35.5687 46.4128ZM33.3791 43.8986C33.5698 44.0433 33.7664 44.1752 33.9694 44.2898C34.6102 44.6506 35.286 44.8351 35.9755 44.8747C36.3558 44.7656 36.7733 44.6651 37.2275 44.5776C37.592 44.0593 37.9205 43.501 38.2073 42.9133C36.9154 43.5955 35.3127 43.978 33.3768 43.8983L33.3791 43.8986ZM40.2155 41.3934C39.881 42.4148 39.4522 43.3967 38.9325 44.3055C39.9942 43.8592 40.9756 43.2036 41.7568 42.5104C43.7194 40.7716 44.7145 38.6407 44.1742 37.3228C43.9335 36.7336 43.3828 36.2881 42.5619 35.9932C42.5083 36.5636 42.4049 37.1376 42.2499 37.7105C41.8914 39.0333 41.2238 40.3288 40.2157 41.3912L40.2155 41.3934ZM31.9828 42.4215C35.5661 42.9994 37.7596 41.9591 39.0931 40.6331C39.5792 38.9866 39.7952 37.243 39.7075 35.5876C39.3732 35.5846 39.0219 35.5934 38.6559 35.614C35.468 35.7909 32.754 37.7062 30.8629 40.3489C31.1664 41.1027 31.5431 41.8037 31.9808 42.419L31.9828 42.4215ZM33.3852 27.741C32.846 27.6818 32.2611 27.6716 31.6251 27.7167C27.9125 27.9891 26.0581 31.2595 25.8679 34.3838C25.7147 36.8841 26.5885 39.6028 28.7495 41.1706C28.9375 40.8287 29.1361 40.4926 29.3448 40.1665C28.418 37.4599 28.3457 34.3338 29.448 31.9017C30.023 30.632 31.6003 28.2295 35.3005 28.2124C34.7373 27.9839 34.1019 27.8196 33.3852 27.741ZM36.2555 29.5982C33.5863 29.3053 31.6382 30.2779 30.6567 32.4486C29.8412 34.2525 29.8074 36.606 30.353 38.7755C32.4015 36.2536 35.2219 34.4739 38.586 34.287C38.9315 34.2686 39.2584 34.2572 39.5705 34.2577C39.5551 34.1525 39.5352 34.0467 39.5174 33.9434C39.3248 32.9159 38.8337 31.2118 37.6123 29.8394C37.1421 29.7248 36.6906 29.6437 36.2579 29.5962L36.2555 29.5982ZM41.0352 35.6635C41.055 36.1587 41.0488 36.6646 41.0203 37.1703C41.1415 36.6793 41.2164 36.1809 41.2502 35.6893C41.1792 35.6816 41.1084 35.6715 41.0352 35.6635ZM39.8881 30.8524C40.3053 31.6952 40.6186 32.6459 40.8174 33.6989C40.8559 33.9012 40.8896 34.1053 40.9182 34.3156C41.0294 34.3255 41.1361 34.335 41.2421 34.3511C41.1208 32.8992 40.6353 31.6144 39.8881 30.8524Z" fill="#243357"/>
</g>
<defs>
<clipPath id="clip0_54_148">
<rect width="36.6761" height="42.1385" fill="white" transform="translate(21.4772 25.1011) rotate(6.26339)"/>
</clipPath>
</defs>
</svg>
