<svg width="366" height="226" viewBox="0 0 366 226" fill="none" xmlns="http://www.w3.org/2000/svg">
<rect width="366" height="226" fill="#EEF6FC"/>
<rect x="53.5" y="39.5" width="258" height="147" rx="3.5" fill="white" stroke="#31B5A2"/>
<rect x="73" y="61" width="104" height="16" rx="8" fill="#A5AFB6" fill-opacity="0.3"/>
<rect x="73" y="85" width="219" height="8" rx="4" fill="#A5AFB6" fill-opacity="0.3"/>
<rect x="73" y="141" width="130" height="8" rx="4" fill="#A5AFB6" fill-opacity="0.3"/>
<rect x="73" y="157" width="159" height="8" rx="4" fill="#A5AFB6" fill-opacity="0.3"/>
<path d="M76.192 111.53C76.192 111.903 76.178 112.263 76.15 112.608C76.1313 112.953 76.1127 113.196 76.094 113.336H76.206C76.3647 113.075 76.542 112.865 76.738 112.706C76.9433 112.538 77.172 112.417 77.424 112.342C77.676 112.258 77.9467 112.216 78.236 112.216C78.74 112.216 79.1833 112.314 79.566 112.51C79.958 112.706 80.266 113.009 80.49 113.42C80.714 113.831 80.826 114.363 80.826 115.016V120H78.572V115.534C78.572 114.983 78.488 114.573 78.32 114.302C78.1613 114.022 77.9093 113.882 77.564 113.882C77.2187 113.882 76.9433 113.98 76.738 114.176C76.5327 114.372 76.388 114.657 76.304 115.03C76.2293 115.403 76.192 115.861 76.192 116.402V120H73.952V109.36H76.192V111.53ZM85.9783 118.474C86.2023 118.474 86.4077 118.451 86.5943 118.404C86.7903 118.357 86.991 118.301 87.1963 118.236V119.79C86.963 119.883 86.6877 119.963 86.3703 120.028C86.0623 120.103 85.6983 120.14 85.2783 120.14C84.8303 120.14 84.429 120.065 84.0743 119.916C83.729 119.767 83.4583 119.51 83.2623 119.146C83.0663 118.773 82.9683 118.259 82.9683 117.606V113.924H82.0583V113.042L83.1503 112.342L83.7663 110.732H85.2083V112.356H87.1123V113.924H85.2083V117.606C85.2083 117.895 85.2783 118.115 85.4183 118.264C85.5583 118.404 85.745 118.474 85.9783 118.474ZM91.8572 118.474C92.0812 118.474 92.2866 118.451 92.4732 118.404C92.6692 118.357 92.8699 118.301 93.0752 118.236V119.79C92.8419 119.883 92.5666 119.963 92.2492 120.028C91.9412 120.103 91.5772 120.14 91.1572 120.14C90.7092 120.14 90.3079 120.065 89.9532 119.916C89.6079 119.767 89.3372 119.51 89.1412 119.146C88.9452 118.773 88.8472 118.259 88.8472 117.606V113.924H87.9372V113.042L89.0292 112.342L89.6452 110.732H91.0872V112.356H92.9912V113.924H91.0872V117.606C91.0872 117.895 91.1572 118.115 91.2972 118.264C91.4372 118.404 91.6239 118.474 91.8572 118.474ZM98.6741 112.216C99.4768 112.216 100.116 112.552 100.592 113.224C101.077 113.887 101.32 114.867 101.32 116.164C101.32 117.032 101.203 117.765 100.97 118.362C100.737 118.95 100.415 119.393 100.004 119.692C99.5935 119.991 99.1221 120.14 98.5901 120.14C98.2541 120.14 97.9648 120.093 97.7221 120C97.4795 119.907 97.2741 119.785 97.1061 119.636C96.9475 119.487 96.8075 119.328 96.6861 119.16H96.5881C96.6161 119.337 96.6395 119.524 96.6581 119.72C96.6768 119.907 96.6861 120.093 96.6861 120.28V123.36H94.4461V112.356H96.2661L96.5881 113.35H96.6861C96.8075 113.145 96.9568 112.958 97.1341 112.79C97.3115 112.613 97.5261 112.473 97.7781 112.37C98.0301 112.267 98.3288 112.216 98.6741 112.216ZM97.8761 113.882C97.5868 113.882 97.3535 113.957 97.1761 114.106C96.9988 114.255 96.8728 114.484 96.7981 114.792C96.7235 115.091 96.6861 115.469 96.6861 115.926V116.15C96.6861 116.645 96.7235 117.065 96.7981 117.41C96.8728 117.746 96.9988 118.003 97.1761 118.18C97.3535 118.357 97.5961 118.446 97.9041 118.446C98.1561 118.446 98.3661 118.357 98.5341 118.18C98.7021 118.003 98.8281 117.741 98.9121 117.396C98.9961 117.051 99.0381 116.631 99.0381 116.136C99.0381 115.389 98.9401 114.829 98.7441 114.456C98.5575 114.073 98.2681 113.882 97.8761 113.882ZM108.049 117.732C108.049 118.245 107.937 118.684 107.713 119.048C107.498 119.403 107.167 119.673 106.719 119.86C106.271 120.047 105.692 120.14 104.983 120.14C104.469 120.14 104.021 120.103 103.639 120.028C103.256 119.963 102.869 119.851 102.477 119.692V117.97C102.906 118.157 103.349 118.311 103.807 118.432C104.264 118.553 104.647 118.614 104.955 118.614C105.291 118.614 105.529 118.553 105.669 118.432C105.818 118.311 105.893 118.152 105.893 117.956C105.893 117.825 105.855 117.709 105.781 117.606C105.706 117.503 105.557 117.387 105.333 117.256C105.109 117.125 104.777 116.957 104.339 116.752C103.909 116.547 103.555 116.346 103.275 116.15C103.004 115.945 102.799 115.702 102.659 115.422C102.528 115.133 102.463 114.773 102.463 114.344C102.463 113.635 102.729 113.103 103.261 112.748C103.802 112.393 104.511 112.216 105.389 112.216C105.855 112.216 106.294 112.263 106.705 112.356C107.115 112.449 107.54 112.603 107.979 112.818L107.349 114.316C107.106 114.204 106.868 114.106 106.635 114.022C106.401 113.938 106.177 113.873 105.963 113.826C105.757 113.779 105.561 113.756 105.375 113.756C105.132 113.756 104.945 113.798 104.815 113.882C104.693 113.966 104.633 114.092 104.633 114.26C104.633 114.381 104.67 114.493 104.745 114.596C104.819 114.689 104.964 114.797 105.179 114.918C105.393 115.03 105.706 115.175 106.117 115.352C106.537 115.529 106.887 115.716 107.167 115.912C107.456 116.099 107.675 116.337 107.825 116.626C107.974 116.906 108.049 117.275 108.049 117.732ZM109.219 119.02C109.219 118.591 109.34 118.292 109.583 118.124C109.825 117.947 110.119 117.858 110.465 117.858C110.791 117.858 111.076 117.947 111.319 118.124C111.561 118.292 111.683 118.591 111.683 119.02C111.683 119.431 111.561 119.729 111.319 119.916C111.076 120.093 110.791 120.182 110.465 120.182C110.119 120.182 109.825 120.093 109.583 119.916C109.34 119.729 109.219 119.431 109.219 119.02ZM109.219 113.378C109.219 112.949 109.34 112.65 109.583 112.482C109.825 112.305 110.119 112.216 110.465 112.216C110.791 112.216 111.076 112.305 111.319 112.482C111.561 112.65 111.683 112.949 111.683 113.378C111.683 113.789 111.561 114.087 111.319 114.274C111.076 114.451 110.791 114.54 110.465 114.54C110.119 114.54 109.825 114.451 109.583 114.274C109.34 114.087 109.219 113.789 109.219 113.378ZM117.92 110.004L114.42 120H112.418L115.918 110.004H117.92ZM123.553 110.004L120.053 120H118.051L121.551 110.004H123.553ZM128.78 112.216C129.582 112.216 130.222 112.552 130.698 113.224C131.183 113.887 131.426 114.867 131.426 116.164C131.426 117.032 131.309 117.765 131.076 118.362C130.842 118.95 130.52 119.393 130.11 119.692C129.699 119.991 129.228 120.14 128.696 120.14C128.36 120.14 128.07 120.093 127.828 120C127.585 119.907 127.38 119.785 127.212 119.636C127.053 119.487 126.913 119.328 126.792 119.16H126.694C126.722 119.337 126.745 119.524 126.764 119.72C126.782 119.907 126.792 120.093 126.792 120.28V123.36H124.552V112.356H126.372L126.694 113.35H126.792C126.913 113.145 127.062 112.958 127.24 112.79C127.417 112.613 127.632 112.473 127.884 112.37C128.136 112.267 128.434 112.216 128.78 112.216ZM127.982 113.882C127.692 113.882 127.459 113.957 127.282 114.106C127.104 114.255 126.978 114.484 126.904 114.792C126.829 115.091 126.792 115.469 126.792 115.926V116.15C126.792 116.645 126.829 117.065 126.904 117.41C126.978 117.746 127.104 118.003 127.282 118.18C127.459 118.357 127.702 118.446 128.01 118.446C128.262 118.446 128.472 118.357 128.64 118.18C128.808 118.003 128.934 117.741 129.018 117.396C129.102 117.051 129.144 116.631 129.144 116.136C129.144 115.389 129.046 114.829 128.85 114.456C128.663 114.073 128.374 113.882 127.982 113.882ZM135.186 112.356V120H132.946V112.356H135.186ZM134.08 109.36C134.407 109.36 134.687 109.435 134.92 109.584C135.153 109.724 135.27 109.99 135.27 110.382C135.27 110.765 135.153 111.031 134.92 111.18C134.687 111.329 134.407 111.404 134.08 111.404C133.744 111.404 133.459 111.329 133.226 111.18C132.993 111.031 132.876 110.765 132.876 110.382C132.876 109.99 132.993 109.724 133.226 109.584C133.459 109.435 133.744 109.36 134.08 109.36ZM140.379 118.474C140.603 118.474 140.808 118.451 140.995 118.404C141.191 118.357 141.391 118.301 141.597 118.236V119.79C141.363 119.883 141.088 119.963 140.771 120.028C140.463 120.103 140.099 120.14 139.679 120.14C139.231 120.14 138.829 120.065 138.475 119.916C138.129 119.767 137.859 119.51 137.663 119.146C137.467 118.773 137.369 118.259 137.369 117.606V113.924H136.459V113.042L137.551 112.342L138.167 110.732H139.609V112.356H141.513V113.924H139.609V117.606C139.609 117.895 139.679 118.115 139.819 118.264C139.959 118.404 140.145 118.474 140.379 118.474ZM146.216 112.202C147.158 112.202 147.886 112.426 148.4 112.874C148.922 113.313 149.184 113.989 149.184 114.904V120H147.63L147.196 118.964H147.14C146.934 119.235 146.724 119.459 146.51 119.636C146.295 119.813 146.048 119.939 145.768 120.014C145.488 120.098 145.147 120.14 144.746 120.14C144.326 120.14 143.948 120.056 143.612 119.888C143.285 119.711 143.024 119.445 142.828 119.09C142.632 118.726 142.534 118.269 142.534 117.718C142.534 116.906 142.8 116.309 143.332 115.926C143.873 115.534 144.666 115.319 145.712 115.282L146.944 115.24V114.904C146.944 114.503 146.855 114.209 146.678 114.022C146.5 113.835 146.258 113.742 145.95 113.742C145.632 113.742 145.301 113.798 144.956 113.91C144.61 114.013 144.265 114.143 143.92 114.302L143.234 112.888C143.644 112.673 144.097 112.505 144.592 112.384C145.096 112.263 145.637 112.202 146.216 112.202ZM146.3 116.486C145.749 116.505 145.362 116.626 145.138 116.85C144.923 117.074 144.816 117.368 144.816 117.732C144.816 118.049 144.89 118.278 145.04 118.418C145.198 118.549 145.404 118.614 145.656 118.614C146.01 118.614 146.314 118.483 146.566 118.222C146.827 117.951 146.958 117.573 146.958 117.088V116.458L146.3 116.486ZM156.256 117.732C156.256 118.245 156.144 118.684 155.92 119.048C155.705 119.403 155.374 119.673 154.926 119.86C154.478 120.047 153.899 120.14 153.19 120.14C152.676 120.14 152.228 120.103 151.846 120.028C151.463 119.963 151.076 119.851 150.684 119.692V117.97C151.113 118.157 151.556 118.311 152.014 118.432C152.471 118.553 152.854 118.614 153.162 118.614C153.498 118.614 153.736 118.553 153.876 118.432C154.025 118.311 154.1 118.152 154.1 117.956C154.1 117.825 154.062 117.709 153.988 117.606C153.913 117.503 153.764 117.387 153.54 117.256C153.316 117.125 152.984 116.957 152.546 116.752C152.116 116.547 151.762 116.346 151.482 116.15C151.211 115.945 151.006 115.702 150.866 115.422C150.735 115.133 150.67 114.773 150.67 114.344C150.67 113.635 150.936 113.103 151.468 112.748C152.009 112.393 152.718 112.216 153.596 112.216C154.062 112.216 154.501 112.263 154.912 112.356C155.322 112.449 155.747 112.603 156.186 112.818L155.556 114.316C155.313 114.204 155.075 114.106 154.842 114.022C154.608 113.938 154.384 113.873 154.17 113.826C153.964 113.779 153.768 113.756 153.582 113.756C153.339 113.756 153.152 113.798 153.022 113.882C152.9 113.966 152.84 114.092 152.84 114.26C152.84 114.381 152.877 114.493 152.952 114.596C153.026 114.689 153.171 114.797 153.386 114.918C153.6 115.03 153.913 115.175 154.324 115.352C154.744 115.529 155.094 115.716 155.374 115.912C155.663 116.099 155.882 116.337 156.032 116.626C156.181 116.906 156.256 117.275 156.256 117.732ZM164.552 112.356V120H162.858L162.564 119.02H162.438C162.288 119.281 162.097 119.496 161.864 119.664C161.64 119.823 161.388 119.939 161.108 120.014C160.828 120.098 160.538 120.14 160.24 120.14C159.745 120.14 159.306 120.042 158.924 119.846C158.541 119.65 158.238 119.347 158.014 118.936C157.799 118.525 157.692 117.993 157.692 117.34V112.356H159.932V116.822C159.932 117.363 160.011 117.774 160.17 118.054C160.328 118.334 160.585 118.474 160.94 118.474C161.304 118.474 161.584 118.376 161.78 118.18C161.976 117.984 162.111 117.699 162.186 117.326C162.27 116.953 162.312 116.495 162.312 115.954V112.356H164.552ZM168.696 114.12C168.696 114.409 168.682 114.699 168.654 114.988C168.635 115.268 168.607 115.553 168.57 115.842H168.612C168.659 115.711 168.724 115.581 168.808 115.45C168.901 115.319 168.999 115.189 169.102 115.058C169.214 114.927 169.321 114.801 169.424 114.68L171.258 112.356H173.764L171.062 115.674L173.918 120H171.356L169.522 116.906L168.696 117.62V120H166.456V109.36H168.696V114.12ZM177.986 112.216C178.667 112.216 179.255 112.351 179.75 112.622C180.245 112.893 180.627 113.285 180.898 113.798C181.169 114.311 181.304 114.941 181.304 115.688V116.696H176.754C176.773 117.284 176.922 117.746 177.202 118.082C177.491 118.418 177.902 118.586 178.434 118.586C178.901 118.586 179.321 118.539 179.694 118.446C180.077 118.343 180.469 118.189 180.87 117.984V119.594C180.525 119.781 180.147 119.916 179.736 120C179.335 120.093 178.835 120.14 178.238 120.14C177.51 120.14 176.861 120 176.292 119.72C175.732 119.431 175.289 118.997 174.962 118.418C174.645 117.839 174.486 117.111 174.486 116.234C174.486 115.338 174.631 114.596 174.92 114.008C175.219 113.411 175.629 112.963 176.152 112.664C176.684 112.365 177.295 112.216 177.986 112.216ZM178.028 113.7C177.692 113.7 177.412 113.831 177.188 114.092C176.964 114.353 176.833 114.759 176.796 115.31H179.246C179.246 115.002 179.199 114.727 179.106 114.484C179.013 114.241 178.877 114.05 178.7 113.91C178.523 113.77 178.299 113.7 178.028 113.7ZM182.527 119.02C182.527 118.591 182.648 118.292 182.891 118.124C183.134 117.947 183.428 117.858 183.773 117.858C184.1 117.858 184.384 117.947 184.627 118.124C184.87 118.292 184.991 118.591 184.991 119.02C184.991 119.431 184.87 119.729 184.627 119.916C184.384 120.093 184.1 120.182 183.773 120.182C183.428 120.182 183.134 120.093 182.891 119.916C182.648 119.729 182.527 119.431 182.527 119.02ZM189.717 120.14C188.989 120.14 188.363 120.005 187.841 119.734C187.318 119.454 186.917 119.025 186.637 118.446C186.357 117.867 186.217 117.125 186.217 116.22C186.217 115.287 186.371 114.526 186.679 113.938C186.996 113.35 187.43 112.916 187.981 112.636C188.541 112.356 189.18 112.216 189.899 112.216C190.365 112.216 190.799 112.267 191.201 112.37C191.602 112.473 191.938 112.594 192.209 112.734L191.551 114.302C191.271 114.181 191.014 114.083 190.781 114.008C190.557 113.933 190.309 113.896 190.039 113.896C189.712 113.896 189.432 113.985 189.199 114.162C188.975 114.33 188.802 114.587 188.681 114.932C188.559 115.268 188.499 115.693 188.499 116.206C188.499 116.71 188.559 117.13 188.681 117.466C188.811 117.793 188.989 118.04 189.213 118.208C189.446 118.367 189.721 118.446 190.039 118.446C190.393 118.446 190.729 118.39 191.047 118.278C191.373 118.157 191.681 117.993 191.971 117.788V119.566C191.663 119.771 191.331 119.916 190.977 120C190.631 120.093 190.211 120.14 189.717 120.14ZM200.26 116.164C200.26 116.799 200.176 117.363 200.008 117.858C199.85 118.353 199.616 118.773 199.308 119.118C199 119.454 198.622 119.711 198.174 119.888C197.736 120.056 197.241 120.14 196.69 120.14C196.177 120.14 195.701 120.056 195.262 119.888C194.824 119.711 194.446 119.454 194.128 119.118C193.82 118.773 193.578 118.353 193.4 117.858C193.232 117.363 193.148 116.799 193.148 116.164C193.148 115.315 193.293 114.601 193.582 114.022C193.872 113.434 194.282 112.986 194.814 112.678C195.346 112.37 195.986 112.216 196.732 112.216C197.423 112.216 198.03 112.37 198.552 112.678C199.084 112.986 199.5 113.434 199.798 114.022C200.106 114.601 200.26 115.315 200.26 116.164ZM195.43 116.164C195.43 116.668 195.472 117.093 195.556 117.438C195.65 117.774 195.79 118.031 195.976 118.208C196.172 118.376 196.42 118.46 196.718 118.46C197.026 118.46 197.269 118.376 197.446 118.208C197.633 118.031 197.768 117.774 197.852 117.438C197.936 117.093 197.978 116.668 197.978 116.164C197.978 115.66 197.936 115.24 197.852 114.904C197.768 114.568 197.628 114.316 197.432 114.148C197.246 113.98 197.003 113.896 196.704 113.896C196.247 113.896 195.92 114.087 195.724 114.47C195.528 114.843 195.43 115.408 195.43 116.164ZM210.436 112.216C211.267 112.216 211.892 112.44 212.312 112.888C212.741 113.327 212.956 114.036 212.956 115.016V120H210.73V115.534C210.73 114.983 210.646 114.573 210.478 114.302C210.319 114.022 210.077 113.882 209.75 113.882C209.283 113.882 208.957 114.078 208.77 114.47C208.583 114.862 208.49 115.427 208.49 116.164V120H206.25V115.534C206.25 115.17 206.213 114.867 206.138 114.624C206.073 114.381 205.97 114.199 205.83 114.078C205.69 113.947 205.503 113.882 205.27 113.882C204.953 113.882 204.701 113.98 204.514 114.176C204.337 114.372 204.211 114.657 204.136 115.03C204.061 115.403 204.024 115.861 204.024 116.402V120H201.784V112.356H203.478L203.8 113.336H203.884C204.024 113.075 204.197 112.865 204.402 112.706C204.617 112.538 204.859 112.417 205.13 112.342C205.41 112.258 205.709 112.216 206.026 112.216C206.549 112.216 206.987 112.309 207.342 112.496C207.706 112.673 207.991 112.953 208.196 113.336H208.322C208.546 112.944 208.845 112.659 209.218 112.482C209.601 112.305 210.007 112.216 210.436 112.216ZM219.447 110.004L215.947 120H213.945L217.445 110.004H219.447ZM223.568 112.216C224.249 112.216 224.837 112.351 225.332 112.622C225.827 112.893 226.209 113.285 226.48 113.798C226.751 114.311 226.886 114.941 226.886 115.688V116.696H222.336C222.355 117.284 222.504 117.746 222.784 118.082C223.073 118.418 223.484 118.586 224.016 118.586C224.483 118.586 224.903 118.539 225.276 118.446C225.659 118.343 226.051 118.189 226.452 117.984V119.594C226.107 119.781 225.729 119.916 225.318 120C224.917 120.093 224.417 120.14 223.82 120.14C223.092 120.14 222.443 120 221.874 119.72C221.314 119.431 220.871 118.997 220.544 118.418C220.227 117.839 220.068 117.111 220.068 116.234C220.068 115.338 220.213 114.596 220.502 114.008C220.801 113.411 221.211 112.963 221.734 112.664C222.266 112.365 222.877 112.216 223.568 112.216ZM223.61 113.7C223.274 113.7 222.994 113.831 222.77 114.092C222.546 114.353 222.415 114.759 222.378 115.31H224.828C224.828 115.002 224.781 114.727 224.688 114.484C224.595 114.241 224.459 114.05 224.282 113.91C224.105 113.77 223.881 113.7 223.61 113.7ZM229.949 120L227.191 112.356H229.529L230.803 116.71C230.859 116.878 230.901 117.055 230.929 117.242C230.957 117.429 230.981 117.611 230.999 117.788C231.018 117.965 231.027 118.129 231.027 118.278H231.083C231.093 118.119 231.102 117.951 231.111 117.774C231.13 117.597 231.158 117.419 231.195 117.242C231.233 117.055 231.275 116.878 231.321 116.71L232.609 112.356H234.961L232.203 120H229.949ZM239.031 112.216C239.712 112.216 240.3 112.351 240.795 112.622C241.29 112.893 241.672 113.285 241.943 113.798C242.214 114.311 242.349 114.941 242.349 115.688V116.696H237.799C237.818 117.284 237.967 117.746 238.247 118.082C238.536 118.418 238.947 118.586 239.479 118.586C239.946 118.586 240.366 118.539 240.739 118.446C241.122 118.343 241.514 118.189 241.915 117.984V119.594C241.57 119.781 241.192 119.916 240.781 120C240.38 120.093 239.88 120.14 239.283 120.14C238.555 120.14 237.906 120 237.337 119.72C236.777 119.431 236.334 118.997 236.007 118.418C235.69 117.839 235.531 117.111 235.531 116.234C235.531 115.338 235.676 114.596 235.965 114.008C236.264 113.411 236.674 112.963 237.197 112.664C237.729 112.365 238.34 112.216 239.031 112.216ZM239.073 113.7C238.737 113.7 238.457 113.831 238.233 114.092C238.009 114.353 237.878 114.759 237.841 115.31H240.291C240.291 115.002 240.244 114.727 240.151 114.484C240.058 114.241 239.922 114.05 239.745 113.91C239.568 113.77 239.344 113.7 239.073 113.7ZM248.178 112.216C248.943 112.216 249.559 112.44 250.026 112.888C250.502 113.327 250.74 114.036 250.74 115.016V120H248.5V115.534C248.5 114.983 248.416 114.573 248.248 114.302C248.089 114.022 247.833 113.882 247.478 113.882C246.937 113.882 246.573 114.101 246.386 114.54C246.199 114.969 246.106 115.59 246.106 116.402V120H243.866V112.356H245.56L245.868 113.336H245.966C246.125 113.075 246.311 112.865 246.526 112.706C246.75 112.538 247.002 112.417 247.282 112.342C247.562 112.258 247.861 112.216 248.178 112.216ZM255.892 118.474C256.116 118.474 256.322 118.451 256.508 118.404C256.704 118.357 256.905 118.301 257.11 118.236V119.79C256.877 119.883 256.602 119.963 256.284 120.028C255.976 120.103 255.612 120.14 255.192 120.14C254.744 120.14 254.343 120.065 253.988 119.916C253.643 119.767 253.372 119.51 253.176 119.146C252.98 118.773 252.882 118.259 252.882 117.606V113.924H251.972V113.042L253.064 112.342L253.68 110.732H255.122V112.356H257.026V113.924H255.122V117.606C255.122 117.895 255.192 118.115 255.332 118.264C255.472 118.404 255.659 118.474 255.892 118.474ZM263.115 110.004L259.615 120H257.613L261.113 110.004H263.115ZM272.29 120H269.686L267.67 116.22L265.668 120H263.176L266.298 114.848L263.372 110.004H265.878L267.74 113.602L269.546 110.004H272.066L269.098 114.96L272.29 120ZM281.437 120H278.833L276.817 116.22L274.815 120H272.323L275.445 114.848L272.519 110.004H275.025L276.887 113.602L278.693 110.004H281.213L278.245 114.96L281.437 120ZM290.583 120H287.979L285.963 116.22L283.961 120H281.469L284.591 114.848L281.665 110.004H284.171L286.033 113.602L287.839 110.004H290.359L287.391 114.96L290.583 120Z" fill="#31B5A2"/>
<path d="M73 121.75H93.7453V122.45H73V121.75ZM97.3875 121.75H123.855V122.45H97.3875V121.75ZM127.489 121.75H290.597V122.45H127.489V121.75Z" fill="#31B5A2"/>
<circle cx="281" cy="157" r="19.5" fill="#31B5A2" stroke="#31B5A2"/>
<path d="M289.843 157.978L273.56 164.844C273.208 164.984 272.874 164.954 272.558 164.753C272.241 164.552 272.083 164.26 272.083 163.877V150.123C272.083 149.741 272.241 149.449 272.558 149.247C272.874 149.046 273.208 149.016 273.56 149.157L289.843 156.022C290.277 156.213 290.494 156.539 290.494 157C290.494 157.461 290.277 157.787 289.843 157.978ZM273.833 162.833L287.658 157L273.833 151.167V155.474L280.16 157L273.833 158.526V162.833Z" fill="white"/>
</svg>
