<svg width="562" height="443" viewBox="0 0 562 443" fill="none" xmlns="http://www.w3.org/2000/svg">
<path d="M415.96 299.92H476.3L415.96 355.74V299.92Z" fill="#E0E0E0"/>
<path d="M476.3 87.4302H91.96V355.74H476.3V87.4302Z" fill="#F8F8F8"/>
<path d="M164.23 159.44H115.72V116.9H164.23V159.44ZM116.18 158.98H163.77V117.36H116.18V158.98Z" fill="#A1A1A1"/>
<path d="M212.28 159.44H163.77V116.9H212.28V159.44ZM164.23 158.98H211.82V117.36H164.23V158.98Z" fill="#A1A1A1"/>
<path d="M260.33 159.44H211.82V116.9H260.33V159.44ZM212.28 158.98H259.87V117.36H212.28V158.98Z" fill="#A1A1A1"/>
<path d="M308.38 159.44H259.87V116.9H308.38V159.44ZM260.33 158.98H307.92V117.36H260.33V158.98Z" fill="#A1A1A1"/>
<path d="M356.44 159.44H307.93V116.9H356.44V159.44ZM308.38 158.98H355.97V117.36H308.38V158.98Z" fill="#A1A1A1"/>
<path d="M404.49 159.44H355.98V116.9H404.49V159.44ZM356.44 158.98H404.03V117.36H356.44V158.98Z" fill="#A1A1A1"/>
<path d="M452.54 159.44H404.03V116.9H452.54V159.44ZM404.49 158.98H452.08V117.36H404.49V158.98Z" fill="#A1A1A1"/>
<path d="M164.23 201.52H115.72V158.98H164.23V201.52ZM116.18 201.06H163.77V159.44H116.18V201.06Z" fill="#A1A1A1"/>
<path d="M212.28 201.52H163.77V158.98H212.28V201.52ZM164.23 201.06H211.82V159.44H164.23V201.06Z" fill="#A1A1A1"/>
<path d="M260.33 201.52H211.82V158.98H260.33V201.52ZM212.28 201.06H259.87V159.44H212.28V201.06Z" fill="#A1A1A1"/>
<path d="M308.15 159.21H260.1V201.29H308.15V159.21Z" fill="#EBEBEB"/>
<path d="M356.44 201.52H307.93V158.98H356.44V201.52ZM308.38 201.06H355.97V159.44H308.38V201.06Z" fill="#A1A1A1"/>
<path d="M404.49 201.52H355.98V158.98H404.49V201.52ZM356.44 201.06H404.03V159.44H356.44V201.06Z" fill="#A1A1A1"/>
<path d="M452.54 201.52H404.03V158.98H452.54V201.52ZM404.49 201.06H452.08V159.44H404.49V201.06Z" fill="#A1A1A1"/>
<path d="M164.23 243.6H115.72V201.06H164.23V243.6ZM116.18 243.14H163.77V201.52H116.18V243.14Z" fill="#A1A1A1"/>
<path d="M212.28 243.6H163.77V201.06H212.28V243.6ZM164.23 243.14H211.82V201.52H164.23V243.14Z" fill="#A1A1A1"/>
<path d="M260.33 243.6H211.82V201.06H260.33V243.6ZM212.28 243.14H259.87V201.52H212.28V243.14Z" fill="#A1A1A1"/>
<path d="M308.38 243.6H259.87V201.06H308.38V243.6ZM260.33 243.14H307.92V201.52H260.33V243.14Z" fill="#A1A1A1"/>
<path d="M356.44 243.6H307.93V201.06H356.44V243.6ZM308.38 243.14H355.97V201.52H308.38V243.14Z" fill="#A1A1A1"/>
<path d="M404.49 243.6H355.98V201.06H404.49V243.6ZM356.44 243.14H404.03V201.52H356.44V243.14Z" fill="#A1A1A1"/>
<path d="M452.54 243.6H404.03V201.06H452.54V243.6ZM404.49 243.14H452.08V201.52H404.49V243.14Z" fill="#A1A1A1"/>
<path d="M164.23 285.69H115.72V243.15H164.23V285.69ZM116.18 285.23H163.77V243.61H116.18V285.23Z" fill="#A1A1A1"/>
<path d="M212.28 285.69H163.77V243.15H212.28V285.69ZM164.23 285.23H211.82V243.61H164.23V285.23Z" fill="#A1A1A1"/>
<path d="M260.33 285.69H211.82V243.15H260.33V285.69ZM212.28 285.23H259.87V243.61H212.28V285.23Z" fill="#A1A1A1"/>
<path d="M308.38 285.69H259.87V243.15H308.38V285.69ZM260.33 285.23H307.92V243.61H260.33V285.23Z" fill="#A1A1A1"/>
<path d="M356.44 285.69H307.93V243.15H356.44V285.69ZM308.38 285.23H355.97V243.61H308.38V285.23Z" fill="#A1A1A1"/>
<path d="M404.49 285.69H355.98V243.15H404.49V285.69ZM356.44 285.23H404.03V243.61H356.44V285.23Z" fill="#A1A1A1"/>
<path d="M452.54 285.69H404.03V243.15H452.54V285.69ZM404.49 285.23H452.08V243.61H404.49V285.23Z" fill="#A1A1A1"/>
<path d="M164.23 327.77H115.72V285.23H164.23V327.77ZM116.18 327.31H163.77V285.69H116.18V327.31Z" fill="#A1A1A1"/>
<path d="M212.28 327.77H163.77V285.23H212.28V327.77ZM164.23 327.31H211.82V285.69H164.23V327.31Z" fill="#A1A1A1"/>
<path d="M260.33 327.77H211.82V285.23H260.33V327.77ZM212.28 327.31H259.87V285.69H212.28V327.31Z" fill="#A1A1A1"/>
<path d="M308.38 327.77H259.87V285.23H308.38V327.77ZM260.33 327.31H307.92V285.69H260.33V327.31Z" fill="#A1A1A1"/>
<path d="M356.44 327.77H307.93V285.23H356.44V327.77ZM308.38 327.31H355.97V285.69H308.38V327.31Z" fill="#A1A1A1"/>
<path d="M404.49 327.77H355.98V285.23H404.49V327.77ZM356.44 327.31H404.03V285.69H356.44V327.31Z" fill="#A1A1A1"/>
<path d="M430.24 327.77H404.02V285.23H452.53V309.48L452.45 309.55L430.24 327.77ZM404.49 327.31H430.08L452.08 309.26V285.69H404.49V327.31Z" fill="#A1A1A1"/>
<path d="M301.04 100.38H267.22V105.16H301.04V100.38Z" fill="#A7C1CE"/>
<path d="M416.9 300.64H476.3L416.9 355.74V300.64Z" fill="#ECF2F1"/>
<path d="M449.04 28.6099H119.22C104.16 28.6099 91.96 40.8199 91.96 55.8699V87.4399H476.3V55.8699C476.3 40.8099 464.09 28.6099 449.04 28.6099ZM139.98 68.5199C134.18 68.5199 129.48 63.8199 129.48 58.0199C129.48 52.2199 134.18 47.5199 139.98 47.5199C145.78 47.5199 150.48 52.2199 150.48 58.0199C150.48 63.8199 145.78 68.5199 139.98 68.5199ZM188.03 68.5199C182.23 68.5199 177.53 63.8199 177.53 58.0199C177.53 52.2199 182.23 47.5199 188.03 47.5199C193.83 47.5199 198.53 52.2199 198.53 58.0199C198.53 63.8199 193.83 68.5199 188.03 68.5199ZM236.08 68.5199C230.28 68.5199 225.58 63.8199 225.58 58.0199C225.58 52.2199 230.28 47.5199 236.08 47.5199C241.88 47.5199 246.58 52.2199 246.58 58.0199C246.58 63.8199 241.88 68.5199 236.08 68.5199ZM284.13 68.5199C278.33 68.5199 273.63 63.8199 273.63 58.0199C273.63 52.2199 278.33 47.5199 284.13 47.5199C289.93 47.5199 294.63 52.2199 294.63 58.0199C294.63 63.8199 289.93 68.5199 284.13 68.5199ZM332.18 68.5199C326.38 68.5199 321.68 63.8199 321.68 58.0199C321.68 52.2199 326.38 47.5199 332.18 47.5199C337.98 47.5199 342.68 52.2199 342.68 58.0199C342.68 63.8199 337.98 68.5199 332.18 68.5199ZM380.23 68.5199C374.43 68.5199 369.73 63.8199 369.73 58.0199C369.73 52.2199 374.43 47.5199 380.23 47.5199C386.03 47.5199 390.73 52.2199 390.73 58.0199C390.73 63.8199 386.03 68.5199 380.23 68.5199ZM428.28 68.5199C422.48 68.5199 417.78 63.8199 417.78 58.0199C417.78 52.2199 422.48 47.5199 428.28 47.5199C434.08 47.5199 438.78 52.2199 438.78 58.0199C438.78 63.8199 434.08 68.5199 428.28 68.5199Z" fill="#D266BC"/>
<path d="M145.29 10.02H134.66V62.8H145.29V10.02Z" fill="#A7C1CE"/>
<path d="M193.34 10.02H182.71V62.8H193.34V10.02Z" fill="#A7C1CE"/>
<path d="M241.39 10.02H230.76V62.8H241.39V10.02Z" fill="#A7C1CE"/>
<path d="M289.44 10.02H278.81V62.8H289.44V10.02Z" fill="#A7C1CE"/>
<path d="M337.5 10.02H326.87V62.8H337.5V10.02Z" fill="#A7C1CE"/>
<path d="M385.55 10.02H374.92V62.8H385.55V10.02Z" fill="#A7C1CE"/>
<path d="M433.6 10.02H422.97V62.8H433.6V10.02Z" fill="#A7C1CE"/>
<path d="M156.89 100.38H123.07V105.16H156.89V100.38Z" fill="#A7C1CE"/>
<path d="M204.94 100.38H171.12V105.16H204.94V100.38Z" fill="#A7C1CE"/>
<path d="M252.99 100.38H219.17V105.16H252.99V100.38Z" fill="#A7C1CE"/>
<path d="M349.09 100.38H315.27V105.16H349.09V100.38Z" fill="#A7C1CE"/>
<path d="M397.14 100.38H363.32V105.16H397.14V100.38Z" fill="#A7C1CE"/>
<path d="M445.19 100.38H411.37V105.16H445.19V100.38Z" fill="#A7C1CE"/>
<path d="M205.99 130.28H172.17V132.67H205.99V130.28Z" fill="#95A0B7"/>
<path d="M193.6 138.87H172.17V141.26H193.6V138.87Z" fill="#95A0B7"/>
<path d="M189.03 244.95L195.35 257.76L209.5 259.82L199.26 269.8L201.68 283.88L189.03 277.23L176.38 283.88L178.79 269.8L168.56 259.82L182.7 257.76L189.03 244.95Z" fill="#E4CC1C"/>
<path d="M188.03 244.95L194.35 257.76L208.5 259.82L198.26 269.8L200.68 283.88L188.03 277.23L175.38 283.88L177.79 269.8L167.56 259.82L181.7 257.76L188.03 244.95Z" fill="#FFC919"/>
<path d="M362.04 166.61C372.81 177.43 384.11 187.68 395.93 197.34C398.56 199.49 402.35 195.75 399.7 193.57C387.88 183.9 376.58 173.65 365.81 162.84C363.39 160.41 359.62 164.17 362.04 166.61Z" fill="#BC5AA8"/>
<path d="M395.67 158.64C383.72 172.32 372.08 186.27 360.77 200.48C358.66 203.14 362.4 206.93 364.54 204.25C375.85 190.04 387.49 176.09 399.44 162.41C401.69 159.84 397.93 156.06 395.67 158.64Z" fill="#BC5AA8"/>
<path d="M347.5 295.26C347.5 286.63 340.3 279.68 331.58 280.08C323.87 280.43 317.58 286.63 317.12 294.34C316.9 297.98 317.97 301.36 319.91 304.08C321.52 306.33 322.63 308.9 323.37 311.56C325.02 317.51 328.4 321.59 332.29 321.59C336.18 321.59 339.32 317.79 341.03 312.18C341.95 309.16 343.25 306.26 344.99 303.62C346.57 301.22 347.49 298.35 347.49 295.27L347.5 295.26Z" fill="#FFC919"/>
<path d="M339.7 328.21C339.7 329.6 338.85 330.85 337.55 331.35C336.38 331.8 334.68 332.2 332.28 332.2C329.88 332.2 328.17 331.76 326.97 331.29C325.69 330.78 324.86 329.54 324.86 328.17V315.66H339.69V328.22L339.7 328.21Z" fill="#95A0B7"/>
<path d="M332.91 298.83H331.67V315.46H332.91V298.83Z" fill="#83888D"/>
<path d="M334.45 316.08H330C329.74 316.08 329.51 315.92 329.42 315.67L322.25 295.58C322.16 295.33 322.24 295.06 322.44 294.89C322.64 294.72 322.93 294.71 323.15 294.84C323.25 294.9 333.21 300.89 340.3 295.29C340.51 295.12 340.81 295.11 341.03 295.27C341.25 295.42 341.35 295.71 341.27 295.97L335.03 315.65C334.95 315.91 334.71 316.08 334.44 316.08H334.45ZM330.44 314.84H334L339.57 297.29C333.71 300.67 326.89 298.09 323.96 296.67L330.44 314.84Z" fill="#83888D"/>
<path d="M435.91 127.58H370.01C364.885 127.58 360.73 131.735 360.73 136.86V138.69C360.73 143.815 364.885 147.97 370.01 147.97H435.91C441.035 147.97 445.19 143.815 445.19 138.69V136.86C445.19 131.735 441.035 127.58 435.91 127.58Z" fill="#62CACC"/>
<path d="M196.95 170.05H131.05C125.925 170.05 121.77 174.205 121.77 179.33V181.16C121.77 186.285 125.925 190.44 131.05 190.44H196.95C202.075 190.44 206.23 186.285 206.23 181.16V179.33C206.23 174.205 202.075 170.05 196.95 170.05Z" fill="#62CACC"/>
<path d="M438.34 189.37H418.22C413.18 189.37 409.1 185.29 409.1 180.25C409.1 175.21 413.19 171.13 418.22 171.13H438.34C443.38 171.13 447.46 175.22 447.46 180.25C447.46 185.29 443.37 189.37 438.34 189.37Z" fill="#D266BC"/>
<path opacity="0.32" d="M153.18 355.74L268.89 87.4302H246.13L132.86 355.74H153.18Z" fill="white"/>
<path opacity="0.32" d="M211.88 355.74H271.3L387.02 87.4302H325.15L211.88 355.74Z" fill="white"/>
<path opacity="0.32" d="M145.29 16.0898H134.66V24.5698H145.29V16.0898Z" fill="white"/>
<path opacity="0.32" d="M193.34 16.0898H182.71V24.5698H193.34V16.0898Z" fill="white"/>
<path opacity="0.32" d="M241.39 16.0898H230.76V24.5698H241.39V16.0898Z" fill="white"/>
<path opacity="0.32" d="M289.44 16.0898H278.81V24.5698H289.44V16.0898Z" fill="white"/>
<path opacity="0.32" d="M337.5 16.0898H326.87V24.5698H337.5V16.0898Z" fill="white"/>
<path opacity="0.32" d="M385.55 16.0898H374.92V24.5698H385.55V16.0898Z" fill="white"/>
<path opacity="0.32" d="M433.6 16.0898H422.97V24.5698H433.6V16.0898Z" fill="white"/>
<path d="M310.15 158.21H262.1V200.29H310.15V158.21Z" fill="#DDB50E"/>
<path d="M296.31 376.74C296.31 376.74 295.43 380.37 303.84 378C310.33 376.17 311.87 375.24 313.67 373.89C315.46 372.53 316.78 368.91 312.33 368.98C307.88 369.05 307.2 369.26 303.47 371.29C299.74 373.32 296.26 375.02 296.31 376.75V376.74Z" fill="#052533"/>
<path d="M302.87 365.53C302.87 365.53 302.2 371.48 303.64 373.64C305.08 375.8 298.46 376.38 297.88 374.79C297.3 373.21 297.88 366.73 297.88 366.73L302.87 365.53Z" fill="#FCC8C8"/>
<path d="M309.15 158.21H261.1V200.29H309.15V158.21Z" fill="#FFC919"/>
<path d="M272.57 365.23C272.57 365.23 273.16 371.16 271.72 373.32C270.28 375.48 277.89 375.61 277.77 373.93C277.66 372.38 277.66 366.54 277.66 366.54L272.57 365.23Z" fill="#FCC8C8"/>
<path d="M305.44 256.32C305.41 265.66 305.35 274.99 305.25 284.33L304.9 312.33C304.63 321.67 304.27 331 303.93 340.34L303.37 354.34L302.75 368.34L297.75 368.42L296.7 354.46L295.72 340.5L293.86 312.59L291.83 284.69C291.17 275.39 290.56 266.09 289.97 256.79L305.43 256.33L305.44 256.32Z" fill="#FCC8C8"/>
<path d="M293.54 262.91L282.06 314.9L282.11 314.28L277.68 368.76L272.68 368.62L271.17 313.99L271.22 313.36L274.64 260.23L293.54 262.91Z" fill="#FCC8C8"/>
<path d="M280.23 212.34L263.99 231.41L263.79 231.65C262.74 232.88 260.9 233.03 259.67 231.98C259.01 231.42 258.66 230.62 258.64 229.81L258.02 198.7C258.01 198.15 258.45 197.69 259 197.68C259.51 197.67 259.94 198.04 260.01 198.53L264.62 229.3L259.27 227.7L273.94 207.4C275.23 205.61 277.73 205.21 279.52 206.5C281.31 207.79 281.71 210.29 280.42 212.08C280.36 212.16 280.29 212.25 280.22 212.33L280.23 212.34Z" fill="#FCC8C8"/>
<path d="M285.29 208.88C285.29 208.88 293.18 210.39 294.99 212.14C296.8 213.89 297.55 213.32 297.55 213.32C297.55 213.32 296.08 210.39 292.92 208.81C289.76 207.23 285.29 208.88 285.29 208.88Z" fill="#F1C9BE"/>
<path d="M277.98 372.39C277.98 372.39 275.67 373.37 271.69 372.39C271.69 372.39 270.71 374.74 268.6 374.9C266.49 375.06 260.56 373.6 260.07 378.07C260.07 378.07 261.69 379.78 273.79 378.56L274.47 377.75V378.56C274.47 378.56 276.8 378.88 278.83 378.48C278.83 378.48 279.87 375.97 277.97 372.39H277.98Z" fill="#052533"/>
<path d="M296.31 376.74L297.26 372.03C297.26 372.03 300.35 373.8 302.93 371.58L304.74 373.4L303.3 376.75L296.3 377.3V376.75L296.31 376.74Z" fill="#052533"/>
<path d="M295.91 205.92L314.98 227.05L311.6 228.64L310.21 197.62C310.19 197.07 310.61 196.6 311.16 196.58C311.69 196.56 312.14 196.95 312.2 197.47L315.58 228.33C315.7 229.41 314.92 230.39 313.84 230.5C313.29 230.56 312.76 230.39 312.37 230.06L312.21 229.92L290.37 211.67C288.67 210.25 288.45 207.73 289.87 206.03C291.29 204.33 293.81 204.11 295.51 205.53C295.65 205.65 295.79 205.79 295.91 205.92Z" fill="#FCC8C8"/>
<path d="M313.19 202.25L309.79 202.41L310.99 217.81C310.99 217.81 296.49 200.91 295.56 202.73C294.63 204.55 295.06 216.26 295.06 216.26C295.06 216.26 307.66 228.49 311.86 231.89C313.72 233.39 316.54 232.65 317.38 230.41C317.95 228.89 318.29 226.57 318 223.04C317.12 212.44 313.18 202.26 313.18 202.26L313.19 202.25Z" fill="#DC7AC8"/>
<path d="M310.7 198.15C310.64 198.06 309.12 196.49 309.12 195.31C309.12 194.13 307.7 192.81 307.57 192.19C307.44 191.57 308.45 191.57 309.82 193.94L309.12 192.56V188.87C309.12 188.87 311.26 191.43 311.95 192.68C312.64 193.93 312.77 198.06 312.21 198.74C311.64 199.43 310.7 198.15 310.7 198.15Z" fill="#FCC8C8"/>
<path d="M275.18 215.29C275.18 215.29 271.13 283.75 267.47 301.58C267.47 301.58 273.97 306.74 287.14 305.49C300.31 304.24 308.79 306.91 313.72 302.24C313.72 302.24 301.24 225.31 301.78 220.86C302.32 216.41 290.6 209.06 290.6 209.06L275.19 215.28L275.18 215.29Z" fill="#204967"/>
<path d="M257.67 203.18L261.11 202.41L264.24 218.88C264.24 218.88 276.74 201.98 277.67 203.8C278.6 205.62 275.17 221.33 275.17 221.33C275.17 221.33 267.57 229.56 263.37 232.96C261.51 234.46 258.69 233.72 257.85 231.48C257.28 229.96 256.94 227.64 257.23 224.11C258.11 213.51 257.68 203.19 257.68 203.19L257.67 203.18Z" fill="#DC7AC8"/>
<path d="M302.04 169.46H268.22V171.85H302.04V169.46Z" fill="#95A0B7"/>
<path d="M302.04 178.05H268.22V180.44H302.04V178.05Z" fill="#95A0B7"/>
<path d="M302.04 186.64H268.22V189.03H302.04V186.64Z" fill="#95A0B7"/>
<path d="M299.58 175.48C297.09 168.97 289 166.51 283.15 170.32C280.28 172.19 277.57 175.45 277.65 181.06C277.85 194.44 275.25 204.87 273.92 215.59C272.96 223.4 279.72 233.61 289.47 233.36C299.22 233.11 305.33 220.67 301.69 210.79C298.05 200.9 300.32 185.95 300.51 181.06C300.58 179.2 300.25 177.27 299.56 175.48H299.58Z" fill="#052334"/>
<path d="M259.53 199.22C259.59 199.13 261.11 197.56 261.11 196.38C261.11 195.2 262.53 193.88 262.66 193.26C262.79 192.64 261.78 192.64 260.41 195.01L261.11 193.63V189.94C261.11 189.94 258.97 192.5 258.28 193.75C257.59 195 257.46 199.13 258.02 199.81C258.59 200.5 259.53 199.22 259.53 199.22Z" fill="#FCC8C8"/>
<path d="M219.79 426.31C219.79 426.31 219.33 431.81 227.03 432.71C234.73 433.61 249.76 428.99 245.35 423.98C240.94 418.97 234.23 424.19 226.74 421.34C219.25 418.49 219.79 426.31 219.79 426.31Z" fill="white"/>
<path d="M219.79 424.81C219.79 424.81 219.33 430.31 227.03 431.21C234.73 432.11 249.76 427.49 245.35 422.48C240.94 417.47 234.23 422.69 226.74 419.84C219.25 416.99 219.79 424.81 219.79 424.81Z" fill="#363648"/>
<path d="M224.05 421.28C223.64 423 222.67 425.63 220.39 427.04L212.51 421.17L218.52 417.09C218.52 417.09 220.49 418.57 222.87 419.29C223.73 419.55 224.26 420.41 224.05 421.28Z" fill="#FCC8C8"/>
<path d="M155.72 415.79C155.72 415.79 156.54 421.37 159.64 424.2L168.46 419.88L163.3 414.77C163.3 414.77 158.14 417.15 155.72 415.8V415.79Z" fill="#FCC8C8"/>
<path d="M189.19 340.07C189.7 335.02 192.34 317.61 192.37 317.44L182.57 315.95C182.46 316.68 179.86 333.78 179.33 339.07L189.2 340.07H189.19Z" fill="#FCC8C8"/>
<path d="M201.04 331.55C201.04 331.55 205.55 331.68 207.36 337.51C209.17 343.34 214.2 367.63 214.2 367.63L215.78 384.65L199.55 379.45L201.04 331.55Z" fill="#214965"/>
<g opacity="0.35" style="mix-blend-mode:multiply">
<path d="M188.21 325.09C187.82 324.87 187.43 324.65 187.06 324.42C184.99 322.96 183.19 320.39 182.16 318.71C182.39 317.16 182.55 316.12 182.58 315.95L192.38 317.44C192.37 317.52 191.77 321.47 191.09 326.14C190.1 325.86 189.12 325.5 188.22 325.09H188.21Z" fill="#FCC8C8"/>
</g>
<path d="M163.96 378.07L163.26 378.28L163.74 345.79C163.74 345.79 161.32 332.93 167.62 331.15C171.05 330.18 184.88 329.77 186.26 330.12C187.51 330.44 198.53 331.29 199.84 331.41C203.41 331.74 204.7 333.55 207.04 347.05C208.85 357.49 207.28 373.08 208.29 384.71L207.96 397.82C207.96 397.82 203.59 398.6 199.9 398.67C190.43 398.85 184.22 401.47 178.97 402.02C173.03 402.65 167.46 402.02 167.46 402.02L163.96 378.06V378.07Z" fill="#62CACC"/>
<g opacity="0.35" style="mix-blend-mode:multiply">
<path d="M192.37 317.43L182.57 315.94C182.54 316.12 182.35 317.36 182.08 319.19C182.58 320.73 183.33 322.55 184.38 323.87C184.64 324.16 184.91 324.44 185.18 324.73C186.8 326.14 188.9 327.43 190.83 327.86C191.61 322.48 192.36 317.53 192.37 317.44V317.43Z" fill="#FCC8C8"/>
</g>
<path d="M181.29 314.54C180.74 310.28 183.35 305.21 184.43 303.66C184.6 303.44 184.78 303.23 184.97 303.02C186.85 301.1 192.4 297.27 197.35 300.49C198.07 300.98 198.68 301.51 199.17 302C202.62 305.69 201.74 310.99 200.86 314.15C200.66 314.8 200.43 315.46 200.19 316.13C198.84 319.6 196.39 323.85 194.44 325.52C194.42 325.53 194.41 325.55 194.39 325.56C192.03 327.51 187.93 325.45 185.18 323.06C184.9 322.78 184.63 322.49 184.38 322.2C182.2 319.45 181.3 314.53 181.3 314.53L181.29 314.54Z" fill="#FCC8C8"/>
<path d="M190.41 330.75C190.41 330.75 192.12 334.14 190.34 334.83C188.56 335.53 183.36 335.12 180.51 330.1L182.79 326.91L189.25 330.01L190.4 330.75H190.41Z" fill="#FCC8C8"/>
<path d="M173.22 339L155.93 368.66L154.75 362.29L180.54 386.82C181.31 387.56 181.35 388.78 180.61 389.56C179.95 390.25 178.9 390.35 178.13 389.83L148.55 370.03C146.56 368.7 145.97 366.06 147.16 364.02L147.37 363.66L164.66 334C166.04 331.63 169.08 330.83 171.44 332.21C173.81 333.59 174.6 336.63 173.23 338.99L173.22 339Z" fill="#FCC8C8"/>
<path d="M155.72 415.79C155.72 415.79 135.99 413.8 135.77 419.48C135.55 425.16 139.52 427.83 145.74 427.04C151.96 426.25 159.63 424.2 159.63 424.2L155.71 415.79H155.72Z" fill="#363648"/>
<path d="M178.83 330.11C178.83 330.11 180.32 328.01 180.52 325.88C180.72 323.75 183.25 328.29 187.27 328.29C191.29 328.29 191.1 326.73 191.44 327.79C191.78 328.85 192.59 330.82 193.66 330.91C194.73 331 192.56 337.25 192.39 337.25C192.22 337.25 184.78 335.75 184.35 335.69C183.92 335.63 177.54 333.38 177.54 333.19C177.54 333 178.85 330.11 178.85 330.11H178.83Z" fill="#62CACC"/>
<path d="M193.65 330.91C193.65 330.91 199.2 352.01 198.87 363.17C198.54 374.33 197.45 392.04 197.45 392.04H210.58C210.58 392.04 211.66 333.88 201.04 331.55L193.66 330.91H193.65Z" fill="#214965"/>
<path d="M178.77 330.1C178.77 330.1 183.61 354.31 184.57 367.33C185.53 380.35 184.57 393.03 184.57 393.03L164.2 387.34L163.19 347.48L169.38 330.58C169.38 330.58 178.16 329.14 178.77 330.09V330.1Z" fill="#214965"/>
<path d="M172.57 393.03H208.09V391.06H172.57V393.03Z" fill="#BEBEBE"/>
<path d="M196.3 393.03H234.65L243.25 366.91C243.63 365.76 242.77 364.57 241.56 364.57H207.69C206.48 364.57 205.41 365.34 205.03 366.49L196.29 393.02L196.3 393.03Z" fill="#D4DCE9"/>
<path d="M218.98 378.81C218.98 377.65 219.92 376.72 221.07 376.72C222.22 376.72 223.17 377.66 223.17 378.81C223.17 379.96 222.23 380.9 221.07 380.9C219.91 380.9 218.98 379.96 218.98 378.81Z" fill="#EDEDED"/>
<path opacity="0.43" d="M222.51 393.03L217.48 364.58H241.56C242.77 364.58 243.63 365.77 243.25 366.92L234.65 393.04H222.51V393.03Z" fill="white"/>
<path d="M230.86 393.031H200.03L200.68 391.061H231.51L230.86 393.031Z" fill="#BEBEBE"/>
<path d="M177.36 384.66C177.36 384.66 182.34 387.24 184.94 387.21C187.54 387.18 192.02 390.24 192.57 391.06C193.12 391.88 178.2 391.56 177.36 389.12C176.52 386.67 176.05 384.99 177.36 384.66Z" fill="#FCC8C8"/>
<path d="M190.55 393.03C190.55 393.03 159.06 387.06 155.7 384.65C152.34 382.24 143.48 379.61 143.78 391.65C144.09 403.69 167.17 415.73 185.12 420.33C203.06 424.93 240.96 404.54 241.26 398.81C241.57 393.08 231.19 387.71 215.75 391.05C200.31 394.39 190.55 393.02 190.55 393.02V393.03Z" fill="#1C4156"/>
<path d="M219.13 413.54L212.62 409.85C193.12 396.8 152.79 378.17 147.5 381.97C147.5 381.97 139.94 388.49 144.86 396.35C149.78 404.21 215.82 426.77 215.82 426.77L221.74 415.95L222.12 415.25L219.12 413.54H219.13Z" fill="#1E4A65"/>
<path d="M163.99 425.66C163.99 425.66 247.28 411.26 241.27 397.9C235.26 384.55 218.98 393.03 218.98 393.03L160.3 413.05L163.99 425.66Z" fill="#1E4A65"/>
<path d="M155.72 415.79C155.72 415.79 153.86 417.11 154.93 421.31C156 425.51 159.64 424.19 159.64 424.19V419.21L155.72 415.78V415.79Z" fill="#FCC8C8"/>
<path d="M147.05 362.41L154.71 345.86C154.71 345.86 164.28 325 175.15 331.87C175.15 331.87 177.04 335.95 170.63 344.32C164.23 352.69 159.63 364.78 159.63 364.78L179.91 384.08L175.97 390.07L149.02 372.31C147.33 371.37 146.06 369.75 145.71 367.84C145.44 366.35 145.64 364.49 147.04 362.4L147.05 362.41Z" fill="#214965"/>
<path d="M181.02 317.38C180.29 316.22 179.68 314.25 179.92 312.44C180.08 311.23 180.91 309.88 181.22 306.75C181.53 303.62 181.53 300.94 184.28 299.56C187.03 298.18 187.09 299.06 189.34 297.56C191.59 296.06 195.18 296.19 196.65 297.56C198.46 299.25 200.77 299.75 202.46 301.31C204.95 303.62 205.15 306.81 204.71 308.03C204.03 309.93 201.59 312.92 198.59 309.62C196.09 306.87 195.4 308.32 192.84 307.19C191.94 306.79 191.09 306.93 190.36 307.27C189.01 307.9 188.12 309.23 187.91 310.71C187.67 312.42 187.19 314.88 186.49 313.75C185.46 312.08 187.26 308.87 185.4 308.61C182.75 308.23 183.4 313 183.65 315.13C183.9 317.26 184.02 320.49 182.59 319.57C181.87 319.11 181.44 318.04 181.03 317.38H181.02Z" fill="#052334"/>
<path d="M448.14 260.15L447.78 260.68L447.66 260.15L448.01 259.84L448.14 260.15Z" fill="#AFB3B6"/>
<path d="M416.72 242.87L416.31 243.52L417.14 243.27L417 242.87H416.72Z" fill="#AFB3B6"/>
<path d="M483.64 181.19C483.64 181.19 487.92 179.57 490 183.83C492.08 188.1 489.21 199.07 493.37 203.98C497.53 208.89 505.15 232.65 491.09 232.94C477.03 233.24 474.7 189.72 483.64 181.18V181.19Z" fill="#013049"/>
<path d="M494.69 272.3L493.86 287.81L492.91 303.32L491.85 318.84L491.32 326.6C491.21 327.89 491.16 329.19 491.15 330.48L491.06 334.37C490.81 344.73 490.65 355.1 490.33 365.48C490.07 375.86 489.72 386.24 489.35 396.63C489.29 398.26 487.93 399.53 486.3 399.47C484.79 399.42 483.59 398.24 483.46 396.77C482.57 386.38 481.71 375.99 480.93 365.59C480.1 355.19 479.42 344.78 478.66 334.36L478.38 330.45L478.24 328.5L478.22 326.55L478.17 318.73L478.07 303.09V287.44L478.21 271.79C478.25 267.23 481.97 263.57 486.53 263.61C491.09 263.65 494.75 267.37 494.71 271.93C494.71 272.05 494.71 272.19 494.7 272.31L494.69 272.3Z" fill="#FFBDA5"/>
<path d="M484.22 392.31L483.43 395.75C483.43 395.75 484.02 399.87 481.86 402.62C479.7 405.37 470.31 407.43 467.66 408.9C465.01 410.37 468.37 410.67 475.32 410.57C482.12 410.47 486.92 410.18 489.1 410.18C491.28 410.18 490.38 403.84 489.71 401.05C489.23 399.04 489.1 394.25 489.1 394.25L484.22 392.31Z" fill="#FFBDA5"/>
<path d="M490.37 404.95C489.23 405.59 488.15 406.85 485.66 407.24C482.57 407.72 477.83 408.01 475.99 407.24C474.92 406.79 474.76 406.34 474.82 406.04C472.03 407.17 469.07 408.12 467.66 408.9C465.01 410.37 468.37 410.67 475.32 410.57C482.12 410.47 486.92 410.18 489.1 410.18C490.44 410.18 490.89 407.5 490.37 404.95Z" fill="#013049"/>
<path d="M490.86 329.31C490.86 329.31 493.53 337.36 493.73 353.5C493.93 369.64 489.33 395.29 489.53 400.33C489.73 405.37 487.1 357.46 487.1 357.46L489.18 332.02L490.86 329.31Z" fill="#FFBDA5"/>
<path d="M477.02 218.06L462.54 249.26L462.36 249.66C461.84 250.78 460.84 251.54 459.73 251.81L429.75 258.92C428.67 259.18 427.59 258.51 427.34 257.43C427.11 256.47 427.62 255.51 428.49 255.13L456.75 242.86L453.94 245.4L467.64 213.85C468.77 211.25 471.8 210.05 474.4 211.18C477 212.31 478.2 215.34 477.07 217.94C477.06 217.97 477.03 218.02 477.02 218.06Z" fill="#FFBDA5"/>
<path d="M474.07 214.21C473.63 208.96 472.48 191.13 472.46 190.95L482.64 189.58C482.74 190.33 485.13 208.09 485.59 213.59L474.07 214.21Z" fill="#FFBDA5"/>
<g opacity="0.6" style="mix-blend-mode:multiply">
<path d="M476.94 202.47C477.35 202.25 477.76 202.02 478.15 201.79C480.32 200.32 482.23 197.68 483.33 195.96C483.12 194.35 482.97 193.27 482.95 193.1L472.77 194.47C472.78 194.56 472.69 198.71 473.32 203.56C474.35 203.29 476.01 202.88 476.95 202.47H476.94Z" fill="#FFBDA5"/>
</g>
<path d="M483 191.49C484.47 187.49 483.06 182.02 482.36 180.28C482.24 180.03 482.11 179.79 481.98 179.54C480.59 177.27 476.06 172.35 470.57 174.37C469.77 174.68 469.06 175.07 468.48 175.44C464.34 178.25 464.48 183.36 464.63 186.61C464.63 186.61 464.75 187.98 464.84 188.67C465.38 192.32 467.24 197.62 468.76 199.67C470.65 202.12 474.2 200.59 477.38 198.88C477.71 198.67 478.03 198.45 478.35 198.23C481.06 196.05 483.02 191.49 483.02 191.49H483Z" fill="#FFBDA5"/>
<path d="M434.86 250.67L453.97 243.52L459.51 228.4L465.05 239.53L460.9 250.07L438.52 254.73L434.86 250.67Z" fill="#B2DAE5"/>
<path d="M475.04 272.3L474.21 287.81L473.26 303.32L472.2 318.84L471.67 326.6C471.56 327.89 471.51 329.19 471.5 330.48L471.41 334.37C471.16 344.73 471 355.1 470.68 365.48C470.42 375.86 470.07 386.24 469.7 396.63C469.64 398.26 468.28 399.53 466.65 399.47C465.14 399.42 463.94 398.24 463.81 396.77C462.92 386.38 462.06 375.99 461.28 365.59C460.45 355.19 459.77 344.78 459.01 334.36L458.73 330.45L458.59 328.5L458.57 326.55L458.52 318.73L458.42 303.09V287.44L458.56 271.79C458.6 267.23 462.32 263.57 466.88 263.61C471.44 263.65 475.1 267.37 475.06 271.93C475.06 272.05 475.06 272.19 475.05 272.31L475.04 272.3Z" fill="#FFBDA5"/>
<path d="M465.28 209.01C465.28 209.01 457.34 222.36 457.39 226.52C457.42 229.09 457.5 230.18 460.05 236.47C462.6 242.76 461.41 252.62 461.41 252.62C461.41 252.62 462.2 265.85 461.99 282.13C461.78 298.41 492.47 303.25 494.19 287.19C496.22 268.23 488.62 257.66 489.59 251.67C490.56 245.68 498.59 210.12 491.89 208.4C481.75 205.8 466 207.43 465.29 209.02L465.28 209.01Z" fill="#E1F4FD"/>
<path d="M464.56 392.31L463.77 395.75C463.77 395.75 464.36 399.87 462.2 402.62C460.04 405.37 450.65 407.43 448 408.9C445.35 410.37 448.71 410.67 455.66 410.57C462.46 410.47 467.26 410.18 469.44 410.18C471.62 410.18 470.72 403.84 470.05 401.05C469.57 399.04 469.44 394.25 469.44 394.25L464.56 392.31Z" fill="#FFBDA5"/>
<path d="M470.72 404.95C469.58 405.59 468.5 406.85 466.02 407.24C462.93 407.72 458.19 408.01 456.35 407.24C455.28 406.79 455.12 406.34 455.18 406.04C452.39 407.17 449.43 408.12 448.02 408.9C445.37 410.37 448.73 410.67 455.68 410.57C462.48 410.47 467.28 410.18 469.46 410.18C470.8 410.18 471.25 407.5 470.73 404.95H470.72Z" fill="#013049"/>
<path d="M480.76 186.77C480.76 186.77 481.62 185.08 483.16 186.56C484.7 188.03 481.71 193.73 481.71 193.73L480.76 186.77Z" fill="#FFBDA5"/>
<path d="M497.33 214.31L491.24 246.7L491.18 247.04C490.82 248.95 489.26 250.32 487.42 250.53L444.21 255.44C443.11 255.56 442.12 254.78 441.99 253.68C441.87 252.67 442.54 251.74 443.51 251.51L485.77 241.25L481.95 245.08L487.2 212.55C487.65 209.75 490.29 207.84 493.09 208.3C495.89 208.75 497.8 211.39 497.34 214.19C497.34 214.23 497.32 214.28 497.32 214.32L497.33 214.31Z" fill="#FFBDA5"/>
<path d="M471.2 329.31C471.2 329.31 473.87 337.36 474.07 353.5C474.27 369.64 469.67 395.29 469.87 400.33C470.07 405.37 467.44 357.46 467.44 357.46L469.52 332.02L471.2 329.31Z" fill="#FFBDA5"/>
<path d="M461.72 259.58C461.72 259.58 456.45 266.17 456.35 282.43C456.25 298.69 458.33 337.7 458.97 342.06C459.61 346.42 462.78 398.99 462.78 398.99C462.78 398.99 468.29 399.78 470.83 398.99C470.83 398.99 475.06 365.92 475.06 351.86C475.06 337.8 473.57 329.39 475.06 323.55C476.54 317.71 478.92 278.46 478.92 278.46L475.94 260.19C475.94 260.19 464.23 260.37 461.72 259.58Z" fill="#003B54"/>
<path d="M472.34 288.59C472.34 288.59 476.44 330.17 477.23 341.16C478.02 352.15 482.18 398.68 482.18 398.68C482.18 398.68 488.71 399.87 491.49 398.68C491.49 398.68 495.25 365.22 495.15 351.46C495.05 337.7 492.51 331.26 493.73 321.36C494.95 311.46 499.3 279.24 493.73 265.42C493.73 265.42 492.08 262.04 490.99 259.57L473.66 260.18L472.33 288.59H472.34Z" fill="#003B54"/>
<path d="M473.44 205.53L470.02 207.6C470.02 207.6 471.19 209.93 474.76 211.04L476.34 208.28L478.04 211.24C478.04 211.24 483.69 211.39 486.96 207.02L484.71 204.46C484.71 204.46 475.96 209.59 473.44 205.52V205.53Z" fill="#CAE9F4"/>
<path d="M472.34 178.4H474.1C474.1 178.4 475.15 180.58 476.94 182.76C478.72 184.94 481.26 185.82 481.38 191.27C481.5 196.72 482.53 195.23 483.65 192.8C484.77 190.38 485.58 186.37 484.43 180.21C483.28 174.04 472.41 170.34 470.57 174.37C468.73 178.4 472.35 178.4 472.35 178.4H472.34Z" fill="#013049"/>
<path d="M444.72 251.3C444.72 251.3 442.16 251.24 440.3 250.9C438.44 250.57 435.25 251.52 435.25 251.52L437.29 255.4L440.97 256.73L444.72 255.02V251.3Z" fill="#FFBDA5"/>
<path d="M479.81 186.97C479.81 186.97 480.89 184.53 482.18 185.33C483.47 186.12 481.49 192.29 480.3 190.54C479.11 188.79 479.81 186.97 479.81 186.97Z" fill="#FFBDA5"/>
<path d="M481.41 185.3C481.21 185.27 481.11 185.12 481.13 184.97C481.14 184.9 482.21 177.94 476.62 175.39C471.65 173.12 470.36 174.3 470.35 174.32C470.24 174.43 470.06 174.43 469.95 174.32C469.84 174.21 469.83 174.04 469.93 173.93C470.08 173.77 471.51 172.44 476.85 174.87C482.84 177.6 481.7 184.98 481.69 185.06C481.67 185.2 481.55 185.3 481.41 185.3Z" fill="#8E8E8E"/>
<path d="M469.68 197.78C469.52 197.78 469.4 197.65 469.4 197.5C469.4 197.35 469.53 197.22 469.68 197.22C469.71 197.22 473.06 197.2 477.27 195.68C480.37 194.56 481.09 193.55 481.24 193.05C481.36 192.66 481.19 192.43 481.18 192.42C481.09 192.3 481.11 192.12 481.24 192.02C481.36 191.93 481.54 191.95 481.63 192.07C481.76 192.23 481.94 192.65 481.79 193.19C481.48 194.27 480.03 195.29 477.46 196.22C473.15 197.78 469.82 197.8 469.68 197.8V197.78Z" fill="#8E8E8E"/>
<path d="M470.86 198.36H469.63C469.15 198.36 468.76 197.97 468.76 197.49C468.76 197.01 469.15 196.62 469.63 196.62H470.86C471.34 196.62 471.73 197.01 471.73 197.49C471.73 197.97 471.34 198.36 470.86 198.36Z" fill="#424242"/>
<path d="M477.77 188.64C477.77 190.98 479.45 192.88 481.51 192.88C483.57 192.88 485.25 190.98 485.25 188.64C485.25 186.3 483.57 184.4 481.51 184.4C479.45 184.4 477.77 186.3 477.77 188.64Z" fill="#ABABAB"/>
<path d="M479.35 188.64C479.35 190 480.32 191.1 481.52 191.1C482.72 191.1 483.69 190 483.69 188.64C483.69 187.28 482.72 186.18 481.52 186.18C480.32 186.18 479.35 187.28 479.35 188.64Z" fill="#D2D6D9"/>
<path d="M474.1 177.21C474.1 177.21 476.14 180.18 471.39 181.86C466.64 183.54 464.76 184.57 464.56 187.42C464.36 190.27 462.58 186.41 464.56 178.99C466.54 171.56 475.62 173.74 474.1 177.21Z" fill="#013049"/>
<path d="M447.38 260.59H434.5C433.67 260.59 432.88 260.26 432.3 259.67L416.83 243.95C416.29 243.4 416.68 242.47 417.45 242.47H430.33C431.16 242.47 431.95 242.8 432.53 243.39L448 259.11C448.54 259.66 448.15 260.59 447.38 260.59Z" fill="#AFB3B6"/>
<path d="M447.04 261.11H434.16C433.33 261.11 432.54 260.78 431.96 260.19L416.49 244.47C415.95 243.92 416.34 242.99 417.11 242.99H429.99C430.82 242.99 431.61 243.32 432.19 243.91L447.66 259.63C448.2 260.18 447.81 261.11 447.04 261.11Z" fill="#6D6E6E"/>
<path d="M427.76 258.47C427.76 258.47 426.63 256.73 425.83 253.96C425.03 251.19 425.41 251.18 425.83 251.38C426.25 251.58 428.49 252.56 429.24 254.25C429.99 255.95 431.24 258.45 430.39 258.98C429.54 259.51 428.39 259.19 427.75 258.47H427.76Z" fill="#FFBDA5"/>
<path d="M426.92 255.4C426.92 255.4 425.37 252.96 424.92 253.04C424.47 253.12 427.36 257.79 427.36 257.79L426.92 255.4Z" fill="#FFBDA5"/>
<path d="M445.75 250.47C445.75 250.47 446.6 253.05 446.64 255.41L483.6 252.05C483.6 252.05 489.81 252.66 491.59 248C493.37 243.34 498.07 214.79 498.07 214.79C498.07 214.79 498.92 208.01 493.73 207.86C488.55 207.72 487.16 209.84 486.6 213.43C486.04 217.01 482.18 240.24 482.18 240.24L445.75 250.48V250.47Z" fill="#CAE9F4"/>
<path d="M89.25 173.1C89.25 173.1 92.46 177.94 93.47 181.6C94.48 185.27 89.58 184.49 89.58 184.49L84.91 177.67L89.26 173.1H89.25Z" fill="#FFBDA5"/>
<path d="M93.95 192.78L115.81 214.34L108.72 220.04L88.92 182.61C88.42 181.66 88.78 180.48 89.73 179.98C90.61 179.52 91.68 179.79 92.24 180.58L116.54 215.25C117.98 217.31 117.48 220.15 115.43 221.59C113.64 222.85 111.25 222.63 109.71 221.19L109.46 220.95L87.03 199.98C85.01 198.09 84.91 194.93 86.79 192.91C88.68 190.89 91.84 190.79 93.86 192.67C93.89 192.7 93.93 192.74 93.96 192.76L93.95 192.78Z" fill="#FFBDA5"/>
<path d="M92.94 190.69C92.94 190.69 103.08 201.03 108.48 205.88C113.88 210.73 119.38 215.68 117.27 221.45C115.16 227.22 103.26 220.81 95.29 210.37C87.32 199.93 92.94 190.69 92.94 190.69Z" fill="#B2DAE5"/>
<path d="M23.32 219.64C23.32 219.64 24.2 219.62 23.3 219.27C22.99 218.69 22.44 218.31 22.44 218.31L21.73 217.68C21.73 217.68 15.11 212.52 14.32 213.26C13.67 213.87 18.17 216.84 15.39 216.55C15.39 216.55 10.96 215.05 8.70999 214.21C6.43999 213.37 8.77999 219.85 17.96 222.05C18.64 222.2 21.78 222 22.89 221.6C23.77 221.61 23.12 221.37 24.05 221.67C24.98 221.96 23.31 219.63 23.31 219.63L23.32 219.64Z" fill="#FFBDA5"/>
<path d="M97.28 250.79L98.16 314.26L98.2 318.22L97.98 322.19L97.54 330.12L96.66 345.98L94.9 377.68C94.78 379.85 92.93 381.51 90.76 381.39C88.7 381.28 87.1 379.58 87.05 377.56L86.28 345.98L85.89 330.2L85.7 322.31L85.6 318.37L85.35 314.43L81.23 251.42C80.94 247 84.29 243.17 88.72 242.88C93.14 242.59 96.97 245.94 97.26 250.37C97.26 250.5 97.27 250.66 97.28 250.78V250.79Z" fill="#FFBDA5"/>
<path d="M58.96 377.92C58.96 377.92 58.44 381.87 62.4 383.54C66.35 385.21 72.55 386.62 73.09 389.92C73.63 393.22 60.52 390.87 54.82 389.38C49.11 387.89 50.32 388.3 50.66 383.06C51 377.82 50.96 377.04 50.96 377.04L58.97 377.92H58.96Z" fill="#013049"/>
<path d="M85.4067 167.566L78.6575 170.673C78.3114 170.833 78.1599 171.243 78.3193 171.589L84.2032 184.369C84.3625 184.715 84.7723 184.867 85.1185 184.708L91.8676 181.6C92.2138 181.441 92.3652 181.031 92.2058 180.685L86.322 167.904C86.1626 167.558 85.7528 167.407 85.4067 167.566Z" fill="#5B5B5B"/>
<path d="M85.3942 168.243L79.1719 171.107C78.8508 171.255 78.7103 171.635 78.8582 171.956L84.282 183.738C84.4298 184.059 84.8099 184.199 85.131 184.052L91.3533 181.187C91.6743 181.039 91.8148 180.659 91.667 180.338L86.2431 168.557C86.0953 168.235 85.7152 168.095 85.3942 168.243Z" fill="#154992"/>
<path d="M94.86 377.73C94.86 377.73 94.68 381.71 98.76 383.04C102.84 384.37 109.13 385.16 109.95 388.4C110.77 391.64 97.51 390.5 91.7 389.49C85.89 388.48 87.13 388.8 87.02 383.55C86.92 378.3 86.71 376.3 86.71 376.3L94.87 377.73H94.86Z" fill="#013049"/>
<path d="M82.72 256.73C82.72 256.73 73.95 302.12 72.58 314.44C71.22 326.75 60.32 381.63 60.32 381.63C60.32 381.63 57.12 383.62 50.89 379.93C50.82 375.36 49.88 340.82 56.57 322.07C56.57 322.07 57 293.76 57.31 284.32C57.54 277.29 59.44 256.19 59.44 256.19L82.73 256.73H82.72Z" fill="#003B54"/>
<path d="M76.46 254.98L81.41 317.3C81.41 317.3 80.64 360.03 86.46 381.73C86.46 381.73 91.23 381.67 96.13 381.14L98.04 319.43L98.18 253.72L76.46 254.98Z" fill="#003B54"/>
<path d="M70.54 195.41C70.65 190.29 71.39 172.91 71.38 172.74L81.38 172.46C81.4 173.2 81.41 190.4 81.29 195.76L70.54 195.41Z" fill="#FFBDA5"/>
<g opacity="0.45" style="mix-blend-mode:multiply">
<path d="M71.38 172.74L81.38 172.46C81.39 172.93 81.4 179.98 81.38 186.46C80.03 186.43 78.52 186.11 77.05 185.75C76.69 185.63 76.33 185.5 75.98 185.37C74.04 184.48 72.17 182.64 71.04 181.4C71.22 176.75 71.39 172.82 71.38 172.74Z" fill="#FFBDA5"/>
</g>
<path d="M93.35 190.96C93.35 190.96 95.53 200.72 96.14 208.1C97.73 227.15 97.68 237.68 97.76 246.13C97.79 248.95 98.17 254.39 98.17 254.39C98.17 254.39 88.98 255.66 79.05 255.8C67.4 255.97 59.38 254.39 59.38 254.39C59.38 254.39 60 247.07 60.23 228.53C60.48 208.68 55.03 192.44 58.43 191.35C63.46 189.75 71.28 189.92 78.25 189.97C86.17 190.03 92.98 190.14 93.34 190.96H93.35Z" fill="#E1ECF4"/>
<path d="M70.25 176.83C68.38 173.13 69.12 167.68 69.6 165.92C69.69 165.67 69.78 165.42 69.89 165.16C70.98 162.81 74.8 157.54 80.33 158.86C81.14 159.07 81.87 159.36 82.47 159.65C86.79 161.89 87.24 166.84 87.46 170.01C87.46 170.01 87.5 171.34 87.49 172.03C87.38 175.62 86.19 180.95 84.96 183.11C84.95 183.13 84.94 183.15 84.93 183.16C83.41 185.69 79.81 184.62 76.54 183.33C76.2 183.16 75.86 182.99 75.53 182.81C72.66 181.01 70.25 176.83 70.25 176.83Z" fill="#FFBDA5"/>
<path d="M63.42 198.72L54.78 235.15L54.68 235.56C54.13 237.87 51.81 239.3 49.5 238.76C49.06 238.66 48.64 238.48 48.28 238.26L20.97 221.87C20.05 221.32 19.75 220.12 20.3 219.19C20.8 218.36 21.82 218.04 22.69 218.38L52.33 230.03L45.83 233.14L53.66 196.53C54.24 193.83 56.89 192.11 59.59 192.69C62.29 193.27 64.01 195.92 63.43 198.62C63.43 198.65 63.41 198.7 63.41 198.73L63.42 198.72Z" fill="#FFBDA5"/>
<path d="M72.83 169.14C72.83 169.14 73.71 166.17 76.46 166.17C79.21 166.17 81.17 168.19 83.13 167.05C85.09 165.91 87.07 168 88.25 166.17C89.43 164.34 89.3 160.99 86.75 160.64C84.21 160.29 84.69 158.64 81.38 158.05C78.07 157.46 77.97 158.79 75.51 158.05C73.05 157.31 70.69 158.56 69.21 162.94C69.21 162.94 65.72 164.8 67.72 171.68C69.72 178.56 71.13 178.9 71.13 178.9L72.83 169.14Z" fill="#013049"/>
<path d="M73.33 172.62C73.51 173.84 73.03 175.45 72.17 175.57C71.31 175.69 70.4 174.29 70.22 173.07C70.04 171.85 70.6 170.76 71.46 170.64C72.32 170.52 73.16 171.41 73.33 172.63V172.62Z" fill="#FFBDA5"/>
<path d="M79.07 190.69L77.62 193.61L79.33 196.83H80.96L81.53 193.02L79.07 190.69Z" fill="#FF3A00"/>
<path d="M79.58 194.88L79.33 196.83L79.94 228.06L84.76 236.1L86.96 227L80.67 194.73L79.58 194.88Z" fill="#FF3A00"/>
<path d="M70.21 187.27L69.01 189.87C69.01 189.87 70.97 194.1 77.39 194.1L79.08 190.68L81.89 193.34C81.89 193.34 84.25 192.72 84.57 189.6L81.51 187.26C81.51 187.26 80.76 193.17 70.21 187.26V187.27Z" fill="#CAE9F4"/>
<path d="M59.47 252.44C59.47 252.44 59.34 253.43 59.34 254.88C59.34 255.54 59.45 256.38 59.47 257.11C59.47 257.11 83.13 261.19 98.2 255.82C98.2 255.82 98.5 252.92 98.18 251.91C98.18 251.91 81.31 256.98 59.47 252.44Z" fill="#975600"/>
<path d="M63.6 253C63.6 253 62.98 255.82 63.26 258.31L64.24 258.47C64.24 258.47 64.24 254.05 64.86 253.25L63.6 253Z" fill="#003B54"/>
<path d="M93.28 252.57C93.28 252.57 94.24 255.32 93.74 257.88L94.7 257.67C94.7 257.67 95.32 254.14 94.24 252.27L93.28 252.57Z" fill="#003B54"/>
<path d="M84.21 253.72C84.21 253.72 78.75 253.98 77.08 253.85C77.08 253.85 77.23 257.51 77.08 259.21C77.08 259.21 82.01 259.44 84.56 258.8L84.2 253.72H84.21ZM78.38 258.27C78.48 257.16 78.38 254.76 78.38 254.76C79.47 254.85 83.04 254.68 83.04 254.68L83.27 258C81.6 258.42 78.37 258.27 78.37 258.27H78.38Z" fill="#FFD831"/>
<path d="M23.14 217.65C23.14 217.65 23.02 221.01 20.82 222.87L47.38 238.57C47.38 238.57 53.01 240.68 54.93 238.57C56.85 236.46 60.07 221.26 61.47 212.54C63.18 201.93 65.7 191.67 60.24 190.72C53.18 189.49 51.36 201.65 50.1 210.81C49.26 216.97 46.74 226.38 46.74 226.38L23.13 217.64L23.14 217.65Z" fill="#CAE9F4"/>
<path d="M88.06 184.26C88.06 184.26 92.59 182.2 94.51 180.37L116.45 214.51C116.45 214.51 119.11 219.09 116.45 222.87C113.79 226.65 107.29 220.63 100.6 207.15C93.92 193.67 88.05 184.26 88.05 184.26H88.06Z" fill="#CAE9F4"/>
<path d="M88.79 172.46C88.79 172.46 87.05 174 85.63 175.83C84.21 177.66 87.37 175.83 88.06 175.33C88.75 174.83 89.85 174.25 89.85 173.1C89.85 171.95 88.8 172.46 88.8 172.46H88.79Z" fill="#FFBDA5"/>
<path d="M89.66 173.88C89.66 173.88 87.9199 175.42 86.4999 177.25C85.0799 179.08 88.2399 177.25 88.9299 176.75C89.6199 176.25 90.7199 175.67 90.7199 174.52C90.7199 173.37 89.6699 173.88 89.6699 173.88H89.66Z" fill="#FFBDA5"/>
<path d="M90.48 175.29C90.48 175.29 88.74 176.83 87.32 178.66C85.9 180.49 89.06 178.66 89.75 178.16C90.44 177.66 91.54 177.08 91.54 175.93C91.54 174.78 90.49 175.29 90.49 175.29H90.48Z" fill="#FFBDA5"/>
<path d="M91.25 176.89C91.25 176.89 89.84 177.97 88.71 179.23C87.58 180.49 90.15 179.18 90.71 178.82C91.27 178.46 92.17 178.05 92.14 177.28C92.11 176.51 91.25 176.89 91.25 176.89Z" fill="#FFBDA5"/>
</svg>
